<?xml version="1.0" encoding="UTF-8" standalone="no"?>
<!DOCTYPE svg PUBLIC "-//W3C//DTD SVG 20010904//EN"
              "http://www.w3.org/TR/2001/REC-SVG-20010904/DTD/svg10.dtd">

<svg xmlns="http://www.w3.org/2000/svg"
     width="1.21667in" height="1.22333in"
     viewBox="0 0 365 367">
  <path id="flowers"
        fill="#2c4522" stroke="none" stroke-width="1"
        d="M 165.00,129.00
           C 157.49,134.23 151.23,132.66 154.57,125.00
             157.10,119.20 166.13,107.45 171.01,103.52
             177.20,98.53 198.43,85.96 206.00,84.88
             206.00,84.88 218.00,84.88 218.00,84.88
             218.00,84.88 250.00,83.39 250.00,83.39
             257.76,82.02 260.61,81.84 268.00,78.51
             271.54,76.91 276.09,73.67 280.00,75.03
             283.81,76.35 287.54,81.05 290.15,84.00
             296.54,91.21 303.03,98.12 307.00,107.00
             300.38,110.83 294.65,114.36 289.28,119.92
             283.44,125.99 278.94,133.35 272.00,138.37
             261.14,146.22 250.49,144.83 240.00,150.39
             240.00,150.39 223.00,161.90 223.00,161.90
             221.00,163.17 217.71,165.17 215.19,163.87
             211.88,162.02 213.66,156.59 215.19,154.00
             219.70,145.50 227.80,142.77 230.39,136.91
             235.17,126.09 227.42,116.55 216.01,121.80
             206.06,126.39 206.83,139.11 196.00,140.00
             196.00,140.00 203.00,119.00 203.00,119.00
             198.48,121.10 194.76,122.13 191.34,126.05
             186.17,131.98 188.04,137.06 179.00,139.00
             179.00,139.00 180.00,130.00 180.00,130.00
             173.10,135.37 171.49,142.47 162.00,139.00
             162.00,139.00 166.00,130.00 166.00,130.00
             166.00,130.00 165.00,129.00 165.00,129.00 Z
           M 88.00,171.71
           C 93.40,171.89 97.76,172.72 100.43,178.04
             103.21,183.57 102.95,192.52 95.00,192.92
             89.97,193.18 81.49,188.85 78.60,184.82
             75.48,180.48 77.18,174.98 82.02,172.84
             83.93,171.99 85.95,171.88 88.00,171.71 Z
           M 115.00,172.74
           C 118.77,171.83 125.36,171.26 128.81,173.31
             135.95,177.56 132.59,184.87 126.98,188.61
             125.00,189.94 122.27,191.35 120.00,192.09
             104.90,196.98 104.44,178.43 115.00,172.74 Z
           M 69.00,192.48
           C 74.26,191.76 91.14,193.45 91.14,200.94
             91.14,206.60 78.32,209.19 74.00,209.49
             60.98,210.37 56.68,200.20 64.11,194.56
             65.83,193.25 67.03,193.05 69.00,192.48 Z
           M 133.00,192.44
           C 137.62,191.86 143.13,191.85 146.69,195.42
             152.72,201.46 146.79,208.23 140.00,209.33
             135.05,210.14 118.63,207.66 118.63,201.00
             118.63,195.61 128.92,193.23 133.00,192.44 Z
           M 101.36,200.02
           C 108.25,197.38 111.85,201.65 108.63,203.98
             106.21,205.74 96.79,205.64 101.36,200.02 Z
           M 90.00,209.76
           C 109.52,205.14 103.57,233.75 87.00,231.86
             80.58,231.13 74.59,224.55 78.02,218.04
             80.10,214.11 86.03,211.38 90.00,209.76 Z
           M 111.14,210.02
           C 118.38,207.46 131.50,212.77 132.76,221.00
             133.69,227.10 128.63,231.23 123.00,231.86
             110.61,233.26 102.34,217.73 111.14,210.02 Z
           M 163.00,217.48
           C 168.10,216.85 172.94,217.34 175.99,222.06
             178.75,226.31 179.22,234.31 172.98,235.65
             164.53,237.45 147.91,226.09 159.11,218.93
             160.49,218.05 161.51,217.92 163.00,217.48 Z
           M 192.00,217.55
           C 197.27,216.90 207.50,219.69 205.09,226.99
             203.49,231.84 196.65,234.74 192.00,235.53
             183.30,237.01 181.51,229.61 184.65,223.04
             186.36,219.46 188.47,218.67 192.00,217.55 Z
           M 104.00,227.00
           C 104.00,227.00 106.00,227.00 106.00,227.00
             106.00,227.00 107.00,288.00 107.00,288.00
             107.00,288.00 107.96,298.00 107.96,298.00
             107.96,298.00 107.96,309.00 107.96,309.00
             107.96,309.00 102.99,306.43 102.99,306.43
             102.99,306.43 102.00,289.00 102.00,289.00
             102.00,289.00 102.00,273.00 102.00,273.00
             102.00,273.00 102.96,261.00 102.96,261.00
             102.96,261.00 102.96,249.00 102.96,249.00
             102.96,249.00 104.00,227.00 104.00,227.00 Z
           M 146.06,236.85
           C 151.51,235.33 157.78,235.61 163.00,238.06
             171.88,242.22 168.16,246.74 161.00,249.30
             156.71,250.84 150.41,251.91 146.06,249.99
             139.43,247.04 139.80,240.46 146.06,236.85 Z
           M 203.00,236.52
           C 206.93,235.89 213.49,235.28 216.85,237.74
             221.53,241.16 220.84,248.79 213.00,250.61
             208.17,251.73 201.35,250.36 197.04,248.01
             190.91,244.66 192.15,240.71 198.00,238.11
             198.00,238.11 203.00,236.52 203.00,236.52 Z
           M 175.00,244.00
           C 179.98,240.50 181.90,240.20 186.00,245.00
             181.02,248.50 179.10,248.80 175.00,244.00 Z
           M 134.00,247.00
           C 135.90,251.80 134.40,255.33 132.87,260.00
             129.49,270.34 121.02,284.26 111.00,289.00
             111.05,272.03 121.68,257.70 134.00,247.00 Z
           M 69.00,248.00
           C 85.46,260.23 98.54,279.94 99.00,301.00
             86.55,295.39 78.13,280.08 72.95,268.00
             70.29,261.79 67.97,254.82 69.00,248.00 Z
           M 169.00,250.74
           C 182.21,248.69 180.07,267.74 169.00,270.53
             161.67,272.37 153.57,266.30 155.86,260.09
             157.71,255.07 164.36,252.34 169.00,250.74 Z
           M 187.12,250.87
           C 192.67,249.57 199.79,252.83 203.43,257.21
             207.46,262.05 205.52,267.63 199.96,269.99
             186.69,275.64 177.44,257.27 187.12,250.87 Z
           M 180.00,266.00
           C 182.92,269.97 181.99,275.23 182.00,280.00
             182.00,280.00 183.00,297.00 183.00,297.00
             183.00,297.00 183.00,331.00 183.00,331.00
             177.55,330.04 178.03,328.05 178.00,323.00
             178.00,323.00 178.00,301.00 178.00,301.00
             178.00,301.00 179.00,285.00 179.00,285.00
             179.01,278.89 178.34,271.85 180.00,266.00 Z
           M 185.00,320.00
           C 185.00,320.00 187.71,310.00 187.71,310.00
             191.12,299.07 199.68,282.86 211.00,279.00
             208.52,292.60 199.82,315.95 185.00,320.00 Z
           M 148.00,284.00
           C 159.35,288.84 169.43,305.45 172.96,317.00
             174.24,321.18 175.57,325.65 175.00,330.00
             160.68,322.97 148.39,299.76 148.00,284.00 Z" />
  <path id="sign"
        fill="#f60000" stroke="none" stroke-width="1"
        d="M 158.00,2.51
           C 158.00,2.51 195.00,2.00 195.00,2.00
             204.73,2.02 201.27,2.77 208.00,3.80
             226.94,6.68 244.71,12.07 262.00,20.49
             282.97,30.71 302.15,44.66 317.83,62.00
             373.94,124.04 379.11,221.07 330.25,289.00
             312.86,313.18 288.72,333.79 262.00,347.00
             233.13,361.26 206.87,365.37 175.00,365.00
             162.40,364.85 143.25,360.88 131.00,357.42
             85.08,344.46 43.91,312.13 21.32,270.00
             11.94,252.51 5.73,233.55 2.71,214.00
             1.58,206.75 1.01,208.52 1.00,200.00
             1.00,200.00 1.00,168.00 1.00,168.00
             1.03,151.70 8.70,125.05 15.28,110.00
             33.14,69.15 67.21,34.69 108.00,16.58
             120.82,10.88 134.29,7.09 148.00,4.37
             148.00,4.37 158.00,2.51 158.00,2.51 Z
           M 171.00,35.15
           C 171.00,35.15 154.00,37.80 154.00,37.80
             134.27,41.58 114.50,50.05 98.00,61.46
             93.19,64.78 88.38,68.09 84.02,72.00
             82.51,73.35 79.62,75.71 79.61,77.91
             79.59,80.75 85.77,84.39 87.91,85.98
             87.91,85.98 116.00,107.01 116.00,107.01
             116.00,107.01 227.00,189.73 227.00,189.73
             227.00,189.73 289.00,236.12 289.00,236.12
             289.00,236.12 304.83,247.66 304.83,247.66
             306.61,248.98 309.42,251.61 311.80,251.13
             314.04,250.67 315.27,247.84 316.14,246.00
             316.14,246.00 323.31,228.00 323.31,228.00
             329.87,208.13 331.30,183.70 328.82,163.00
             328.82,163.00 327.32,156.00 327.32,156.00
             327.32,156.00 325.96,147.00 325.96,147.00
             325.96,147.00 320.62,131.00 320.62,131.00
             302.49,82.44 258.42,45.69 207.00,37.08
             207.00,37.08 200.00,37.08 200.00,37.08
             192.93,36.06 194.96,35.02 185.00,35.15
             185.00,35.15 171.00,35.15 171.00,35.15 Z
           M 290.00,284.00
           C 290.00,284.00 250.00,253.72 250.00,253.72
             250.00,253.72 192.99,211.09 192.99,211.09
             192.99,211.09 91.00,135.01 91.00,135.01
             91.00,135.01 66.00,116.63 66.00,116.63
             63.66,114.87 57.92,109.71 55.13,110.03
             53.03,110.27 51.93,112.39 51.02,114.02
             51.02,114.02 44.61,128.00 44.61,128.00
             39.43,141.14 37.73,149.20 35.70,163.00
             34.65,170.17 34.01,168.40 34.00,177.00
             34.00,177.00 34.00,191.00 34.00,191.00
             34.01,199.60 34.65,197.83 35.70,205.00
             37.58,217.75 38.93,224.85 43.80,237.00
             52.49,258.65 63.94,276.29 81.17,292.25
             124.88,332.74 190.02,342.97 244.00,318.00
             257.51,311.74 281.47,295.88 290.00,284.00 Z" />
</svg>
