<?xml version="1.0" encoding="UTF-8" standalone="no"?>
<!DOCTYPE svg PUBLIC "-//W3C//DTD SVG 20010904//EN"
              "http://www.w3.org/TR/2001/REC-SVG-20010904/DTD/svg10.dtd">

<svg xmlns="http://www.w3.org/2000/svg"
     width="0.793333in" height="0.793333in"
     viewBox="0 0 238 238">
  <path id="dog"
        fill="#015186" stroke="none" stroke-width="1"
        d="M 105.00,1.21
           C 105.00,1.21 124.00,1.21 124.00,1.21
             134.90,1.02 146.70,3.50 157.00,7.00
             220.16,28.51 252.49,97.75 229.68,160.00
             225.14,172.38 218.31,184.95 209.70,195.00
             200.02,206.31 188.19,216.26 175.00,223.22
             152.24,235.23 136.21,237.29 111.00,237.00
             102.03,236.89 92.59,234.58 84.00,232.14
             16.17,212.84 -16.38,136.77 9.45,73.00
             19.54,48.09 41.68,24.13 66.00,12.54
             78.30,6.68 91.61,3.45 105.00,1.21 Z
           M 141.00,90.00
           C 141.00,90.00 119.00,68.00 119.00,68.00
             119.00,68.00 105.02,54.00 105.02,54.00
             103.22,52.12 101.54,50.48 100.59,48.00
             99.56,45.30 100.39,42.38 97.57,39.39
             92.38,33.89 83.39,36.41 82.24,44.00
             80.54,55.20 91.66,52.88 97.00,57.18
             97.00,57.18 128.00,88.00 128.00,88.00
             132.24,92.23 138.00,99.81 141.00,90.00 Z
           M 90.00,43.00
           C 90.00,43.00 92.00,43.00 92.00,43.00
             92.00,43.00 92.00,48.00 92.00,48.00
             92.00,48.00 90.00,48.00 90.00,48.00
             90.00,48.00 90.00,43.00 90.00,43.00 Z
           M 182.00,59.00
           C 175.40,62.12 160.85,77.95 155.17,83.96
             153.03,86.22 147.71,90.80 148.03,94.00
             148.29,96.71 152.13,100.12 154.00,102.00
             159.34,107.38 168.61,117.98 175.00,121.00
             176.87,118.13 180.85,110.52 183.33,109.02
             185.97,107.42 194.57,108.06 198.00,108.00
             199.50,107.97 201.42,107.99 202.82,107.40
             205.94,106.09 209.40,100.53 207.87,97.18
             206.23,93.58 199.15,91.24 196.60,87.79
             194.36,84.77 195.63,82.16 193.40,79.39
             190.94,76.33 185.40,75.39 183.60,70.91
             182.56,68.33 183.57,64.51 182.00,59.00 Z
           M 140.00,153.00
           C 140.00,153.00 140.00,179.00 140.00,179.00
             140.08,184.92 142.54,191.85 150.00,190.34
             157.06,188.90 156.99,181.65 157.00,176.00
             157.01,168.36 158.47,151.80 161.36,145.00
             163.95,138.89 169.73,133.85 167.58,129.17
             166.64,127.11 159.05,120.05 157.00,118.00
             154.34,115.34 143.24,103.39 140.82,102.14
             138.61,101.00 136.41,101.04 134.00,101.00
             134.00,101.00 84.00,101.00 84.00,101.00
             74.25,100.98 75.06,100.27 68.00,88.00
             66.76,85.84 64.18,80.43 61.78,79.71
             57.45,78.40 58.00,86.74 58.00,89.00
             58.00,89.00 58.00,103.00 58.00,103.00
             58.13,112.22 60.82,111.65 61.89,118.00
             61.89,118.00 61.89,145.00 61.89,145.00
             61.98,158.20 58.63,156.84 56.53,166.00
             55.81,169.11 55.94,176.53 56.00,180.00
             56.11,185.82 59.11,191.73 66.00,190.34
             75.44,188.43 71.98,178.42 73.27,172.00
             74.19,167.46 81.99,156.53 84.81,152.00
             86.27,149.65 88.92,145.13 91.18,143.69
             94.44,141.61 101.32,144.21 105.00,145.00
             105.00,145.00 140.00,153.00 140.00,153.00 Z" />
</svg>
