<?xml version="1.0" encoding="UTF-8" standalone="no"?>
<!DOCTYPE svg PUBLIC "-//W3C//DTD SVG 20010904//EN"
              "http://www.w3.org/TR/2001/REC-SVG-20010904/DTD/svg10.dtd">

<svg xmlns="http://www.w3.org/2000/svg"
     width="1.39in" height="1.39in"
     viewBox="0 0 417 417">
  <path id="dog-poo"
        fill="#2c4522" stroke="none" stroke-width="1"
        d="M 217.00,68.00
           C 217.00,68.00 240.00,79.26 240.00,79.26
             240.00,79.26 268.00,75.19 268.00,75.19
             268.00,75.19 290.00,81.02 290.00,81.02
             290.00,81.02 304.00,78.00 304.00,78.00
             306.53,81.66 309.42,85.05 311.51,89.00
             312.68,91.21 314.04,94.53 314.19,97.00
             314.70,99.14 314.42,100.91 314.19,103.00
             310.31,120.54 289.37,115.33 280.63,124.47
             278.53,126.67 274.50,135.74 272.94,139.00
             272.94,139.00 259.00,169.00 259.00,169.00
             259.00,169.00 227.00,148.58 227.00,148.58
             227.00,148.58 216.35,139.91 216.35,139.91
             216.35,139.91 219.16,126.00 219.16,126.00
             219.16,126.00 226.32,96.00 226.32,96.00
             226.32,96.00 217.00,68.00 217.00,68.00 Z
           M 191.00,158.00
           C 191.00,158.00 203.96,148.00 203.96,148.00
             206.28,146.17 208.93,143.49 212.04,143.35
             215.93,143.19 220.85,147.35 224.00,149.50
             224.00,149.50 245.00,164.12 245.00,164.12
             248.45,166.52 253.67,169.32 255.57,173.09
             258.03,177.96 257.55,185.77 258.67,191.00
             258.67,191.00 264.77,211.00 264.77,211.00
             264.77,211.00 264.77,232.00 264.77,232.00
             264.77,232.00 228.00,196.00 228.00,196.00
             228.00,196.00 191.00,158.00 191.00,158.00 Z
           M 60.00,205.00
           C 56.28,191.77 67.81,179.17 81.00,179.00
             84.82,178.95 88.51,178.72 92.00,180.57
             97.20,183.33 99.38,187.83 101.57,193.00
             106.28,204.12 107.02,219.01 106.86,231.00
             106.98,240.95 105.19,241.23 106.86,252.00
             108.14,261.86 110.02,274.40 122.00,276.43
             135.07,278.64 126.88,261.31 125.75,255.00
             124.48,247.85 123.04,243.45 123.00,236.00
             122.93,221.39 126.68,205.27 138.00,195.18
             140.50,192.96 149.87,185.69 153.00,186.02
             156.43,186.39 164.30,195.30 167.00,198.00
             167.00,198.00 203.00,234.00 203.00,234.00
             203.00,234.00 221.00,252.00 221.00,252.00
             225.20,256.20 229.29,259.17 231.00,265.00
             231.00,265.00 226.00,267.00 226.00,267.00
             223.70,260.16 221.93,257.29 216.00,253.00
             218.14,260.95 221.07,265.13 221.83,274.00
             222.97,287.43 215.66,296.46 209.00,307.00
             218.58,311.93 228.37,321.55 237.00,328.45
             239.90,330.77 244.60,335.13 248.00,336.26
             252.67,337.82 267.42,332.46 270.34,342.00
             271.27,345.01 269.62,346.31 266.94,346.89
             266.94,346.89 248.00,348.97 248.00,348.97
             241.01,348.92 234.95,342.95 228.00,339.77
             217.73,335.07 201.30,330.14 190.00,329.86
             190.00,329.86 185.00,329.86 185.00,329.86
             183.28,329.99 180.64,330.03 179.02,329.86
             170.51,327.14 175.44,316.37 174.96,308.00
             174.85,306.13 174.65,304.02 173.26,302.60
             171.51,300.80 157.34,299.44 154.05,299.00
             154.92,302.80 155.69,308.22 154.05,311.94
             153.12,314.27 151.02,316.15 148.93,313.63
             145.54,309.54 147.95,300.06 147.66,298.01
             147.21,294.89 144.26,292.79 142.00,290.85
             140.66,289.71 138.79,287.89 137.00,287.60
             135.75,287.41 124.11,292.23 122.00,293.05
             117.53,294.78 115.88,293.12 112.00,293.80
             108.93,294.34 98.47,300.39 90.97,288.98
             88.29,284.91 88.23,281.42 86.77,277.00
             86.77,277.00 82.39,264.00 82.39,264.00
             80.36,254.61 81.92,241.59 83.18,232.00
             84.50,221.91 88.78,213.65 83.74,203.00
             83.10,201.66 82.28,200.33 81.29,199.22
             73.35,190.31 65.90,200.15 60.00,205.00 Z
           M 243.00,275.00
           C 248.63,279.03 254.05,285.03 259.00,290.00
             261.48,292.49 265.00,295.70 266.26,299.00
             268.17,304.00 265.42,313.91 268.60,317.57
             272.49,322.06 284.69,318.33 286.21,326.97
             287.19,332.59 279.47,331.99 276.00,332.00
             276.00,332.00 264.00,332.00 264.00,332.00
             260.70,331.98 257.48,332.38 255.89,328.85
             255.89,328.85 253.53,311.00 253.53,311.00
             253.53,311.00 247.33,289.00 247.33,289.00
             245.62,283.81 243.58,280.51 243.00,275.00 Z
           M 153.15,320.74
           C 160.45,319.04 168.14,324.02 166.34,328.69
             164.50,333.50 143.92,327.24 153.15,320.74 Z
           M 126.00,331.84
           C 126.25,324.77 129.83,322.04 137.00,321.18
             139.25,320.91 143.34,320.70 144.34,323.31
             146.27,328.32 137.45,331.07 134.00,331.84
             131.65,332.08 128.44,332.00 126.00,331.84 Z" />
  <path id="sign"
        fill="#f60000" stroke="none" stroke-width="1"
        d="M 203.00,2.42
           C 212.38,1.28 214.52,2.96 223.00,3.00
             234.12,3.06 247.15,5.54 258.00,8.12
             341.52,27.94 405.60,99.31 414.17,185.00
             414.17,185.00 415.96,212.00 415.96,212.00
             415.96,212.00 415.09,220.00 415.09,220.00
             413.19,247.81 408.43,270.44 396.69,296.00
             368.73,356.91 308.49,402.90 242.00,412.70
             231.02,414.32 215.16,415.13 204.00,415.00
             204.00,415.00 194.00,413.96 194.00,413.96
             194.00,413.96 186.00,413.96 186.00,413.96
             171.23,412.42 150.85,407.54 137.00,402.19
             107.35,390.74 79.85,373.36 58.09,350.00
             -3.43,283.97 -14.59,185.59 29.09,107.00
             48.63,71.86 81.90,40.52 118.00,22.82
             125.00,19.38 145.25,11.98 153.00,9.78
             161.25,7.44 183.73,3.10 192.00,3.00
             196.76,2.95 198.09,3.12 203.00,2.42 Z
           M 200.00,38.14
           C 200.00,38.14 189.00,39.29 189.00,39.29
             166.08,42.28 148.52,48.33 128.00,58.76
             122.81,61.39 117.81,64.40 113.00,67.67
             111.24,68.87 107.92,70.95 107.34,73.09
             106.39,76.56 112.75,81.75 115.00,84.00
             115.00,84.00 143.00,112.00 143.00,112.00
             143.00,112.00 257.03,226.09 257.03,226.09
             257.03,226.09 321.00,290.00 321.00,290.00
             321.00,290.00 337.00,306.00 337.00,306.00
             338.60,307.56 341.53,310.80 343.91,310.80
             346.28,310.80 348.28,307.73 349.48,306.00
             349.48,306.00 359.74,289.00 359.74,289.00
             372.35,264.58 377.22,246.23 379.09,219.00
             379.09,219.00 379.96,211.00 379.96,211.00
             379.96,211.00 379.04,199.00 379.04,199.00
             375.58,119.66 316.22,53.81 238.00,40.75
             230.81,39.55 220.18,38.09 213.00,38.14
             213.00,38.14 200.00,38.14 200.00,38.14 Z
           M 75.00,105.00
           C 67.97,110.53 60.79,123.84 56.76,132.00
             47.43,150.87 39.03,177.86 39.00,199.00
             39.00,199.00 39.00,220.00 39.00,220.00
             39.14,232.04 43.53,251.52 47.50,263.00
             63.85,310.29 99.78,349.75 147.00,367.58
             170.50,376.45 191.06,379.29 216.00,379.00
             216.00,379.00 225.00,378.17 225.00,378.17
             250.39,375.71 268.37,370.04 291.00,358.25
             296.53,355.37 301.92,352.15 306.98,348.49
             309.18,346.90 311.96,345.08 310.83,341.96
             310.08,339.89 306.61,336.63 305.00,335.00
             305.00,335.00 291.00,321.00 291.00,321.00
             291.00,321.00 251.08,280.95 251.08,280.95
             245.72,275.67 238.59,267.11 232.00,264.00
             231.41,259.77 225.04,254.92 222.01,251.67
             222.01,251.67 190.98,220.91 190.98,220.91
             190.98,220.91 75.00,105.00 75.00,105.00 Z" />
</svg>
