<?xml version="1.0" encoding="UTF-8" standalone="no"?>
<!DOCTYPE svg PUBLIC "-//W3C//DTD SVG 20010904//EN"
              "http://www.w3.org/TR/2001/REC-SVG-20010904/DTD/svg10.dtd">

<svg xmlns="http://www.w3.org/2000/svg"
     width="1.97333in" height="2.93in"
     viewBox="0 0 592 879">
  <path id="inside"
        fill="#f9b81c" stroke="none" stroke-width="1"
        d="M 296.00,72.00
           C 296.00,72.00 302.00,74.00 302.00,74.00
             302.00,74.00 301.00,77.00 301.00,77.00
             301.00,77.00 303.00,76.00 303.00,76.00
             303.00,76.00 306.00,81.00 306.00,81.00
             306.00,81.00 305.00,83.00 305.00,83.00
             305.00,83.00 307.00,83.00 307.00,83.00
             307.00,83.00 310.00,92.00 310.00,92.00
             310.00,92.00 312.00,92.00 312.00,92.00
             312.02,94.25 311.83,94.37 314.00,95.00
             314.00,95.00 313.00,97.00 313.00,97.00
             313.00,97.00 315.00,97.00 315.00,97.00
             315.00,97.00 314.00,99.00 314.00,99.00
             314.00,99.00 316.00,99.00 316.00,99.00
             316.02,101.25 315.83,101.37 318.00,102.00
             318.00,102.00 322.00,109.00 322.00,109.00
             322.00,109.00 321.00,111.00 321.00,111.00
             321.00,111.00 323.00,111.00 323.00,111.00
             323.00,111.00 322.00,113.00 322.00,113.00
             322.00,113.00 324.00,113.00 324.00,113.00
             324.02,115.25 323.83,115.37 326.00,116.00
             326.00,116.00 325.00,118.00 325.00,118.00
             325.00,118.00 327.00,118.00 327.00,118.00
             327.24,120.70 327.31,122.07 330.00,123.00
             330.00,123.00 329.00,125.00 329.00,125.00
             329.00,125.00 331.00,125.00 331.00,125.00
             331.00,125.00 334.00,130.00 334.00,130.00
             334.00,130.00 333.00,132.00 333.00,132.00
             333.00,132.00 335.00,132.00 335.00,132.00
             335.00,132.00 334.00,134.00 334.00,134.00
             334.00,134.00 336.00,134.00 336.00,134.00
             336.00,134.00 339.00,139.00 339.00,139.00
             339.00,139.00 340.00,145.00 340.00,145.00
             340.00,145.00 342.00,144.00 342.00,144.00
             342.77,147.10 342.69,149.92 346.00,151.00
             346.00,151.00 345.00,153.00 345.00,153.00
             345.00,153.00 347.00,153.00 347.00,153.00
             347.00,153.00 346.00,155.00 346.00,155.00
             346.00,155.00 348.00,155.00 348.00,155.00
             348.02,157.25 347.83,157.37 350.00,158.00
             350.40,160.56 351.51,164.06 354.00,165.00
             354.00,165.00 353.00,167.00 353.00,167.00
             353.00,167.00 355.00,167.00 355.00,167.00
             355.00,167.00 354.00,169.00 354.00,169.00
             354.00,169.00 356.00,169.00 356.00,169.00
             356.00,169.00 358.00,176.00 358.00,176.00
             358.00,176.00 362.00,179.00 362.00,179.00
             362.00,179.00 361.00,181.00 361.00,181.00
             361.00,181.00 363.00,181.00 363.00,181.00
             363.02,183.25 362.83,183.37 365.00,184.00
             365.00,184.00 364.00,187.00 364.00,187.00
             364.00,187.00 366.00,186.00 366.00,186.00
             366.00,186.00 365.00,188.00 365.00,188.00
             365.00,188.00 367.00,188.00 367.00,188.00
             367.00,188.00 370.00,193.00 370.00,193.00
             370.00,193.00 369.00,195.00 369.00,195.00
             369.00,195.00 371.00,195.00 371.00,195.00
             371.49,197.91 374.20,204.04 377.00,205.00
             377.00,205.00 376.00,208.00 376.00,208.00
             376.00,208.00 378.00,207.00 378.00,207.00
             378.00,207.00 377.00,209.00 377.00,209.00
             377.00,209.00 379.00,209.00 379.00,209.00
             379.00,209.00 382.00,214.00 382.00,214.00
             382.26,217.76 383.24,218.57 386.00,221.00
             386.00,221.00 389.00,226.00 389.00,226.00
             389.00,226.00 388.00,228.00 388.00,228.00
             388.00,228.00 394.00,235.00 394.00,235.00
             394.00,235.00 393.00,237.00 393.00,237.00
             393.00,237.00 395.00,237.00 395.00,237.00
             395.00,237.00 395.00,241.00 395.00,241.00
             395.00,241.00 397.00,240.00 397.00,240.00
             397.00,240.00 397.00,244.00 397.00,244.00
             397.00,244.00 398.00,246.00 398.00,246.00
             398.00,246.00 401.00,247.00 401.00,247.00
             401.00,247.00 400.00,249.00 400.00,249.00
             400.00,249.00 402.00,249.00 402.00,249.00
             402.26,252.91 407.09,260.38 410.00,263.00
             410.00,263.00 412.00,271.00 412.00,271.00
             412.00,271.00 414.00,270.00 414.00,270.00
             414.00,270.00 416.00,277.00 416.00,277.00
             416.00,277.00 418.00,277.00 418.00,277.00
             418.00,277.00 420.00,284.00 420.00,284.00
             420.00,284.00 422.00,284.00 422.00,284.00
             422.00,284.00 421.00,286.00 421.00,286.00
             421.00,286.00 423.00,286.00 423.00,286.00
             423.00,286.00 426.00,291.00 426.00,291.00
             426.00,291.00 427.00,297.00 427.00,297.00
             427.00,297.00 429.00,296.00 429.00,296.00
             429.00,296.00 429.00,300.00 429.00,300.00
             429.00,300.00 431.00,300.00 431.00,300.00
             431.00,300.00 434.00,305.00 434.00,305.00
             434.46,308.13 437.97,315.97 441.00,317.00
             441.00,317.00 440.00,319.00 440.00,319.00
             440.00,319.00 442.00,319.00 442.00,319.00
             442.00,319.00 441.00,321.00 441.00,321.00
             441.00,321.00 443.00,321.00 443.00,321.00
             443.02,323.25 442.83,323.37 445.00,324.00
             445.00,324.00 444.00,326.00 444.00,326.00
             444.00,326.00 446.00,326.00 446.00,326.00
             446.00,326.00 449.00,331.00 449.00,331.00
             449.00,331.00 448.00,333.00 448.00,333.00
             448.00,333.00 450.00,333.00 450.00,333.00
             450.00,333.00 453.00,338.00 453.00,338.00
             453.00,338.00 452.00,341.00 452.00,341.00
             452.00,341.00 454.00,340.00 454.00,340.00
             454.00,340.00 453.00,342.00 453.00,342.00
             453.00,342.00 455.00,342.00 455.00,342.00
             455.24,344.70 455.31,346.07 458.00,347.00
             458.00,347.00 459.00,353.00 459.00,353.00
             459.00,353.00 461.00,352.00 461.00,352.00
             462.17,356.67 462.23,357.68 466.00,361.00
             466.11,363.85 466.15,365.07 469.00,366.00
             469.33,368.86 470.13,372.02 473.00,373.00
             473.00,373.00 474.00,375.00 474.00,375.00
             474.00,375.00 473.00,377.00 473.00,377.00
             473.00,377.00 474.00,379.00 474.00,379.00
             474.00,379.00 477.00,380.00 477.00,380.00
             477.00,380.00 476.00,383.00 476.00,383.00
             476.00,383.00 478.00,382.00 478.00,382.00
             478.00,382.00 480.00,389.00 480.00,389.00
             480.00,389.00 482.00,389.00 482.00,389.00
             482.00,389.00 481.00,391.00 481.00,391.00
             481.00,391.00 482.00,393.00 482.00,393.00
             482.00,393.00 485.00,394.00 485.00,394.00
             485.00,394.00 484.00,396.00 484.00,396.00
             484.00,396.00 486.00,396.00 486.00,396.00
             486.25,398.69 487.31,402.08 490.00,403.00
             490.00,403.00 491.00,409.00 491.00,409.00
             491.00,409.00 493.00,408.00 493.00,408.00
             493.00,408.00 493.00,412.00 493.00,412.00
             493.00,412.00 495.00,412.00 495.00,412.00
             495.00,412.00 498.00,417.00 498.00,417.00
             498.29,419.93 502.33,428.09 505.00,429.00
             505.00,429.00 504.00,431.00 504.00,431.00
             504.00,431.00 506.00,431.00 506.00,431.00
             506.00,431.00 505.00,433.00 505.00,433.00
             505.00,433.00 507.00,433.00 507.00,433.00
             507.02,435.25 506.83,435.37 509.00,436.00
             509.00,436.00 508.00,439.00 508.00,439.00
             508.00,439.00 510.00,438.00 510.00,438.00
             510.24,440.70 510.31,442.07 513.00,443.00
             513.00,443.00 512.00,445.00 512.00,445.00
             512.00,445.00 514.00,445.00 514.00,445.00
             514.00,445.00 516.00,453.00 516.00,453.00
             516.00,453.00 518.00,452.00 518.00,452.00
             518.00,452.00 519.00,454.00 519.00,454.00
             519.00,454.00 519.00,458.00 519.00,458.00
             519.00,458.00 496.00,458.00 496.00,458.00
             496.00,458.00 479.00,456.97 479.00,456.97
             479.00,456.97 336.00,456.97 336.00,456.97
             336.00,456.97 323.00,456.97 323.00,456.97
             323.00,456.97 311.00,456.00 311.00,456.00
             311.00,456.00 220.00,456.00 220.00,456.00
             220.00,456.00 136.00,456.00 136.00,456.00
             136.00,456.00 121.00,455.00 121.00,455.00
             121.00,455.00 92.00,455.00 92.00,455.00
             92.00,455.00 74.00,454.00 74.00,454.00
             74.00,454.00 74.00,450.00 74.00,450.00
             74.00,450.00 75.00,448.00 75.00,448.00
             77.21,447.46 76.92,447.19 77.00,445.00
             79.75,442.52 80.62,441.75 81.00,438.00
             81.00,438.00 83.00,435.00 83.00,435.00
             83.00,435.00 85.00,436.00 85.00,436.00
             85.00,436.00 84.00,433.00 84.00,433.00
             84.00,433.00 85.00,431.00 85.00,431.00
             87.21,430.46 86.92,430.19 87.00,428.00
             87.00,428.00 88.00,426.00 88.00,426.00
             90.82,425.05 90.92,423.80 91.00,421.00
             91.00,421.00 92.00,419.00 92.00,419.00
             94.92,417.85 97.67,412.11 98.00,409.00
             98.00,409.00 100.00,406.00 100.00,406.00
             100.00,406.00 101.00,404.00 101.00,404.00
             103.69,403.33 104.65,399.55 105.00,397.00
             108.06,394.12 111.83,389.27 112.00,385.00
             112.00,385.00 115.00,384.00 115.00,384.00
             115.00,384.00 114.00,382.00 114.00,382.00
             114.00,382.00 116.00,382.00 116.00,382.00
             116.00,382.00 115.00,380.00 115.00,380.00
             115.00,380.00 117.00,380.00 117.00,380.00
             117.00,380.00 119.00,377.00 119.00,377.00
             119.00,377.00 124.00,365.00 124.00,365.00
             124.00,365.00 125.00,363.00 125.00,363.00
             125.00,363.00 128.00,358.00 128.00,358.00
             128.00,358.00 129.00,356.00 129.00,356.00
             129.00,356.00 132.00,355.00 132.00,355.00
             132.00,355.00 134.00,348.00 134.00,348.00
             134.00,348.00 136.00,348.00 136.00,348.00
             136.00,348.00 135.00,346.00 135.00,346.00
             135.00,346.00 136.00,344.00 136.00,344.00
             136.00,344.00 138.00,341.00 138.00,341.00
             140.75,338.41 143.66,334.84 144.00,331.00
             144.00,331.00 145.00,329.00 145.00,329.00
             145.00,329.00 148.00,328.00 148.00,328.00
             148.00,328.00 147.00,326.00 147.00,326.00
             147.00,326.00 149.00,326.00 149.00,326.00
             149.00,326.00 148.00,324.00 148.00,324.00
             148.00,324.00 150.00,324.00 150.00,324.00
             150.00,324.00 153.00,320.00 153.00,320.00
             153.00,320.00 152.00,317.00 152.00,317.00
             152.00,317.00 153.00,315.00 153.00,315.00
             153.00,315.00 155.00,312.00 155.00,312.00
             157.21,311.46 156.92,311.19 157.00,309.00
             157.00,309.00 158.00,307.00 158.00,307.00
             158.00,307.00 160.00,308.00 160.00,308.00
             160.00,308.00 159.00,305.00 159.00,305.00
             159.00,305.00 162.00,304.00 162.00,304.00
             162.00,304.00 162.00,300.00 162.00,300.00
             164.21,299.46 163.92,299.19 164.00,297.00
             164.00,297.00 165.00,295.00 165.00,295.00
             165.00,295.00 167.00,296.00 167.00,296.00
             167.00,296.00 166.00,293.00 166.00,293.00
             168.50,292.38 170.51,287.44 171.00,285.00
             171.00,285.00 172.00,283.00 172.00,283.00
             174.82,282.05 174.92,280.80 175.00,278.00
             175.00,278.00 176.00,276.00 176.00,276.00
             176.00,276.00 178.00,273.00 178.00,273.00
             178.00,273.00 179.00,271.00 179.00,271.00
             181.21,270.46 180.92,270.19 181.00,268.00
             181.00,268.00 183.00,268.00 183.00,268.00
             183.21,264.70 183.30,264.89 186.00,263.00
             186.00,263.00 185.00,261.00 185.00,261.00
             185.00,261.00 187.00,261.00 187.00,261.00
             187.00,261.00 189.00,254.00 189.00,254.00
             191.21,253.46 190.92,253.19 191.00,251.00
             191.00,251.00 193.00,251.00 193.00,251.00
             193.00,251.00 195.00,244.00 195.00,244.00
             195.00,244.00 197.00,245.00 197.00,245.00
             197.00,245.00 196.00,242.00 196.00,242.00
             196.00,242.00 199.00,241.00 199.00,241.00
             199.00,241.00 199.00,237.00 199.00,237.00
             201.67,235.99 203.48,231.73 204.00,229.00
             204.00,229.00 206.00,229.00 206.00,229.00
             206.00,229.00 205.00,227.00 205.00,227.00
             205.00,227.00 206.00,225.00 206.00,225.00
             206.00,225.00 209.00,224.00 209.00,224.00
             209.00,224.00 208.00,222.00 208.00,222.00
             208.00,222.00 210.00,222.00 210.00,222.00
             210.00,222.00 212.00,219.00 212.00,219.00
             212.00,219.00 212.00,215.00 212.00,215.00
             212.00,215.00 215.00,214.00 215.00,214.00
             215.00,214.00 214.00,212.00 214.00,212.00
             214.00,212.00 216.00,212.00 216.00,212.00
             216.21,208.70 216.30,208.89 219.00,207.00
             219.00,207.00 218.00,205.00 218.00,205.00
             218.00,205.00 220.00,205.00 220.00,205.00
             220.00,205.00 222.00,198.00 222.00,198.00
             222.00,198.00 225.00,193.00 225.00,193.00
             227.80,190.46 228.84,189.88 229.00,186.00
             229.00,186.00 232.00,181.00 232.00,181.00
             232.00,181.00 237.00,176.00 237.00,176.00
             237.00,176.00 236.00,174.00 236.00,174.00
             236.00,174.00 239.00,173.00 239.00,173.00
             239.00,173.00 238.00,171.00 238.00,171.00
             238.00,171.00 240.00,171.00 240.00,171.00
             240.00,171.00 242.00,168.00 242.00,168.00
             242.00,168.00 242.00,164.00 242.00,164.00
             244.21,163.46 243.92,163.19 244.00,161.00
             244.00,161.00 246.00,161.00 246.00,161.00
             246.00,161.00 245.00,159.00 245.00,159.00
             245.00,159.00 246.00,157.00 246.00,157.00
             248.80,155.96 248.64,154.80 249.00,152.00
             249.00,152.00 251.00,149.00 251.00,149.00
             251.00,149.00 252.00,147.00 252.00,147.00
             254.96,145.85 255.83,142.99 256.00,140.00
             256.00,140.00 258.00,137.00 258.00,137.00
             258.00,137.00 259.00,135.00 259.00,135.00
             259.00,135.00 266.00,127.00 266.00,127.00
             266.00,127.00 265.00,125.00 265.00,125.00
             267.99,121.99 271.83,117.31 272.00,113.00
             272.00,113.00 275.00,108.00 275.00,108.00
             275.00,108.00 276.00,106.00 276.00,106.00
             278.21,105.46 277.92,105.19 278.00,103.00
             278.00,103.00 279.00,101.00 279.00,101.00
             279.00,101.00 284.00,93.00 284.00,93.00
             284.00,93.00 285.00,91.00 285.00,91.00
             287.82,90.05 287.92,88.80 288.00,86.00
             288.00,86.00 289.00,84.00 289.00,84.00
             291.21,83.46 290.92,83.19 291.00,81.00
             291.00,81.00 292.00,79.00 292.00,79.00
             292.00,79.00 294.00,76.00 294.00,76.00
             294.00,76.00 296.00,76.00 296.00,76.00
             296.00,76.00 295.00,74.00 295.00,74.00
             295.00,74.00 296.00,72.00 296.00,72.00 Z
           M 321.00,109.00
           C 321.00,109.00 320.00,109.00 320.00,109.00
             320.00,109.00 321.00,110.00 321.00,110.00
             321.00,110.00 321.00,109.00 321.00,109.00 Z
           M 333.00,130.00
           C 333.00,130.00 332.00,130.00 332.00,130.00
             332.00,130.00 333.00,131.00 333.00,131.00
             333.00,131.00 333.00,130.00 333.00,130.00 Z
           M 238.00,174.00
           C 238.00,174.00 237.00,174.00 237.00,174.00
             237.00,174.00 238.00,175.00 238.00,175.00
             238.00,175.00 238.00,174.00 238.00,174.00 Z
           M 355.00,200.00
           C 355.00,200.00 349.00,208.00 349.00,208.00
             349.00,208.00 350.00,210.00 350.00,210.00
             350.00,210.00 348.00,210.00 348.00,210.00
             348.00,210.00 349.00,212.00 349.00,212.00
             349.00,212.00 347.00,212.00 347.00,212.00
             347.00,212.00 346.00,218.00 346.00,218.00
             346.00,218.00 344.00,218.00 344.00,218.00
             344.00,218.00 341.00,229.00 341.00,229.00
             341.00,229.00 339.00,229.00 339.00,229.00
             339.00,229.00 340.00,231.00 340.00,231.00
             340.00,231.00 338.00,231.00 338.00,231.00
             338.00,231.00 336.00,235.00 336.00,235.00
             336.00,235.00 329.77,248.96 329.77,248.96
             329.77,248.96 326.00,256.00 326.00,256.00
             326.00,256.00 325.00,261.00 325.00,261.00
             325.00,261.00 332.00,261.00 332.00,261.00
             332.00,261.00 329.00,268.00 329.00,268.00
             329.00,268.00 320.00,295.00 320.00,295.00
             320.00,295.00 314.00,295.00 314.00,295.00
             314.00,295.00 315.00,293.00 315.00,293.00
             315.00,293.00 313.00,293.00 313.00,293.00
             312.86,290.62 313.29,290.70 311.00,290.00
             311.00,290.00 310.00,284.00 310.00,284.00
             310.00,284.00 307.00,279.00 307.00,279.00
             307.00,279.00 305.00,279.00 305.00,279.00
             304.77,275.97 304.53,275.67 302.00,274.00
             302.00,274.00 303.00,272.00 303.00,272.00
             303.00,272.00 301.00,268.00 301.00,268.00
             298.12,265.53 297.16,264.88 297.00,261.00
             297.00,261.00 294.00,260.00 294.00,260.00
             294.00,260.00 295.00,258.00 295.00,258.00
             295.00,258.00 293.00,258.00 293.00,258.00
             292.82,255.08 293.00,253.88 290.00,253.00
             289.65,249.49 287.84,246.11 285.00,244.00
             285.00,244.00 286.00,242.00 286.00,242.00
             286.00,242.00 284.00,242.00 284.00,242.00
             284.00,242.00 282.00,239.00 282.00,239.00
             282.00,239.00 283.00,236.00 283.00,236.00
             283.00,236.00 281.00,237.00 281.00,237.00
             281.00,237.00 282.00,235.00 282.00,235.00
             282.00,235.00 280.00,235.00 280.00,235.00
             280.00,235.00 280.00,231.00 280.00,231.00
             280.00,231.00 278.00,232.00 278.00,232.00
             278.00,232.00 278.00,228.00 278.00,228.00
             278.00,228.00 276.00,228.00 276.00,228.00
             275.80,224.68 275.84,224.75 273.00,223.00
             273.00,223.00 270.00,218.00 270.00,218.00
             270.00,218.00 275.00,247.00 275.00,247.00
             275.00,247.00 271.00,249.00 271.00,249.00
             271.00,249.00 271.00,247.00 271.00,247.00
             267.06,246.89 262.91,245.76 260.00,243.00
             253.48,243.04 245.58,239.06 239.58,236.67
             235.08,234.88 233.02,235.47 229.00,232.00
             229.00,232.00 224.00,232.00 224.00,232.00
             224.00,232.00 228.00,239.00 228.00,239.00
             228.00,239.00 234.00,242.00 234.00,242.00
             234.69,245.29 234.71,245.31 238.00,246.00
             238.79,250.42 242.50,252.18 245.49,255.26
             245.49,255.26 261.83,271.58 261.83,271.58
             266.07,275.63 267.12,278.27 273.00,280.00
             273.94,285.03 280.90,289.08 285.00,292.00
             285.00,292.00 284.00,284.00 284.00,284.00
             284.00,284.00 291.00,286.00 291.00,286.00
             291.76,288.90 292.09,288.66 295.00,289.00
             296.97,292.77 297.73,293.53 302.00,294.00
             302.00,294.00 306.00,297.00 306.00,297.00
             306.14,299.79 307.47,303.06 304.62,304.98
             302.28,306.55 292.25,306.00 289.00,306.00
             277.96,306.00 259.09,305.19 249.00,307.00
             249.00,307.00 250.00,312.00 250.00,312.00
             250.00,312.00 280.00,311.00 280.00,311.00
             280.00,311.00 293.00,310.00 293.00,310.00
             293.00,310.00 293.00,314.00 293.00,314.00
             290.02,315.78 289.73,315.58 289.00,319.00
             289.00,319.00 284.00,322.00 284.00,322.00
             284.00,322.00 285.00,324.00 285.00,324.00
             285.00,324.00 279.00,326.00 279.00,326.00
             279.00,326.00 280.00,324.00 280.00,324.00
             280.00,324.00 279.00,323.00 279.00,323.00
             276.32,322.81 273.71,321.88 271.00,322.23
             265.74,322.90 259.47,330.95 256.29,335.00
             252.92,339.30 251.17,339.81 248.35,343.00
             244.58,347.27 241.53,352.43 237.00,356.00
             237.00,356.00 234.00,364.00 234.00,364.00
             234.00,364.00 229.00,393.00 229.00,393.00
             229.00,393.00 227.00,393.00 227.00,393.00
             227.00,393.00 228.00,395.00 228.00,395.00
             228.00,395.00 226.00,395.00 226.00,395.00
             226.00,395.00 227.00,397.00 227.00,397.00
             227.00,397.00 226.00,399.00 226.00,399.00
             226.00,399.00 223.00,400.00 223.00,400.00
             223.00,400.00 224.00,402.00 224.00,402.00
             224.00,402.00 220.00,404.00 220.00,404.00
             220.00,404.00 221.00,406.00 221.00,406.00
             221.00,406.00 218.00,407.00 218.00,407.00
             218.00,407.00 213.00,413.00 213.00,413.00
             213.00,413.00 214.00,415.00 214.00,415.00
             210.59,417.07 210.36,417.24 209.00,421.00
             209.00,421.00 210.00,422.00 210.00,422.00
             210.00,422.00 214.00,422.00 214.00,422.00
             214.00,422.00 215.00,417.00 215.00,417.00
             218.59,415.23 219.22,414.98 220.00,411.00
             222.98,409.22 223.27,409.42 224.00,406.00
             224.00,406.00 226.00,403.00 226.00,403.00
             226.00,403.00 231.00,399.00 231.00,399.00
             231.00,399.00 232.00,397.00 232.00,397.00
             232.00,397.00 237.01,372.00 237.01,372.00
             237.01,372.00 240.00,359.00 240.00,359.00
             240.00,359.00 243.00,355.00 243.00,355.00
             243.00,355.00 246.00,355.00 246.00,355.00
             248.03,351.39 248.80,348.06 253.00,347.00
             253.00,347.00 259.40,338.00 259.40,338.00
             259.40,338.00 264.36,333.08 264.36,333.08
             264.36,333.08 268.65,327.71 268.65,327.71
             268.65,327.71 274.00,325.00 274.00,325.00
             274.00,325.00 276.00,326.00 276.00,326.00
             276.00,326.00 277.00,327.00 277.00,327.00
             277.00,327.00 278.00,329.00 278.00,329.00
             278.00,329.00 272.00,337.00 272.00,337.00
             272.00,337.00 267.00,343.00 267.00,343.00
             267.00,343.00 268.00,345.00 268.00,345.00
             268.00,345.00 265.00,349.00 265.00,349.00
             265.00,349.00 262.00,349.00 262.00,349.00
             262.00,349.00 261.00,354.00 261.00,354.00
             261.00,354.00 258.00,354.00 258.00,354.00
             258.00,354.00 258.00,361.00 258.00,361.00
             258.00,361.00 263.00,358.00 263.00,358.00
             263.00,358.00 262.00,356.00 262.00,356.00
             265.50,353.66 269.16,350.18 270.00,346.00
             272.98,344.22 273.27,344.42 274.00,341.00
             277.75,338.70 282.13,334.34 283.00,330.00
             283.00,330.00 291.00,323.00 291.00,323.00
             291.00,323.00 290.00,321.00 290.00,321.00
             292.98,319.22 293.27,319.42 294.00,316.00
             294.00,316.00 297.00,316.00 297.00,316.00
             297.00,316.00 300.00,310.12 300.00,310.12
             300.00,310.12 304.48,310.12 304.48,310.12
             308.84,310.87 305.16,317.03 303.65,318.87
             299.43,324.01 288.52,337.50 284.00,341.00
             284.00,341.00 278.00,348.00 278.00,348.00
             278.00,348.00 276.00,353.00 276.00,353.00
             276.00,353.00 280.00,355.00 280.00,355.00
             281.23,352.19 281.02,351.86 284.00,351.00
             284.00,351.00 286.00,345.00 286.00,345.00
             290.16,344.09 291.32,342.07 292.00,338.00
             295.78,337.11 296.38,335.69 297.00,332.00
             297.00,332.00 298.00,331.00 298.00,331.00
             301.51,330.20 301.61,329.48 302.00,326.00
             306.33,325.11 307.39,323.25 308.00,319.00
             308.00,319.00 309.00,318.00 309.00,318.00
             312.51,317.20 312.61,316.48 313.00,313.00
             313.00,313.00 314.00,312.00 314.00,312.00
             314.00,312.00 319.00,311.00 319.00,311.00
             320.91,320.69 318.39,315.93 317.00,323.00
             317.00,323.00 314.00,327.00 314.00,327.00
             311.02,328.78 310.73,328.58 310.00,332.00
             310.00,332.00 307.00,332.00 307.00,332.00
             307.00,332.00 300.00,341.00 300.00,341.00
             300.00,341.00 301.00,343.00 301.00,343.00
             301.00,343.00 292.00,351.00 292.00,351.00
             291.20,353.88 288.97,357.17 286.00,358.00
             286.00,358.00 286.00,363.00 286.00,363.00
             286.00,363.00 290.00,363.00 290.00,363.00
             290.00,363.00 292.00,361.00 292.00,361.00
             292.00,361.00 294.00,355.00 294.00,355.00
             294.00,355.00 308.00,341.00 308.00,341.00
             308.00,341.00 307.00,339.00 307.00,339.00
             307.00,339.00 313.00,335.00 313.00,335.00
             313.00,335.00 312.00,333.00 312.00,333.00
             312.00,333.00 316.00,328.00 316.00,328.00
             316.00,328.00 323.00,323.00 323.00,323.00
             324.83,325.46 326.09,326.01 325.00,329.00
             325.00,329.00 326.00,331.00 326.00,331.00
             326.00,331.00 322.00,333.00 322.00,333.00
             322.00,333.00 323.00,335.00 323.00,335.00
             323.00,335.00 311.16,348.60 311.16,348.60
             311.16,348.60 306.00,357.00 306.00,357.00
             306.00,357.00 303.00,361.00 303.00,361.00
             303.00,361.00 300.00,365.00 300.00,365.00
             300.00,365.00 296.00,367.00 296.00,367.00
             295.11,370.94 293.02,372.50 290.00,375.00
             290.00,375.00 288.00,381.00 288.00,381.00
             288.00,381.00 289.00,382.00 289.00,382.00
             291.94,380.89 292.26,381.09 293.00,378.00
             296.83,376.07 297.75,375.36 298.00,371.00
             298.00,371.00 301.00,371.00 301.00,371.00
             301.00,371.00 302.00,366.00 302.00,366.00
             305.51,365.20 305.61,364.48 306.00,361.00
             306.00,361.00 309.00,357.00 309.00,357.00
             309.00,357.00 312.00,353.00 312.00,353.00
             312.00,353.00 320.00,348.00 320.00,348.00
             320.00,348.00 321.00,355.00 321.00,355.00
             321.00,355.00 318.00,356.00 318.00,356.00
             318.00,356.00 319.00,358.00 319.00,358.00
             319.00,358.00 316.00,359.00 316.00,359.00
             316.00,359.00 314.00,365.00 314.00,365.00
             314.00,365.00 308.00,370.00 308.00,370.00
             308.00,370.00 309.00,372.00 309.00,372.00
             309.00,372.00 306.00,376.00 306.00,376.00
             303.10,376.76 303.34,377.09 303.00,380.00
             303.00,380.00 300.00,381.00 300.00,381.00
             300.00,381.00 298.00,383.00 298.00,383.00
             298.00,383.00 298.00,387.00 298.00,387.00
             298.00,387.00 295.00,391.00 295.00,391.00
             295.00,391.00 281.00,402.00 281.00,402.00
             280.10,405.05 279.05,405.52 276.00,406.00
             276.00,406.00 250.87,428.58 250.87,428.58
             246.94,432.52 242.70,435.08 244.00,441.00
             244.00,441.00 247.00,441.00 247.00,441.00
             247.00,441.00 261.83,424.67 261.83,424.67
             265.07,421.76 267.88,421.85 269.00,417.00
             272.95,416.21 273.07,415.44 275.00,412.00
             279.10,411.57 282.00,410.23 283.00,406.00
             283.00,406.00 288.00,405.00 288.00,405.00
             288.00,405.00 297.00,392.00 297.00,392.00
             301.65,390.90 304.55,385.51 305.00,381.00
             305.00,381.00 308.00,377.00 308.00,377.00
             310.29,376.30 309.86,376.38 310.00,374.00
             310.00,374.00 313.00,374.00 313.00,374.00
             313.00,374.00 319.00,362.00 319.00,362.00
             321.29,361.30 320.86,361.38 321.00,359.00
             321.00,359.00 324.00,358.00 324.00,358.00
             324.28,355.24 325.30,352.86 324.70,350.00
             323.99,346.65 321.89,345.07 322.27,342.80
             322.82,339.60 327.37,337.19 330.00,336.00
             330.00,336.00 330.00,341.00 330.00,341.00
             330.00,341.00 332.00,341.00 332.00,341.00
             332.00,341.00 337.00,358.00 337.00,358.00
             337.00,358.00 339.00,358.00 339.00,358.00
             339.00,358.00 343.34,370.83 343.34,370.83
             343.34,370.83 345.18,376.53 345.18,376.53
             345.18,376.53 347.00,378.00 347.00,378.00
             347.00,378.00 346.00,381.00 346.00,381.00
             346.00,381.00 348.00,380.00 348.00,380.00
             347.75,383.07 347.47,383.17 350.00,385.00
             350.00,385.00 349.00,388.00 349.00,388.00
             349.00,388.00 351.00,388.00 351.00,388.00
             351.00,388.00 350.00,390.00 350.00,390.00
             350.00,390.00 354.00,394.00 354.00,394.00
             354.00,394.00 355.17,376.27 355.17,376.27
             355.17,376.27 359.00,373.00 359.00,373.00
             359.00,373.00 358.00,375.00 358.00,375.00
             358.00,375.00 361.00,374.00 361.00,374.00
             361.70,376.29 361.62,375.86 364.00,376.00
             364.00,376.00 364.00,378.00 364.00,378.00
             364.00,378.00 371.00,380.00 371.00,380.00
             371.00,380.00 373.00,381.00 373.00,381.00
             373.88,384.00 375.08,383.82 378.00,384.00
             378.00,384.00 380.00,385.00 380.00,385.00
             380.70,387.29 380.62,386.86 383.00,387.00
             383.00,387.00 385.00,388.00 385.00,388.00
             387.31,391.91 389.55,392.77 394.00,393.00
             394.88,396.43 396.83,396.34 400.00,397.00
             398.62,392.61 395.90,389.39 392.00,387.00
             392.00,387.00 389.00,383.00 389.00,383.00
             389.00,383.00 386.00,379.00 386.00,379.00
             385.39,375.43 379.47,366.93 376.00,366.00
             376.00,366.00 373.00,362.00 373.00,362.00
             373.00,362.00 372.00,357.00 372.00,357.00
             372.00,357.00 370.00,358.00 370.00,358.00
             370.00,358.00 369.00,357.00 369.00,357.00
             368.28,353.05 366.27,351.17 363.00,349.00
             363.00,349.00 364.00,347.00 364.00,347.00
             364.00,347.00 359.00,344.00 359.00,344.00
             359.00,344.00 360.00,342.00 360.00,342.00
             360.00,342.00 356.00,340.00 356.00,340.00
             355.20,335.58 352.46,333.62 349.00,331.00
             349.00,331.00 349.00,338.00 349.00,338.00
             349.00,338.00 345.00,337.00 345.00,337.00
             343.73,333.74 343.58,331.90 340.00,331.00
             339.21,327.05 338.44,326.93 335.00,325.00
             334.21,321.05 333.44,320.93 330.00,319.00
             329.66,316.09 329.90,315.76 327.00,315.00
             327.00,315.00 327.00,309.00 327.00,309.00
             327.00,309.00 350.00,307.00 350.00,307.00
             350.00,307.00 373.00,306.00 373.00,306.00
             373.00,306.00 390.00,306.00 390.00,306.00
             390.00,306.00 389.00,301.00 389.00,301.00
             376.03,302.71 350.87,302.25 337.00,302.00
             329.15,301.85 328.41,299.32 335.00,295.00
             336.06,290.99 345.39,284.58 349.00,282.00
             349.00,282.00 348.00,280.00 348.00,280.00
             348.00,280.00 349.00,279.00 349.00,279.00
             349.00,279.00 360.00,272.00 360.00,272.00
             361.04,268.31 363.29,265.98 367.00,265.00
             367.00,265.00 369.00,261.00 369.00,261.00
             369.00,261.00 354.00,260.00 354.00,260.00
             354.00,260.00 354.00,231.00 354.00,231.00
             354.00,231.00 355.00,200.00 355.00,200.00 Z
           M 349.00,222.00
           C 351.23,227.61 349.05,245.60 349.00,253.00
             348.94,260.67 347.43,264.99 357.00,264.00
             354.24,271.96 350.16,272.61 345.12,277.40
             345.12,277.40 338.99,283.96 338.99,283.96
             338.99,283.96 327.00,294.00 327.00,294.00
             327.00,294.00 326.00,290.00 326.00,290.00
             326.00,290.00 331.00,282.00 331.00,282.00
             331.00,282.00 330.00,279.00 330.00,279.00
             332.48,276.31 332.86,274.61 333.00,271.00
             333.00,271.00 335.00,271.00 335.00,271.00
             335.00,271.00 337.00,260.00 337.00,260.00
             337.00,260.00 339.00,260.00 339.00,260.00
             339.00,260.00 338.00,253.00 338.00,253.00
             338.00,253.00 335.00,254.00 335.00,254.00
             335.17,250.30 334.99,247.49 338.00,245.00
             338.00,245.00 337.00,243.00 337.00,243.00
             337.00,243.00 339.00,243.00 339.00,243.00
             339.00,243.00 338.00,241.00 338.00,241.00
             338.00,241.00 340.00,241.00 340.00,241.00
             340.00,241.00 339.00,239.00 339.00,239.00
             339.00,239.00 341.00,239.00 341.00,239.00
             341.00,239.00 340.00,237.00 340.00,237.00
             340.00,237.00 342.00,237.00 342.00,237.00
             342.00,237.00 341.00,235.00 341.00,235.00
             341.00,235.00 343.00,235.00 343.00,235.00
             343.27,229.51 345.22,225.90 349.00,222.00 Z
           M 198.00,242.00
           C 198.00,242.00 197.00,242.00 197.00,242.00
             197.00,242.00 198.00,243.00 198.00,243.00
             198.00,243.00 198.00,242.00 198.00,242.00 Z
           M 244.00,243.00
           C 244.00,243.00 248.00,246.00 248.00,246.00
             248.00,246.00 251.00,245.00 251.00,245.00
             251.00,245.00 260.00,250.00 260.00,250.00
             260.00,250.00 263.00,249.00 263.00,249.00
             263.00,249.00 266.00,250.00 266.00,250.00
             266.00,250.00 278.00,256.00 278.00,256.00
             280.25,251.01 277.59,248.96 282.00,246.00
             282.00,246.00 283.00,248.00 283.00,248.00
             283.00,248.00 282.00,249.00 282.00,249.00
             282.00,249.00 283.00,251.00 283.00,251.00
             285.84,252.75 285.80,252.68 286.00,256.00
             286.00,256.00 290.00,259.00 290.00,259.00
             290.00,259.00 293.00,268.00 293.00,268.00
             293.00,268.00 295.00,268.00 295.00,268.00
             295.00,268.00 294.00,270.00 294.00,270.00
             294.00,270.00 296.00,270.00 296.00,270.00
             296.00,270.00 298.00,273.00 298.00,273.00
             298.11,275.85 298.15,277.07 301.00,278.00
             301.24,280.70 301.31,282.07 304.00,283.00
             304.00,283.00 303.00,285.00 303.00,285.00
             303.00,285.00 305.00,285.00 305.00,285.00
             305.00,285.00 307.00,290.00 307.00,290.00
             307.00,290.00 300.00,288.00 300.00,288.00
             300.00,288.00 298.00,284.00 298.00,284.00
             298.00,284.00 296.00,285.00 296.00,285.00
             296.00,285.00 295.00,282.00 295.00,282.00
             290.86,281.25 285.01,276.70 283.00,273.00
             283.00,273.00 278.00,271.00 278.00,271.00
             277.44,278.06 274.86,276.09 270.85,272.40
             266.86,268.73 261.60,263.69 259.00,259.00
             259.00,259.00 257.00,260.00 257.00,260.00
             257.00,260.00 255.00,255.00 255.00,255.00
             249.34,253.93 245.23,248.52 242.00,244.00
             242.00,244.00 244.00,243.00 244.00,243.00 Z
           M 245.00,245.00
           C 245.00,245.00 244.00,245.00 244.00,245.00
             244.00,245.00 245.00,246.00 245.00,246.00
             245.00,246.00 245.00,245.00 245.00,245.00 Z
           M 247.00,247.00
           C 247.00,247.00 246.00,247.00 246.00,247.00
             246.00,247.00 247.00,248.00 247.00,248.00
             247.00,248.00 247.00,247.00 247.00,247.00 Z
           M 400.00,247.00
           C 400.00,247.00 399.00,247.00 399.00,247.00
             399.00,247.00 400.00,248.00 400.00,248.00
             400.00,248.00 400.00,247.00 400.00,247.00 Z
           M 248.00,248.00
           C 248.00,248.00 247.00,248.00 247.00,248.00
             247.00,248.00 248.00,249.00 248.00,249.00
             248.00,249.00 248.00,248.00 248.00,248.00 Z
           M 249.00,249.00
           C 249.00,249.00 248.00,249.00 248.00,249.00
             248.00,249.00 249.00,250.00 249.00,250.00
             249.00,250.00 249.00,249.00 249.00,249.00 Z
           M 251.00,251.00
           C 251.00,251.00 250.00,251.00 250.00,251.00
             250.00,251.00 251.00,252.00 251.00,252.00
             251.00,252.00 251.00,251.00 251.00,251.00 Z
           M 252.00,252.00
           C 252.00,252.00 251.00,252.00 251.00,252.00
             251.00,252.00 252.00,253.00 252.00,253.00
             252.00,253.00 252.00,252.00 252.00,252.00 Z
           M 253.00,253.00
           C 253.00,253.00 252.00,253.00 252.00,253.00
             252.00,253.00 253.00,254.00 253.00,254.00
             253.00,254.00 253.00,253.00 253.00,253.00 Z
           M 365.00,266.00
           C 365.00,266.00 364.00,266.00 364.00,266.00
             364.00,266.00 365.00,267.00 365.00,267.00
             365.00,267.00 365.00,266.00 365.00,266.00 Z
           M 364.00,267.00
           C 364.00,267.00 363.00,267.00 363.00,267.00
             363.00,267.00 364.00,268.00 364.00,268.00
             364.00,268.00 364.00,267.00 364.00,267.00 Z
           M 363.00,268.00
           C 363.00,268.00 362.00,268.00 362.00,268.00
             362.00,268.00 363.00,269.00 363.00,269.00
             363.00,269.00 363.00,268.00 363.00,268.00 Z
           M 361.00,270.00
           C 361.00,270.00 360.00,270.00 360.00,270.00
             360.00,270.00 361.00,271.00 361.00,271.00
             361.00,271.00 361.00,270.00 361.00,270.00 Z
           M 350.00,272.00
           C 350.00,272.00 349.00,272.00 349.00,272.00
             349.00,272.00 350.00,273.00 350.00,273.00
             350.00,273.00 350.00,272.00 350.00,272.00 Z
           M 349.00,273.00
           C 349.00,273.00 348.00,273.00 348.00,273.00
             348.00,273.00 349.00,274.00 349.00,274.00
             349.00,274.00 349.00,273.00 349.00,273.00 Z
           M 348.00,274.00
           C 348.00,274.00 347.00,274.00 347.00,274.00
             347.00,274.00 348.00,275.00 348.00,275.00
             348.00,275.00 348.00,274.00 348.00,274.00 Z
           M 286.00,275.00
           C 286.00,275.00 285.00,275.00 285.00,275.00
             285.00,275.00 286.00,276.00 286.00,276.00
             286.00,276.00 286.00,275.00 286.00,275.00 Z
           M 350.00,280.00
           C 350.00,280.00 349.00,280.00 349.00,280.00
             349.00,280.00 350.00,281.00 350.00,281.00
             350.00,281.00 350.00,280.00 350.00,280.00 Z
           M 297.00,283.00
           C 297.00,283.00 296.00,283.00 296.00,283.00
             296.00,283.00 297.00,284.00 297.00,284.00
             297.00,284.00 297.00,283.00 297.00,283.00 Z
           M 337.00,284.00
           C 337.00,284.00 336.00,284.00 336.00,284.00
             336.00,284.00 337.00,285.00 337.00,285.00
             337.00,285.00 337.00,284.00 337.00,284.00 Z
           M 336.00,285.00
           C 336.00,285.00 335.00,285.00 335.00,285.00
             335.00,285.00 336.00,286.00 336.00,286.00
             336.00,286.00 336.00,285.00 336.00,285.00 Z
           M 278.00,286.00
           C 278.00,286.00 277.00,286.00 277.00,286.00
             277.00,286.00 278.00,287.00 278.00,287.00
             278.00,287.00 278.00,286.00 278.00,286.00 Z
           M 279.00,287.00
           C 279.00,287.00 278.00,287.00 278.00,287.00
             278.00,287.00 279.00,288.00 279.00,288.00
             279.00,288.00 279.00,287.00 279.00,287.00 Z
           M 282.00,290.00
           C 282.00,290.00 281.00,290.00 281.00,290.00
             281.00,290.00 282.00,291.00 282.00,291.00
             282.00,291.00 282.00,290.00 282.00,290.00 Z
           M 339.00,290.00
           C 339.00,290.00 338.00,290.00 338.00,290.00
             338.00,290.00 339.00,291.00 339.00,291.00
             339.00,291.00 339.00,290.00 339.00,290.00 Z
           M 283.00,291.00
           C 283.00,291.00 282.00,291.00 282.00,291.00
             282.00,291.00 283.00,292.00 283.00,292.00
             283.00,292.00 283.00,291.00 283.00,291.00 Z
           M 304.00,290.00
           C 304.00,290.00 305.00,290.00 305.00,290.00
             305.00,290.00 304.00,291.00 304.00,291.00
             304.00,291.00 304.00,290.00 304.00,290.00 Z
           M 338.00,291.00
           C 338.00,291.00 337.00,291.00 337.00,291.00
             337.00,291.00 338.00,292.00 338.00,292.00
             338.00,292.00 338.00,291.00 338.00,291.00 Z
           M 337.00,292.00
           C 337.00,292.00 336.00,292.00 336.00,292.00
             336.00,292.00 337.00,293.00 337.00,293.00
             337.00,293.00 337.00,292.00 337.00,292.00 Z
           M 336.00,293.00
           C 336.00,293.00 335.00,293.00 335.00,293.00
             335.00,293.00 336.00,294.00 336.00,294.00
             336.00,294.00 336.00,293.00 336.00,293.00 Z
           M 302.00,295.00
           C 302.00,295.00 301.00,295.00 301.00,295.00
             301.00,295.00 302.00,296.00 302.00,296.00
             302.00,296.00 302.00,295.00 302.00,295.00 Z
           M 429.00,298.00
           C 429.00,298.00 428.00,298.00 428.00,298.00
             428.00,298.00 429.00,299.00 429.00,299.00
             429.00,299.00 429.00,298.00 429.00,298.00 Z
           M 391.00,304.00
           C 391.00,304.00 390.00,304.00 390.00,304.00
             390.00,304.00 391.00,305.00 391.00,305.00
             391.00,305.00 391.00,304.00 391.00,304.00 Z
           M 242.00,309.00
           C 242.00,309.00 215.00,308.00 215.00,308.00
             215.00,308.00 215.00,312.00 215.00,312.00
             215.00,312.00 242.00,311.00 242.00,311.00
             242.00,311.00 242.00,309.00 242.00,309.00 Z
           M 306.00,310.00
           C 306.00,310.00 305.00,310.00 305.00,310.00
             305.00,310.00 306.00,311.00 306.00,311.00
             306.00,311.00 306.00,310.00 306.00,310.00 Z
           M 307.00,311.00
           C 307.00,311.00 306.00,311.00 306.00,311.00
             306.00,311.00 307.00,312.00 307.00,312.00
             307.00,312.00 307.00,311.00 307.00,311.00 Z
           M 315.00,313.00
           C 315.00,313.00 314.00,313.00 314.00,313.00
             314.00,313.00 315.00,314.00 315.00,314.00
             315.00,314.00 315.00,313.00 315.00,313.00 Z
           M 296.00,316.00
           C 296.00,316.00 295.00,316.00 295.00,316.00
             295.00,316.00 296.00,317.00 296.00,317.00
             296.00,317.00 296.00,316.00 296.00,316.00 Z
           M 305.00,317.00
           C 305.00,317.00 304.00,317.00 304.00,317.00
             304.00,317.00 305.00,318.00 305.00,318.00
             305.00,318.00 305.00,317.00 305.00,317.00 Z
           M 320.00,317.00
           C 320.00,317.00 319.00,317.00 319.00,317.00
             319.00,317.00 320.00,318.00 320.00,318.00
             320.00,318.00 320.00,317.00 320.00,317.00 Z
           M 310.00,319.00
           C 310.00,319.00 309.00,319.00 309.00,319.00
             309.00,319.00 310.00,320.00 310.00,320.00
             310.00,320.00 310.00,319.00 310.00,319.00 Z
           M 151.00,322.00
           C 151.00,322.00 150.00,322.00 150.00,322.00
             150.00,322.00 151.00,323.00 151.00,323.00
             151.00,323.00 151.00,322.00 151.00,322.00 Z
           M 300.00,323.00
           C 300.00,323.00 299.00,323.00 299.00,323.00
             299.00,323.00 300.00,324.00 300.00,324.00
             300.00,324.00 300.00,323.00 300.00,323.00 Z
           M 299.00,324.00
           C 299.00,324.00 298.00,324.00 298.00,324.00
             298.00,324.00 299.00,325.00 299.00,325.00
             299.00,325.00 299.00,324.00 299.00,324.00 Z
           M 326.00,326.00
           C 326.00,326.00 325.00,326.00 325.00,326.00
             325.00,326.00 326.00,327.00 326.00,327.00
             326.00,327.00 326.00,326.00 326.00,326.00 Z
           M 270.00,327.00
           C 270.00,327.00 269.00,327.00 269.00,327.00
             269.00,327.00 270.00,328.00 270.00,328.00
             270.00,328.00 270.00,327.00 270.00,327.00 Z
           M 276.00,327.00
           C 276.00,327.00 275.00,327.00 275.00,327.00
             275.00,327.00 276.00,328.00 276.00,328.00
             276.00,328.00 276.00,327.00 276.00,327.00 Z
           M 269.00,328.00
           C 269.00,328.00 268.00,328.00 268.00,328.00
             268.00,328.00 269.00,329.00 269.00,329.00
             269.00,329.00 269.00,328.00 269.00,328.00 Z
           M 330.00,327.00
           C 334.43,328.83 338.14,332.16 339.00,337.00
             339.00,337.00 348.00,345.00 348.00,345.00
             348.00,345.00 352.00,350.00 352.00,350.00
             352.05,345.84 351.50,344.62 355.00,342.00
             355.32,344.68 355.37,345.22 358.00,346.00
             358.32,348.68 358.37,349.22 361.00,350.00
             361.59,352.95 362.05,354.11 365.00,355.00
             365.00,355.00 369.00,360.00 369.00,360.00
             369.00,360.00 372.00,364.00 372.00,364.00
             372.59,366.95 373.05,368.11 376.00,369.00
             376.00,369.00 379.00,373.00 379.00,373.00
             379.00,373.00 378.00,375.00 378.00,375.00
             382.10,377.32 382.14,377.80 384.00,382.00
             384.00,382.00 374.20,377.51 374.20,377.51
             374.20,377.51 368.00,373.00 368.00,373.00
             368.00,373.00 366.00,374.00 366.00,374.00
             366.00,374.00 366.00,372.00 366.00,372.00
             366.00,372.00 351.00,365.00 351.00,365.00
             351.00,365.00 351.00,374.00 351.00,374.00
             346.46,372.42 345.92,369.48 346.00,365.00
             346.00,365.00 344.00,365.00 344.00,365.00
             344.00,365.00 344.00,360.00 344.00,360.00
             341.65,358.10 341.91,357.98 342.00,355.00
             342.00,355.00 334.00,340.00 334.00,340.00
             334.00,340.00 333.00,338.00 333.00,338.00
             333.00,338.00 334.00,335.00 334.00,335.00
             334.00,335.00 333.00,333.00 333.00,333.00
             333.00,333.00 331.00,333.00 331.00,333.00
             331.00,333.00 330.00,327.00 330.00,327.00 Z
           M 268.00,329.00
           C 268.00,329.00 267.00,329.00 267.00,329.00
             267.00,329.00 268.00,330.00 268.00,330.00
             268.00,330.00 268.00,329.00 268.00,329.00 Z
           M 267.00,330.00
           C 267.00,330.00 266.00,330.00 266.00,330.00
             266.00,330.00 267.00,331.00 267.00,331.00
             267.00,331.00 267.00,330.00 267.00,330.00 Z
           M 325.00,330.00
           C 325.00,330.00 324.00,330.00 324.00,330.00
             324.00,330.00 325.00,331.00 325.00,331.00
             325.00,331.00 325.00,330.00 325.00,330.00 Z
           M 309.00,331.00
           C 309.00,331.00 308.00,331.00 308.00,331.00
             308.00,331.00 309.00,332.00 309.00,332.00
             309.00,332.00 309.00,331.00 309.00,331.00 Z
           M 299.00,332.00
           C 299.00,332.00 298.00,332.00 298.00,332.00
             298.00,332.00 299.00,333.00 299.00,333.00
             299.00,333.00 299.00,332.00 299.00,332.00 Z
           M 276.00,333.00
           C 276.00,333.00 275.00,333.00 275.00,333.00
             275.00,333.00 276.00,334.00 276.00,334.00
             276.00,334.00 276.00,333.00 276.00,333.00 Z
           M 314.00,333.00
           C 314.00,333.00 313.00,333.00 313.00,333.00
             313.00,333.00 314.00,334.00 314.00,334.00
             314.00,334.00 314.00,333.00 314.00,333.00 Z
           M 339.00,335.00
           C 339.00,335.00 338.00,335.00 338.00,335.00
             338.00,335.00 339.00,336.00 339.00,336.00
             339.00,336.00 339.00,335.00 339.00,335.00 Z
           M 289.00,336.00
           C 289.00,336.00 288.00,336.00 288.00,336.00
             288.00,336.00 289.00,337.00 289.00,337.00
             289.00,337.00 289.00,336.00 289.00,336.00 Z
           M 254.00,337.00
           C 254.00,337.00 253.00,337.00 253.00,337.00
             253.00,337.00 254.00,338.00 254.00,338.00
             254.00,338.00 254.00,337.00 254.00,337.00 Z
           M 304.00,337.00
           C 304.00,337.00 303.00,337.00 303.00,337.00
             303.00,337.00 304.00,338.00 304.00,338.00
             304.00,338.00 304.00,337.00 304.00,337.00 Z
           M 253.00,338.00
           C 253.00,338.00 252.00,338.00 252.00,338.00
             252.00,338.00 253.00,339.00 253.00,339.00
             253.00,339.00 253.00,338.00 253.00,338.00 Z
           M 452.00,338.00
           C 452.00,338.00 451.00,338.00 451.00,338.00
             451.00,338.00 452.00,339.00 452.00,339.00
             452.00,339.00 452.00,338.00 452.00,338.00 Z
           M 259.00,339.00
           C 259.00,339.00 258.00,339.00 258.00,339.00
             258.00,339.00 259.00,340.00 259.00,340.00
             259.00,340.00 259.00,339.00 259.00,339.00 Z
           M 342.00,339.00
           C 342.00,339.00 341.00,339.00 341.00,339.00
             341.00,339.00 342.00,340.00 342.00,340.00
             342.00,340.00 342.00,339.00 342.00,339.00 Z
           M 358.00,339.00
           C 358.00,339.00 357.00,339.00 357.00,339.00
             357.00,339.00 358.00,340.00 358.00,340.00
             358.00,340.00 358.00,339.00 358.00,339.00 Z
           M 252.00,347.00
           C 252.00,347.00 251.00,347.00 251.00,347.00
             251.00,347.00 252.00,348.00 252.00,348.00
             252.00,348.00 252.00,347.00 252.00,347.00 Z
           M 251.00,348.00
           C 251.00,348.00 250.00,348.00 250.00,348.00
             250.00,348.00 251.00,349.00 251.00,349.00
             251.00,349.00 251.00,348.00 251.00,348.00 Z
           M 264.00,348.00
           C 264.00,348.00 263.00,348.00 263.00,348.00
             263.00,348.00 264.00,349.00 264.00,349.00
             264.00,349.00 264.00,348.00 264.00,348.00 Z
           M 365.00,348.00
           C 365.00,348.00 364.00,348.00 364.00,348.00
             364.00,348.00 365.00,349.00 365.00,349.00
             365.00,349.00 365.00,348.00 365.00,348.00 Z
           M 250.00,349.00
           C 250.00,349.00 249.00,349.00 249.00,349.00
             249.00,349.00 250.00,350.00 250.00,350.00
             250.00,350.00 250.00,349.00 250.00,349.00 Z
           M 268.00,351.00
           C 268.00,351.00 267.00,351.00 267.00,351.00
             267.00,351.00 268.00,352.00 268.00,352.00
             268.00,352.00 268.00,351.00 268.00,351.00 Z
           M 283.00,351.00
           C 283.00,351.00 282.00,351.00 282.00,351.00
             282.00,351.00 283.00,352.00 283.00,352.00
             283.00,352.00 283.00,351.00 283.00,351.00 Z
           M 368.00,352.00
           C 368.00,352.00 367.00,352.00 367.00,352.00
             367.00,352.00 368.00,353.00 368.00,353.00
             368.00,353.00 368.00,352.00 368.00,352.00 Z
           M 461.00,354.00
           C 461.00,354.00 460.00,354.00 460.00,354.00
             460.00,354.00 461.00,355.00 461.00,355.00
             461.00,355.00 461.00,354.00 461.00,354.00 Z
           M 245.00,355.00
           C 245.00,355.00 244.00,355.00 244.00,355.00
             244.00,355.00 245.00,356.00 245.00,356.00
             245.00,356.00 245.00,355.00 245.00,355.00 Z
           M 296.00,355.00
           C 296.00,355.00 295.00,355.00 295.00,355.00
             295.00,355.00 296.00,356.00 296.00,356.00
             296.00,356.00 296.00,355.00 296.00,355.00 Z
           M 371.00,356.00
           C 371.00,356.00 370.00,356.00 370.00,356.00
             370.00,356.00 371.00,357.00 371.00,357.00
             371.00,357.00 371.00,356.00 371.00,356.00 Z
           M 318.00,357.00
           C 318.00,357.00 317.00,357.00 317.00,357.00
             317.00,357.00 318.00,358.00 318.00,358.00
             318.00,358.00 318.00,357.00 318.00,357.00 Z
           M 323.00,359.00
           C 323.00,359.00 322.00,359.00 322.00,359.00
             322.00,359.00 323.00,360.00 323.00,360.00
             323.00,360.00 323.00,359.00 323.00,359.00 Z
           M 316.00,360.00
           C 316.00,360.00 315.00,360.00 315.00,360.00
             315.00,360.00 316.00,361.00 316.00,361.00
             316.00,361.00 316.00,360.00 316.00,360.00 Z
           M 299.00,364.00
           C 299.00,364.00 298.00,364.00 298.00,364.00
             298.00,364.00 299.00,365.00 299.00,365.00
             299.00,365.00 299.00,364.00 299.00,364.00 Z
           M 315.00,370.00
           C 315.00,370.00 314.00,370.00 314.00,370.00
             314.00,370.00 315.00,371.00 315.00,371.00
             315.00,371.00 315.00,370.00 315.00,370.00 Z
           M 300.00,371.00
           C 300.00,371.00 299.00,371.00 299.00,371.00
             299.00,371.00 300.00,372.00 300.00,372.00
             300.00,372.00 300.00,371.00 300.00,371.00 Z
           M 293.00,372.00
           C 293.00,372.00 292.00,372.00 292.00,372.00
             292.00,372.00 293.00,373.00 293.00,373.00
             293.00,373.00 293.00,372.00 293.00,372.00 Z
           M 378.00,373.00
           C 378.00,373.00 377.00,373.00 377.00,373.00
             377.00,373.00 378.00,374.00 378.00,374.00
             378.00,374.00 378.00,373.00 378.00,373.00 Z
           M 312.00,374.00
           C 312.00,374.00 311.00,374.00 311.00,374.00
             311.00,374.00 312.00,375.00 312.00,375.00
             312.00,375.00 312.00,374.00 312.00,374.00 Z
           M 290.00,376.00
           C 290.00,376.00 289.00,376.00 289.00,376.00
             289.00,376.00 290.00,377.00 290.00,377.00
             290.00,377.00 290.00,376.00 290.00,376.00 Z
           M 349.00,376.00
           C 349.00,376.00 350.00,376.00 350.00,376.00
             350.00,376.00 349.00,377.00 349.00,377.00
             349.00,377.00 349.00,376.00 349.00,376.00 Z
           M 118.00,378.00
           C 118.00,378.00 117.00,378.00 117.00,378.00
             117.00,378.00 118.00,379.00 118.00,379.00
             118.00,379.00 118.00,378.00 118.00,378.00 Z
           M 366.00,378.00
           C 366.00,378.00 365.00,378.00 365.00,378.00
             365.00,378.00 366.00,379.00 366.00,379.00
             366.00,379.00 366.00,378.00 366.00,378.00 Z
           M 382.00,378.00
           C 382.00,378.00 381.00,378.00 381.00,378.00
             381.00,378.00 382.00,379.00 382.00,379.00
             382.00,379.00 382.00,378.00 382.00,378.00 Z
           M 350.00,378.00
           C 350.00,378.00 351.00,378.00 351.00,378.00
             351.00,378.00 350.00,379.00 350.00,379.00
             350.00,379.00 350.00,378.00 350.00,378.00 Z
           M 307.00,381.00
           C 307.00,381.00 306.00,381.00 306.00,381.00
             306.00,381.00 307.00,382.00 307.00,382.00
             307.00,382.00 307.00,381.00 307.00,381.00 Z
           M 300.00,382.00
           C 300.00,382.00 299.00,382.00 299.00,382.00
             299.00,382.00 300.00,383.00 300.00,383.00
             300.00,383.00 300.00,382.00 300.00,382.00 Z
           M 297.00,386.00
           C 297.00,386.00 296.00,386.00 296.00,386.00
             296.00,386.00 297.00,387.00 297.00,387.00
             297.00,387.00 297.00,386.00 297.00,386.00 Z
           M 394.00,386.00
           C 394.00,386.00 393.00,386.00 393.00,386.00
             393.00,386.00 394.00,387.00 394.00,387.00
             394.00,387.00 394.00,386.00 394.00,386.00 Z
           M 398.00,391.00
           C 398.00,391.00 397.00,391.00 397.00,391.00
             397.00,391.00 398.00,392.00 398.00,392.00
             398.00,392.00 398.00,391.00 398.00,391.00 Z
           M 484.00,394.00
           C 484.00,394.00 483.00,394.00 483.00,394.00
             483.00,394.00 484.00,395.00 484.00,395.00
             484.00,395.00 484.00,394.00 484.00,394.00 Z
           M 290.00,395.00
           C 290.00,395.00 289.00,395.00 289.00,395.00
             289.00,395.00 290.00,396.00 290.00,396.00
             290.00,396.00 290.00,395.00 290.00,395.00 Z
           M 289.00,396.00
           C 289.00,396.00 288.00,396.00 288.00,396.00
             288.00,396.00 289.00,397.00 289.00,397.00
             289.00,397.00 289.00,396.00 289.00,396.00 Z
           M 401.00,397.00
           C 401.00,397.00 400.00,397.00 400.00,397.00
             400.00,397.00 401.00,398.00 401.00,398.00
             401.00,398.00 401.00,397.00 401.00,397.00 Z
           M 294.00,398.00
           C 294.00,398.00 293.00,398.00 293.00,398.00
             293.00,398.00 294.00,399.00 294.00,399.00
             294.00,399.00 294.00,398.00 294.00,398.00 Z
           M 293.00,399.00
           C 293.00,399.00 292.00,399.00 292.00,399.00
             292.00,399.00 293.00,400.00 293.00,400.00
             293.00,400.00 293.00,399.00 293.00,399.00 Z
           M 292.00,400.00
           C 292.00,400.00 291.00,400.00 291.00,400.00
             291.00,400.00 292.00,401.00 292.00,401.00
             292.00,401.00 292.00,400.00 292.00,400.00 Z
           M 223.00,401.00
           C 223.00,401.00 222.00,401.00 222.00,401.00
             222.00,401.00 223.00,402.00 223.00,402.00
             223.00,402.00 223.00,401.00 223.00,401.00 Z
           M 291.00,401.00
           C 291.00,401.00 290.00,401.00 290.00,401.00
             290.00,401.00 291.00,402.00 291.00,402.00
             291.00,402.00 291.00,401.00 291.00,401.00 Z
           M 290.00,402.00
           C 290.00,402.00 289.00,402.00 289.00,402.00
             289.00,402.00 290.00,403.00 290.00,403.00
             290.00,403.00 290.00,402.00 290.00,402.00 Z
           M 281.00,403.00
           C 281.00,403.00 280.00,403.00 280.00,403.00
             280.00,403.00 281.00,404.00 281.00,404.00
             281.00,404.00 281.00,403.00 281.00,403.00 Z
           M 289.00,403.00
           C 289.00,403.00 288.00,403.00 288.00,403.00
             288.00,403.00 289.00,404.00 289.00,404.00
             289.00,404.00 289.00,403.00 289.00,403.00 Z
           M 278.00,405.00
           C 278.00,405.00 277.00,405.00 277.00,405.00
             277.00,405.00 278.00,406.00 278.00,406.00
             278.00,406.00 278.00,405.00 278.00,405.00 Z
           M 218.00,408.00
           C 218.00,408.00 217.00,408.00 217.00,408.00
             217.00,408.00 218.00,409.00 218.00,409.00
             218.00,409.00 218.00,408.00 218.00,408.00 Z
           M 217.00,409.00
           C 217.00,409.00 216.00,409.00 216.00,409.00
             216.00,409.00 217.00,410.00 217.00,410.00
             217.00,410.00 217.00,409.00 217.00,409.00 Z
           M 222.00,411.00
           C 222.00,411.00 221.00,411.00 221.00,411.00
             221.00,411.00 222.00,412.00 222.00,412.00
             222.00,412.00 222.00,411.00 222.00,411.00 Z
           M 270.00,411.00
           C 270.00,411.00 269.00,411.00 269.00,411.00
             269.00,411.00 270.00,412.00 270.00,412.00
             270.00,412.00 270.00,411.00 270.00,411.00 Z
           M 269.00,412.00
           C 269.00,412.00 268.00,412.00 268.00,412.00
             268.00,412.00 269.00,413.00 269.00,413.00
             269.00,413.00 269.00,412.00 269.00,412.00 Z
           M 268.00,413.00
           C 268.00,413.00 267.00,413.00 267.00,413.00
             267.00,413.00 268.00,414.00 268.00,414.00
             268.00,414.00 268.00,413.00 268.00,413.00 Z
           M 276.00,413.00
           C 276.00,413.00 275.00,413.00 275.00,413.00
             275.00,413.00 276.00,414.00 276.00,414.00
             276.00,414.00 276.00,413.00 276.00,413.00 Z
           M 262.00,418.00
           C 262.00,418.00 261.00,418.00 261.00,418.00
             261.00,418.00 262.00,419.00 262.00,419.00
             262.00,419.00 262.00,418.00 262.00,418.00 Z
           M 261.00,419.00
           C 261.00,419.00 260.00,419.00 260.00,419.00
             260.00,419.00 261.00,420.00 261.00,420.00
             261.00,420.00 261.00,419.00 261.00,419.00 Z
           M 260.00,420.00
           C 260.00,420.00 259.00,420.00 259.00,420.00
             259.00,420.00 260.00,421.00 260.00,421.00
             260.00,421.00 260.00,420.00 260.00,420.00 Z
           M 263.00,424.00
           C 263.00,424.00 262.00,424.00 262.00,424.00
             262.00,424.00 263.00,425.00 263.00,425.00
             263.00,425.00 263.00,424.00 263.00,424.00 Z
           M 516.00,450.00
           C 516.00,450.00 515.00,450.00 515.00,450.00
             515.00,450.00 516.00,451.00 516.00,451.00
             516.00,451.00 516.00,450.00 516.00,450.00 Z" />
  <path id="sign"
        fill="#2c4522" stroke="none" stroke-width="1"
        d="M 296.00,47.88
           C 298.40,47.25 299.60,46.83 301.98,47.88
             307.08,50.58 314.97,66.44 318.15,72.00
             318.15,72.00 368.40,159.00 368.40,159.00
             368.40,159.00 403.42,220.00 403.42,220.00
             403.42,220.00 506.00,398.00 506.00,398.00
             506.00,398.00 531.85,443.00 531.85,443.00
             534.51,447.67 542.70,460.66 543.43,465.00
             544.94,473.93 536.43,474.99 530.00,475.00
             530.00,475.00 480.00,475.00 480.00,475.00
             480.00,475.00 463.00,474.00 463.00,474.00
             463.00,474.00 322.00,474.00 322.00,474.00
             322.00,474.00 307.00,473.00 307.00,473.00
             307.00,473.00 228.00,473.00 228.00,473.00
             228.00,473.00 152.00,473.00 152.00,473.00
             141.52,472.87 145.41,471.57 131.00,472.49
             131.00,472.49 119.00,471.86 119.00,471.86
             119.00,471.86 61.00,471.86 61.00,471.86
             59.10,472.00 55.80,472.08 54.04,471.86
             41.43,467.92 53.66,451.91 57.20,446.00
             57.20,446.00 100.40,373.00 100.40,373.00
             100.40,373.00 170.45,254.00 170.45,254.00
             170.45,254.00 238.15,140.00 238.15,140.00
             238.15,140.00 277.20,74.00 277.20,74.00
             281.67,66.50 288.57,51.70 296.00,47.88 Z
           M 299.00,70.00
           C 299.00,70.00 289.40,84.00 289.40,84.00
             289.40,84.00 273.57,111.00 273.57,111.00
             273.57,111.00 227.58,189.00 227.58,189.00
             227.58,189.00 122.99,367.00 122.99,367.00
             122.99,367.00 87.15,428.00 87.15,428.00
             87.15,428.00 72.00,455.00 72.00,455.00
             72.00,455.00 105.00,455.00 105.00,455.00
             105.00,455.00 124.00,456.00 124.00,456.00
             124.00,456.00 297.00,456.00 297.00,456.00
             297.00,456.00 312.00,457.00 312.00,457.00
             312.00,457.00 457.00,457.00 457.00,457.00
             457.00,457.00 472.00,458.00 472.00,458.00
             472.00,458.00 520.00,458.00 520.00,458.00
             520.00,458.00 508.60,436.00 508.60,436.00
             508.60,436.00 491.42,406.00 491.42,406.00
             491.42,406.00 436.01,309.00 436.01,309.00
             436.01,309.00 399.57,245.00 399.57,245.00
             399.57,245.00 347.42,154.00 347.42,154.00
             347.42,154.00 316.42,100.00 316.42,100.00
             316.42,100.00 299.00,70.00 299.00,70.00 Z
           M 354.00,200.00
           C 354.00,200.00 354.00,219.00 354.00,219.00
             354.00,219.00 354.00,260.00 354.00,260.00
             354.00,260.00 369.00,261.00 369.00,261.00
             369.00,261.00 327.00,301.00 327.00,301.00
             327.00,301.00 349.00,302.00 349.00,302.00
             349.00,302.00 389.00,302.00 389.00,302.00
             389.00,302.00 389.00,306.00 389.00,306.00
             389.00,306.00 361.00,306.00 361.00,306.00
             361.00,306.00 349.00,306.96 349.00,306.96
             349.00,306.96 335.00,306.96 335.00,306.96
             327.55,307.14 324.86,310.45 329.63,317.00
             333.43,322.22 344.48,335.38 349.00,340.00
             349.00,340.00 349.00,331.00 349.00,331.00
             349.00,331.00 368.42,355.00 368.42,355.00
             368.42,355.00 400.00,397.00 400.00,397.00
             400.00,397.00 355.00,372.00 355.00,372.00
             355.00,372.00 353.00,393.00 353.00,393.00
             353.00,393.00 328.00,333.00 328.00,333.00
             328.00,333.00 320.00,345.00 320.00,345.00
             329.73,350.20 322.07,358.99 317.63,365.00
             317.63,365.00 311.12,374.00 311.12,374.00
             304.72,382.69 297.54,393.55 290.00,400.99
             284.61,406.30 283.41,406.46 278.00,410.66
             278.00,410.66 263.00,423.28 263.00,423.28
             263.00,423.28 244.00,441.00 244.00,441.00
             243.44,433.21 254.56,425.63 260.00,420.85
             260.00,420.85 273.00,409.67 273.00,409.67
             278.36,405.47 284.08,401.75 288.91,396.91
             293.04,392.77 302.68,379.39 306.58,374.00
             306.58,374.00 319.98,355.00 319.98,355.00
             321.88,350.93 319.65,348.59 317.15,349.34
             314.74,350.05 310.03,356.81 308.37,359.00
             303.42,365.57 295.23,377.44 289.00,382.00
             288.93,376.40 293.47,372.24 296.79,368.00
             296.79,368.00 318.13,340.00 318.13,340.00
             320.18,337.26 328.96,327.97 324.53,324.88
             320.92,322.37 315.72,329.64 313.80,332.00
             313.80,332.00 297.58,352.00 297.58,352.00
             293.85,356.54 291.40,360.43 286.00,363.00
             287.61,357.09 292.04,352.71 295.80,348.00
             295.80,348.00 315.20,324.00 315.20,324.00
             316.68,322.14 320.00,318.28 320.43,316.04
             321.00,313.19 318.68,311.48 316.02,312.40
             313.23,313.37 308.63,319.57 306.58,322.00
             306.58,322.00 288.00,344.00 288.00,344.00
             284.64,347.89 282.01,352.36 277.00,354.00
             279.10,346.61 294.20,330.59 299.87,324.00
             302.00,321.52 308.07,315.58 306.75,312.15
             303.66,304.09 294.72,316.60 292.80,319.00
             292.80,319.00 269.42,348.00 269.42,348.00
             265.71,352.54 262.80,358.21 257.00,360.00
             259.49,351.24 270.74,342.21 275.62,334.00
             278.93,328.42 274.39,325.30 271.00,326.40
             267.80,327.44 259.07,337.95 256.42,341.00
             251.66,346.50 242.37,355.67 239.76,362.00
             239.76,362.00 232.40,392.00 232.40,392.00
             230.32,398.34 224.59,406.80 220.39,412.00
             217.07,416.10 214.79,419.63 210.00,422.00
             211.21,414.47 223.55,402.88 227.68,394.00
             227.68,394.00 237.11,359.00 237.11,359.00
             239.15,354.26 243.37,349.91 246.73,346.00
             246.73,346.00 264.58,326.21 264.58,326.21
             267.44,323.41 270.86,321.36 275.00,322.60
             277.05,323.22 279.09,325.06 280.99,324.97
             284.95,324.80 292.41,313.53 294.00,310.04
             294.00,310.04 282.00,310.04 282.00,310.04
             282.00,310.04 271.00,311.00 271.00,311.00
             271.00,311.00 249.00,311.00 249.00,311.00
             249.00,311.00 249.00,307.00 249.00,307.00
             249.00,307.00 264.00,306.00 264.00,306.00
             264.00,306.00 299.00,306.00 299.00,306.00
             302.01,305.98 306.85,306.15 307.59,302.23
             308.11,299.46 304.88,297.20 302.99,295.74
             302.99,295.74 284.00,282.00 284.00,282.00
             284.00,282.00 285.00,292.00 285.00,292.00
             285.00,292.00 249.00,258.00 249.00,258.00
             249.00,258.00 224.00,232.00 224.00,232.00
             224.00,232.00 275.00,250.00 275.00,250.00
             275.00,250.00 271.00,218.00 271.00,218.00
             271.00,218.00 304.00,276.00 304.00,276.00
             304.00,276.00 312.01,289.98 312.01,289.98
             313.14,291.77 314.64,294.37 317.06,294.37
             320.62,294.37 322.04,289.66 323.05,287.00
             323.05,287.00 333.00,260.00 333.00,260.00
             333.00,260.00 326.00,261.00 326.00,261.00
             326.00,261.00 333.92,242.00 333.92,242.00
             333.92,242.00 354.00,200.00 354.00,200.00 Z
           M 350.00,219.00
           C 350.00,219.00 341.63,234.00 341.63,234.00
             341.63,234.00 332.00,254.00 332.00,254.00
             332.00,254.00 339.00,254.00 339.00,254.00
             339.00,254.00 324.00,296.00 324.00,296.00
             324.00,296.00 342.00,281.04 342.00,281.04
             342.00,281.04 359.00,264.00 359.00,264.00
             359.00,264.00 349.04,264.00 349.04,264.00
             349.04,264.00 349.04,251.01 349.04,251.01
             349.04,251.01 350.00,239.00 350.00,239.00
             350.00,239.00 350.00,219.00 350.00,219.00 Z
           M 280.00,255.00
           C 280.00,255.00 240.00,242.00 240.00,242.00
             240.00,242.00 264.00,266.04 264.00,266.04
             264.00,266.04 279.00,279.00 279.00,279.00
             279.00,279.00 278.00,272.00 278.00,272.00
             278.00,272.00 309.00,293.00 309.00,293.00
             309.00,293.00 288.58,257.00 288.58,257.00
             285.93,252.43 282.41,244.64 278.00,242.00
             278.00,242.00 280.00,255.00 280.00,255.00 Z
           M 215.00,308.00
           C 215.00,308.00 241.00,309.00 241.00,309.00
             241.00,309.00 241.00,312.00 241.00,312.00
             241.00,312.00 215.00,312.00 215.00,312.00
             215.00,312.00 215.00,308.00 215.00,308.00 Z
           M 328.00,321.00
           C 328.00,321.00 327.00,321.00 327.00,321.00
             327.00,321.00 328.00,322.00 328.00,322.00
             328.00,322.00 328.00,321.00 328.00,321.00 Z
           M 331.00,324.00
           C 328.93,329.39 332.19,334.97 334.20,340.00
             334.20,340.00 351.00,379.00 351.00,379.00
             351.00,379.00 351.00,366.00 351.00,366.00
             351.00,366.00 387.00,385.00 387.00,385.00
             387.00,385.00 367.88,359.00 367.88,359.00
             367.88,359.00 352.00,340.00 352.00,340.00
             352.00,340.00 352.00,350.00 352.00,350.00
             352.00,350.00 331.00,324.00 331.00,324.00 Z
           M 47.00,591.00
           C 47.57,584.65 50.75,575.41 52.58,569.00
             52.58,569.00 63.58,531.00 63.58,531.00
             65.47,524.51 65.10,520.03 73.00,519.39
             74.59,519.00 77.26,518.92 78.72,519.39
             82.15,521.18 84.62,534.10 85.63,538.00
             85.63,538.00 100.00,592.00 100.00,592.00
             100.00,592.00 87.00,591.00 87.00,591.00
             87.00,591.00 84.00,576.00 84.00,576.00
             79.79,576.00 66.47,574.96 63.70,577.60
             61.63,579.57 59.68,587.98 59.00,591.00
             59.00,591.00 47.00,591.00 47.00,591.00 Z
           M 97.00,520.00
           C 97.00,520.00 143.00,520.00 143.00,520.00
             143.00,520.00 143.00,532.00 143.00,532.00
             143.00,532.00 126.00,532.00 126.00,532.00
             126.00,532.00 126.00,572.00 126.00,572.00
             126.00,572.00 126.00,591.00 126.00,591.00
             126.00,591.00 114.00,592.00 114.00,592.00
             114.00,592.00 114.00,532.00 114.00,532.00
             114.00,532.00 97.00,532.00 97.00,532.00
             97.00,532.00 97.00,520.00 97.00,520.00 Z
           M 147.00,520.00
           C 147.00,520.00 193.00,520.00 193.00,520.00
             193.00,520.00 193.00,533.00 193.00,533.00
             193.00,533.00 176.00,533.00 176.00,533.00
             176.00,533.00 176.00,592.00 176.00,592.00
             176.00,592.00 164.00,592.00 164.00,592.00
             164.00,592.00 164.00,533.00 164.00,533.00
             164.00,533.00 148.00,533.00 148.00,533.00
             148.00,533.00 147.00,520.00 147.00,520.00 Z
           M 201.00,520.00
           C 201.00,520.00 242.00,520.00 242.00,520.00
             242.00,520.00 242.00,533.00 242.00,533.00
             242.00,533.00 212.00,533.00 212.00,533.00
             212.00,533.00 212.00,548.00 212.00,548.00
             212.00,548.00 240.00,548.00 240.00,548.00
             240.00,548.00 239.00,561.00 239.00,561.00
             239.00,561.00 212.00,560.00 212.00,560.00
             212.00,560.00 212.00,580.00 212.00,580.00
             212.00,580.00 243.00,580.00 243.00,580.00
             243.00,580.00 243.00,592.00 243.00,592.00
             243.00,592.00 200.00,592.00 200.00,592.00
             200.00,592.00 200.00,540.00 200.00,540.00
             200.00,540.00 201.00,520.00 201.00,520.00 Z
           M 253.00,520.00
           C 253.00,520.00 265.00,520.00 265.00,520.00
             265.00,520.00 279.70,553.00 279.70,553.00
             279.70,553.00 288.00,569.00 288.00,569.00
             288.00,569.00 288.00,521.00 288.00,521.00
             288.00,521.00 299.00,521.00 299.00,521.00
             299.00,521.00 299.00,560.00 299.00,560.00
             299.00,560.00 298.00,577.00 298.00,577.00
             298.00,577.00 297.00,593.00 297.00,593.00
             297.00,593.00 287.39,591.98 287.39,591.98
             287.39,591.98 280.14,578.00 280.14,578.00
             280.14,578.00 269.78,555.00 269.78,555.00
             269.78,555.00 263.00,543.00 263.00,543.00
             263.00,543.00 263.00,592.00 263.00,592.00
             263.00,592.00 252.00,592.00 252.00,592.00
             252.00,592.00 252.00,568.00 252.00,568.00
             252.00,568.00 253.00,551.00 253.00,551.00
             253.00,551.00 253.00,520.00 253.00,520.00 Z
           M 399.00,520.53
           C 399.00,520.53 404.00,520.01 404.00,520.01
             406.99,519.94 410.11,519.95 413.00,520.79
             431.67,526.18 432.18,547.29 432.00,563.00
             431.84,576.59 425.35,591.01 411.00,594.32
             396.94,597.56 386.00,589.92 380.93,577.00
             375.42,562.98 376.89,537.10 388.18,526.21
             391.30,523.20 394.93,521.73 399.00,520.53 Z
           M 307.00,521.00
           C 307.00,521.00 350.00,521.00 350.00,521.00
             350.00,521.00 350.00,528.00 350.00,528.00
             349.88,536.19 345.35,541.32 341.00,548.00
             341.00,548.00 321.00,580.00 321.00,580.00
             321.00,580.00 350.00,580.00 350.00,580.00
             350.00,580.00 350.00,593.00 350.00,593.00
             350.00,593.00 319.00,593.00 319.00,593.00
             316.46,593.00 309.45,593.44 307.60,591.98
             305.68,590.46 305.94,586.24 306.02,584.00
             306.24,577.76 310.04,573.21 313.20,568.00
             313.20,568.00 335.00,533.00 335.00,533.00
             335.00,533.00 307.00,533.00 307.00,533.00
             307.00,533.00 307.00,521.00 307.00,521.00 Z
           M 358.00,521.00
           C 358.00,521.00 362.00,521.00 362.00,521.00
             372.71,521.07 369.12,524.06 369.00,534.00
             369.00,534.00 369.00,593.00 369.00,593.00
             369.00,593.00 357.00,593.00 357.00,593.00
             357.00,593.00 358.00,575.00 358.00,575.00
             358.00,575.00 358.00,521.00 358.00,521.00 Z
           M 442.00,522.00
           C 442.00,522.00 455.00,522.00 455.00,522.00
             455.00,522.00 469.22,555.00 469.22,555.00
             469.22,555.00 477.00,570.00 477.00,570.00
             477.00,570.00 477.00,522.00 477.00,522.00
             477.00,522.00 488.00,522.00 488.00,522.00
             488.00,522.00 488.00,560.00 488.00,560.00
             488.00,560.00 487.00,575.00 487.00,575.00
             487.00,575.00 487.00,594.00 487.00,594.00
             487.00,594.00 482.00,594.00 482.00,594.00
             473.85,593.84 474.40,590.85 469.78,581.00
             469.78,581.00 459.58,558.00 459.58,558.00
             457.44,553.00 455.89,547.90 452.00,544.00
             454.20,553.05 452.01,560.06 452.00,569.00
             452.00,569.00 452.00,594.00 452.00,594.00
             452.00,594.00 442.00,594.00 442.00,594.00
             439.21,584.17 441.98,569.32 442.00,559.00
             442.00,559.00 442.00,522.00 442.00,522.00 Z
           M 499.00,522.00
           C 499.00,522.00 541.00,522.00 541.00,522.00
             541.00,522.00 541.00,535.00 541.00,535.00
             541.00,535.00 511.00,535.00 511.00,535.00
             511.00,535.00 511.00,550.00 511.00,550.00
             511.00,550.00 539.00,550.00 539.00,550.00
             539.00,550.00 539.00,562.00 539.00,562.00
             534.21,563.36 527.01,563.31 522.00,562.83
             519.09,562.56 514.96,561.25 512.60,563.60
             510.16,566.02 511.00,577.30 511.00,581.00
             511.00,581.00 542.00,581.00 542.00,581.00
             542.00,581.00 542.00,594.00 542.00,594.00
             542.00,594.00 499.00,594.00 499.00,594.00
             499.00,594.00 499.00,522.00 499.00,522.00 Z
           M 404.00,532.34
           C 389.75,535.25 389.95,549.49 390.00,561.00
             390.02,564.46 389.97,566.64 391.10,570.00
             393.77,577.92 398.16,582.83 407.00,581.89
             414.87,581.06 418.41,573.96 419.74,567.00
             422.12,554.55 421.48,531.98 404.00,532.34 Z
           M 74.00,536.00
           C 74.00,536.00 66.00,564.00 66.00,564.00
             66.00,564.00 80.00,564.00 80.00,564.00
             80.00,564.00 74.00,536.00 74.00,536.00 Z
           M 279.00,678.00
           C 276.78,704.44 251.32,710.70 237.02,699.47
             227.85,692.28 224.61,676.14 225.04,665.00
             225.51,652.75 229.01,639.76 240.00,632.95
             255.22,623.53 278.47,631.71 279.00,655.00
             279.00,655.00 267.00,655.00 267.00,655.00
             266.05,652.28 265.15,649.42 263.35,647.10
             257.23,639.21 247.92,641.69 242.65,649.02
             236.93,656.96 236.82,673.23 240.68,682.00
             242.80,686.81 247.39,691.57 253.00,691.63
             262.91,691.73 265.37,680.71 267.70,678.99
             269.66,677.54 276.39,678.00 279.00,678.00 Z
           M 110.00,630.00
           C 119.67,630.00 143.36,628.61 150.99,633.09
             162.67,639.95 162.58,660.42 150.99,667.00
             150.99,667.00 151.00,669.00 151.00,669.00
             159.22,673.19 157.90,683.10 158.00,691.00
             158.07,696.37 158.71,697.04 160.00,702.00
             160.00,702.00 146.00,702.00 146.00,702.00
             146.00,702.00 145.09,693.00 145.09,693.00
             144.69,687.13 146.54,679.66 140.89,675.74
             137.18,673.15 126.75,674.00 122.00,674.00
             122.00,674.00 122.00,702.00 122.00,702.00
             122.00,702.00 109.00,702.00 109.00,702.00
             111.03,680.20 110.00,652.45 110.00,630.00 Z
           M 451.00,630.48
           C 468.26,629.49 479.34,641.64 481.85,658.00
             481.85,658.00 481.85,672.00 481.85,672.00
             481.81,688.19 473.64,703.94 456.00,705.83
             434.67,708.11 424.03,689.91 424.00,671.00
             423.98,656.48 425.63,641.29 440.00,633.55
             443.39,631.73 447.25,631.11 451.00,630.48 Z
           M 171.00,631.00
           C 171.00,631.00 216.00,631.00 216.00,631.00
             216.00,631.00 216.00,643.00 216.00,643.00
             216.00,643.00 183.00,644.00 183.00,644.00
             183.00,644.00 183.00,658.00 183.00,658.00
             183.00,658.00 199.00,659.00 199.00,659.00
             199.00,659.00 213.00,659.00 213.00,659.00
             213.00,659.00 213.00,671.00 213.00,671.00
             213.00,671.00 183.00,671.00 183.00,671.00
             183.00,674.38 182.44,685.31 184.02,687.69
             185.86,690.45 190.09,689.99 193.00,690.00
             193.00,690.00 217.00,690.00 217.00,690.00
             217.00,690.00 217.00,703.00 217.00,703.00
             209.22,701.11 180.86,702.00 171.00,702.00
             171.00,702.00 171.00,631.00 171.00,631.00 Z
           M 288.00,631.00
           C 288.00,631.00 301.00,631.00 301.00,631.00
             301.00,631.00 301.00,703.00 301.00,703.00
             301.00,703.00 288.00,703.00 288.00,703.00
             288.00,703.00 288.00,659.00 288.00,659.00
             288.02,649.22 290.42,640.96 288.00,631.00 Z
           M 312.00,703.00
           C 312.00,703.00 312.00,672.00 312.00,672.00
             312.00,672.00 313.00,657.00 313.00,657.00
             313.00,657.00 313.00,640.00 313.00,640.00
             313.00,638.10 312.77,634.11 314.02,632.62
             315.50,630.90 322.85,631.74 324.79,632.62
             326.18,633.21 326.79,633.93 327.65,635.15
             327.65,635.15 350.00,681.00 350.00,681.00
             350.00,681.00 350.00,632.00 350.00,632.00
             350.00,632.00 362.00,632.00 362.00,632.00
             362.00,632.00 362.00,679.00 362.00,679.00
             362.00,679.00 361.00,704.00 361.00,704.00
             361.00,704.00 349.39,701.98 349.39,701.98
             349.39,701.98 341.14,687.00 341.14,687.00
             341.14,687.00 324.00,653.00 324.00,653.00
             324.00,653.00 324.00,703.00 324.00,703.00
             324.00,703.00 312.00,703.00 312.00,703.00 Z
           M 369.00,632.00
           C 369.00,632.00 419.00,632.00 419.00,632.00
             419.00,632.00 419.00,645.00 419.00,645.00
             419.00,645.00 400.00,645.00 400.00,645.00
             400.00,645.00 400.00,704.00 400.00,704.00
             400.00,704.00 394.00,704.00 394.00,704.00
             383.86,703.81 387.98,699.36 388.00,687.00
             388.01,677.46 388.88,651.72 387.00,644.00
             387.00,644.00 369.00,644.00 369.00,644.00
             369.00,644.00 369.00,632.00 369.00,632.00 Z
           M 122.00,662.00
           C 126.48,662.00 139.53,662.72 142.89,660.83
             148.46,657.69 148.40,647.34 142.89,644.17
             138.19,641.46 128.59,642.45 123.00,642.00
             123.00,642.00 122.00,662.00 122.00,662.00 Z
           M 451.00,643.33
           C 436.42,646.94 435.30,662.57 436.85,675.00
             438.21,685.96 443.54,694.73 456.00,692.79
             464.83,691.41 468.18,682.82 469.15,675.00
             470.78,661.96 468.96,641.78 451.00,643.33 Z
           M 58.00,741.00
           C 66.49,738.59 73.70,740.90 82.00,741.00
             82.00,741.00 103.00,741.00 103.00,741.00
             103.00,741.00 103.00,753.00 103.00,753.00
             103.00,753.00 71.01,753.00 71.01,753.00
             70.97,756.29 69.56,764.44 71.01,766.69
             72.82,769.44 77.12,768.99 80.00,769.00
             86.59,769.01 93.58,769.56 100.00,768.00
             100.00,768.00 100.00,781.00 100.00,781.00
             100.00,781.00 70.00,781.00 70.00,781.00
             70.00,781.00 70.00,800.00 70.00,800.00
             70.00,800.00 104.00,800.00 104.00,800.00
             104.00,800.00 104.00,813.00 104.00,813.00
             104.00,813.00 88.00,812.00 88.00,812.00
             88.00,812.00 58.00,812.00 58.00,812.00
             58.00,812.00 58.00,741.00 58.00,741.00 Z
           M 115.00,741.00
           C 115.00,741.00 128.00,741.00 128.00,741.00
             128.00,741.00 127.00,800.00 127.00,800.00
             127.00,800.00 158.00,800.00 158.00,800.00
             158.00,800.00 158.00,813.00 158.00,813.00
             158.00,813.00 115.00,813.00 115.00,813.00
             115.00,813.00 115.00,741.00 115.00,741.00 Z
           M 167.00,741.00
           C 167.00,741.00 212.00,741.00 212.00,741.00
             212.00,741.00 212.00,754.00 212.00,754.00
             212.00,754.00 179.00,754.00 179.00,754.00
             179.00,754.00 179.00,769.00 179.00,769.00
             179.00,769.00 209.00,769.00 209.00,769.00
             209.00,769.00 209.00,782.00 209.00,782.00
             209.00,782.00 179.00,782.00 179.00,782.00
             179.00,782.00 179.00,800.00 179.00,800.00
             189.60,800.00 203.13,802.40 213.00,800.00
             213.00,800.00 213.00,813.00 213.00,813.00
             213.00,813.00 167.00,813.00 167.00,813.00
             167.00,813.00 167.00,741.00 167.00,741.00 Z
           M 219.00,741.00
           C 219.00,741.00 240.00,741.00 240.00,741.00
             240.00,741.00 252.00,741.96 252.00,741.96
             252.00,741.96 268.00,741.96 268.00,741.96
             268.00,741.96 268.00,754.00 268.00,754.00
             268.00,754.00 250.00,754.00 250.00,754.00
             250.00,754.00 249.00,769.00 249.00,769.00
             249.00,769.00 249.00,813.00 249.00,813.00
             249.00,813.00 237.00,813.00 237.00,813.00
             237.00,813.00 237.00,754.00 237.00,754.00
             237.00,754.00 219.00,754.00 219.00,754.00
             219.00,754.00 219.00,741.00 219.00,741.00 Z
           M 466.00,790.00
           C 464.67,805.86 455.26,816.17 439.00,816.00
             433.19,815.94 428.81,814.84 424.09,811.21
             414.79,804.06 411.61,788.18 412.04,777.00
             412.40,767.68 414.96,756.18 421.33,749.09
             431.43,737.84 451.09,738.20 460.61,750.02
             464.76,755.16 465.39,759.94 467.00,766.00
             464.26,766.00 456.71,766.49 454.69,765.01
             453.16,763.88 452.45,761.32 450.59,759.05
             446.76,754.41 440.52,752.58 435.04,755.45
             424.19,761.15 423.45,781.84 427.10,792.00
             428.88,796.95 432.62,801.79 438.00,802.97
             449.00,805.38 452.39,792.69 454.69,790.99
             456.67,789.54 463.38,790.00 466.00,790.00 Z
           M 499.00,741.68
           C 503.10,740.91 504.93,740.91 509.00,741.68
             529.41,746.86 532.21,764.03 532.00,782.00
             531.80,798.61 524.66,813.38 507.00,816.54
             487.00,820.11 474.22,802.09 474.00,784.00
             473.77,763.82 475.83,746.62 499.00,741.68 Z
           M 273.00,742.00
           C 273.00,742.00 322.00,742.00 322.00,742.00
             322.00,742.00 322.00,754.00 322.00,754.00
             322.00,754.00 304.00,754.00 304.00,754.00
             304.00,754.00 304.00,778.00 304.00,778.00
             304.00,778.00 303.00,793.00 303.00,793.00
             303.00,793.00 303.00,814.00 303.00,814.00
             303.00,814.00 291.00,814.00 291.00,814.00
             291.00,814.00 291.00,754.00 291.00,754.00
             291.00,754.00 272.00,754.00 272.00,754.00
             272.00,754.00 273.00,742.00 273.00,742.00 Z
           M 330.00,742.00
           C 330.00,742.00 358.00,742.00 358.00,742.00
             362.26,742.05 367.29,742.57 371.00,744.85
             382.32,751.82 383.75,772.82 371.00,779.00
             371.00,779.00 371.00,781.00 371.00,781.00
             379.63,785.34 377.89,794.79 378.00,803.00
             378.09,809.09 378.83,808.81 381.00,814.00
             381.00,814.00 366.00,814.00 366.00,814.00
             366.00,814.00 365.00,797.00 365.00,797.00
             364.95,793.89 365.02,790.96 362.57,788.65
             358.59,784.89 347.42,786.00 342.00,786.00
             342.00,786.00 342.00,814.00 342.00,814.00
             342.00,814.00 330.00,814.00 330.00,814.00
             330.00,814.00 330.00,742.00 330.00,742.00 Z
           M 390.00,814.00
           C 390.00,814.00 390.00,759.00 390.00,759.00
             390.00,744.02 388.70,742.16 397.00,742.00
             397.00,742.00 403.00,742.00 403.00,742.00
             403.00,742.00 403.00,814.00 403.00,814.00
             403.00,814.00 390.00,814.00 390.00,814.00 Z
           M 342.00,774.00
           C 342.00,774.00 355.00,774.00 355.00,774.00
             357.23,773.97 359.87,773.96 361.96,773.11
             367.69,770.78 368.74,761.57 364.69,757.28
             363.40,755.91 361.78,755.08 360.00,754.80
             357.37,753.81 345.63,753.41 343.60,754.80
             341.74,756.49 342.02,759.87 342.00,762.00
             342.00,762.00 342.00,774.00 342.00,774.00 Z
           M 518.00,796.00
           C 517.80,788.16 520.24,783.66 519.28,775.00
             518.71,769.88 519.05,767.97 516.67,763.00
             511.78,752.75 499.02,751.21 492.53,758.22
             482.98,768.53 482.19,803.95 503.00,803.92
             513.12,803.91 512.76,797.64 518.00,796.00 Z" />
</svg>
