<?xml version="1.0" encoding="UTF-8" standalone="no"?>
<!DOCTYPE svg PUBLIC "-//W3C//DTD SVG 20010904//EN"
              "http://www.w3.org/TR/2001/REC-SVG-20010904/DTD/svg10.dtd">

<svg xmlns="http://www.w3.org/2000/svg"
     width="0.663333in" height="1.02667in"
     viewBox="0 0 199 308">
  <path id="sign-inside"
        fill="#e9ac13" stroke="none" stroke-width="1"
        d="M 100.00,14.00
           C 100.00,14.00 102.00,14.00 102.00,14.00
             102.00,14.00 120.14,46.00 120.14,46.00
             120.14,46.00 159.85,116.00 159.85,116.00
             159.85,116.00 176.42,145.00 176.42,145.00
             176.42,145.00 186.00,164.00 186.00,164.00
             186.00,164.00 80.00,164.00 80.00,164.00
             80.00,164.00 65.00,163.00 65.00,163.00
             65.00,163.00 14.00,163.00 14.00,163.00
             14.00,163.00 22.72,146.00 22.72,146.00
             22.72,146.00 40.58,115.00 40.58,115.00
             40.58,115.00 68.99,67.00 68.99,67.00
             68.99,67.00 100.00,14.00 100.00,14.00 Z
           M 123.00,65.00
           C 116.95,71.15 120.86,72.30 120.86,79.00
             120.86,83.51 118.53,85.99 123.00,89.00
             123.00,89.00 123.00,91.00 123.00,91.00
             123.00,91.00 112.00,100.00 112.00,100.00
             113.96,92.74 117.45,86.79 115.00,79.00
             115.00,79.00 112.65,90.00 112.65,90.00
             112.65,90.00 110.00,100.00 110.00,100.00
             101.62,95.64 97.70,80.37 91.00,73.00
             91.00,73.00 92.00,82.00 92.00,82.00
             92.00,82.00 91.00,83.00 91.00,83.00
             91.00,83.00 74.00,77.00 74.00,77.00
             76.91,83.15 89.28,94.91 95.00,99.00
             97.36,94.81 102.89,102.59 104.00,105.00
             104.00,105.00 82.00,105.00 82.00,105.00
             82.00,105.00 82.00,107.00 82.00,107.00
             82.00,107.00 99.00,107.00 99.00,107.00
             91.07,116.03 90.42,107.76 86.00,116.00
             86.00,116.00 93.00,114.00 93.00,114.00
             93.00,114.00 90.00,120.00 90.00,120.00
             90.00,120.00 103.00,106.00 103.00,106.00
             103.00,106.00 95.00,121.00 95.00,121.00
             95.00,121.00 107.00,109.00 107.00,109.00
             107.00,109.00 106.00,111.00 106.00,111.00
             106.00,111.00 109.00,110.00 109.00,110.00
             109.00,110.00 102.00,120.00 102.00,120.00
             102.00,120.00 112.00,113.00 112.00,113.00
             112.00,113.00 99.00,132.00 99.00,132.00
             99.00,132.00 110.00,122.00 110.00,122.00
             110.00,122.00 103.00,134.00 103.00,134.00
             111.16,127.62 109.99,125.80 111.00,117.00
             111.00,117.00 113.00,117.00 113.00,117.00
             113.00,117.00 115.00,120.00 115.00,120.00
             115.00,120.00 114.00,114.00 114.00,114.00
             114.00,114.00 122.00,121.00 122.00,121.00
             122.00,121.00 124.00,120.00 124.00,120.00
             121.63,115.67 114.13,113.45 113.58,108.15
             113.24,104.90 117.90,105.04 120.00,105.00
             124.84,104.92 131.60,105.74 136.00,104.00
             136.00,104.00 113.00,104.00 113.00,104.00
             113.00,104.00 127.00,88.00 127.00,88.00
             127.00,88.00 123.00,87.00 123.00,87.00
             123.00,87.00 123.00,65.00 123.00,65.00 Z
           M 119.00,73.00
           C 117.03,75.38 116.36,75.89 117.00,79.00
             117.00,79.00 119.00,73.00 119.00,73.00 Z
           M 80.00,81.00
           C 80.00,81.00 96.00,84.00 96.00,84.00
             96.00,84.00 104.00,99.00 104.00,99.00
             104.00,99.00 95.28,93.74 95.28,93.74
             95.28,93.74 90.91,91.90 90.91,91.90
             87.36,89.98 81.98,84.53 80.00,81.00 Z
           M 94.00,82.00
           C 94.00,82.00 95.00,82.00 95.00,82.00
             95.00,82.00 94.00,83.00 94.00,83.00
             94.00,83.00 94.00,82.00 94.00,82.00 Z
           M 109.00,108.00
           C 109.00,108.00 110.00,108.00 110.00,108.00
             110.00,108.00 109.00,109.00 109.00,109.00
             109.00,109.00 109.00,108.00 109.00,108.00 Z
           M 92.00,114.00
           C 92.00,114.00 91.00,114.00 91.00,114.00
             91.00,114.00 92.00,115.00 92.00,115.00
             92.00,115.00 92.00,114.00 92.00,114.00 Z
           M 86.00,116.00
           C 86.00,116.00 85.00,116.00 85.00,116.00
             85.00,116.00 86.00,117.00 86.00,117.00
             86.00,117.00 86.00,116.00 86.00,116.00 Z
           M 85.00,117.00
           C 85.00,117.00 84.00,117.00 84.00,117.00
             84.00,117.00 85.00,118.00 85.00,118.00
             85.00,118.00 85.00,117.00 85.00,117.00 Z
           M 84.00,118.00
           C 84.00,118.00 79.00,124.00 79.00,124.00
             79.00,124.00 84.00,118.00 84.00,118.00 Z
           M 90.00,120.00
           C 90.00,120.00 89.00,120.00 89.00,120.00
             89.00,120.00 90.00,121.00 90.00,121.00
             90.00,121.00 90.00,120.00 90.00,120.00 Z
           M 102.00,120.00
           C 102.00,120.00 98.00,125.00 98.00,125.00
             98.00,125.00 102.00,120.00 102.00,120.00 Z
           M 125.00,120.00
           C 125.00,120.00 127.00,124.00 127.00,124.00
             127.00,124.00 125.00,120.00 125.00,120.00 Z
           M 89.00,121.00
           C 89.00,121.00 88.00,121.00 88.00,121.00
             88.00,121.00 89.00,122.00 89.00,122.00
             89.00,122.00 89.00,121.00 89.00,121.00 Z
           M 109.00,123.00
           C 109.00,123.00 108.00,123.00 108.00,123.00
             108.00,123.00 109.00,124.00 109.00,124.00
             109.00,124.00 109.00,123.00 109.00,123.00 Z
           M 117.00,123.00
           C 117.00,123.00 118.00,127.00 118.00,127.00
             118.00,127.00 117.00,123.00 117.00,123.00 Z
           M 128.00,124.00
           C 128.00,124.00 127.00,124.00 127.00,124.00
             127.00,124.00 128.00,125.00 128.00,125.00
             128.00,125.00 128.00,124.00 128.00,124.00 Z
           M 98.00,125.00
           C 98.00,125.00 97.00,125.00 97.00,125.00
             97.00,125.00 98.00,126.00 98.00,126.00
             98.00,126.00 98.00,125.00 98.00,125.00 Z
           M 129.00,125.00
           C 129.00,125.00 131.00,129.00 131.00,129.00
             131.00,129.00 129.00,125.00 129.00,125.00 Z
           M 78.00,126.00
           C 78.00,126.00 77.00,131.00 77.00,131.00
             77.00,131.00 78.00,126.00 78.00,126.00 Z
           M 134.00,135.00
           C 127.00,130.97 126.97,129.72 119.00,130.00
             119.00,130.00 122.00,137.00 122.00,137.00
             122.00,137.00 123.00,131.00 123.00,131.00
             123.00,131.00 139.00,139.00 139.00,139.00
             139.00,139.00 131.00,129.00 131.00,129.00
             131.00,129.00 134.00,135.00 134.00,135.00 Z
           M 76.00,131.00
           C 76.00,131.00 76.00,137.00 76.00,137.00
             76.00,137.00 76.00,131.00 76.00,131.00 Z
           M 132.00,132.00
           C 132.00,132.00 131.00,132.00 131.00,132.00
             131.00,132.00 132.00,133.00 132.00,133.00
             132.00,133.00 132.00,132.00 132.00,132.00 Z
           M 103.00,134.00
           C 103.00,134.00 93.00,145.00 93.00,145.00
             98.29,142.49 100.88,139.41 103.00,134.00 Z
           M 75.00,137.00
           C 75.00,137.00 72.00,143.00 72.00,143.00
             72.00,143.00 75.00,137.00 75.00,137.00 Z
           M 72.00,143.00
           C 72.00,143.00 67.00,149.00 67.00,149.00
             70.38,147.09 70.55,146.57 72.00,143.00 Z
           M 93.00,145.00
           C 93.00,145.00 88.00,149.00 88.00,149.00
             88.00,149.00 93.00,145.00 93.00,145.00 Z
           M 88.00,149.00
           C 83.91,150.94 81.94,152.91 80.00,157.00
             80.00,157.00 88.00,149.00 88.00,149.00 Z
           M 185.00,162.00
           C 185.00,162.00 184.00,162.00 184.00,162.00
             184.00,162.00 185.00,163.00 185.00,163.00
             185.00,163.00 185.00,162.00 185.00,162.00 Z" />
  <path id="sign"
        fill="#2c4522" stroke="none" stroke-width="1"
        d="M 99.21,4.78
           C 105.74,3.79 107.49,10.08 110.28,15.00
             110.28,15.00 129.72,49.00 129.72,49.00
             129.72,49.00 172.59,124.00 172.59,124.00
             172.59,124.00 182.69,141.00 182.69,141.00
             182.69,141.00 194.14,161.00 194.14,161.00
             195.37,163.28 197.49,167.01 195.94,169.57
             194.19,172.43 188.91,172.00 186.00,172.00
             186.00,172.00 162.00,171.00 162.00,171.00
             162.00,171.00 40.00,171.00 40.00,171.00
             40.00,171.00 14.00,171.00 14.00,171.00
             9.81,170.99 2.25,171.55 3.70,164.98
             4.21,162.70 8.59,155.46 10.00,153.00
             10.00,153.00 24.27,129.00 24.27,129.00
             24.27,129.00 73.60,45.00 73.60,45.00
             73.60,45.00 89.42,18.00 89.42,18.00
             91.88,13.80 95.17,7.40 99.21,4.78 Z
           M 101.00,15.00
           C 101.00,15.00 85.67,40.00 85.67,40.00
             85.67,40.00 69.72,67.00 69.72,67.00
             69.72,67.00 38.45,120.00 38.45,120.00
             38.45,120.00 14.00,162.00 14.00,162.00
             14.00,162.00 39.00,162.00 39.00,162.00
             39.00,162.00 56.00,163.00 56.00,163.00
             56.00,163.00 185.00,163.00 185.00,163.00
             185.00,163.00 173.42,141.00 173.42,141.00
             173.42,141.00 152.85,105.00 152.85,105.00
             152.85,105.00 117.42,43.00 117.42,43.00
             117.42,43.00 101.00,15.00 101.00,15.00 Z
           M 122.00,64.00
           C 122.00,64.00 123.00,86.00 123.00,86.00
             123.00,86.00 128.00,87.00 128.00,87.00
             128.00,87.00 114.00,103.00 114.00,103.00
             114.00,103.00 136.00,102.00 136.00,102.00
             136.00,102.00 137.00,105.00 137.00,105.00
             137.00,105.00 113.00,106.00 113.00,106.00
             117.12,115.66 120.04,114.07 123.71,117.34
             128.02,121.17 138.66,135.56 140.00,141.00
             140.00,141.00 123.00,132.00 123.00,132.00
             123.00,132.00 123.00,139.00 123.00,139.00
             118.77,135.20 114.33,123.66 113.00,118.00
             113.00,118.00 110.00,119.00 110.00,119.00
             112.92,125.20 109.62,127.90 106.00,133.00
             104.08,135.70 102.12,138.50 99.84,140.91
             96.33,144.63 83.04,156.09 79.00,158.00
             80.80,151.90 85.31,149.29 90.00,145.27
             96.20,139.95 106.14,130.10 108.00,122.00
             108.00,122.00 99.00,135.00 99.00,135.00
             99.00,135.00 96.00,134.00 96.00,134.00
             96.00,134.00 111.00,113.00 111.00,113.00
             111.00,113.00 96.00,128.00 96.00,128.00
             97.59,120.47 104.73,114.37 109.00,108.00
             109.00,108.00 92.00,124.00 92.00,124.00
             92.00,124.00 104.00,107.00 104.00,107.00
             104.00,107.00 84.00,127.00 84.00,127.00
             84.00,127.00 91.00,113.00 91.00,113.00
             88.04,116.10 80.20,124.46 78.70,128.00
             76.25,133.76 77.12,144.48 66.00,151.00
             66.00,151.00 72.36,139.00 72.36,139.00
             72.36,139.00 76.27,126.00 76.27,126.00
             76.27,126.00 86.58,113.24 86.58,113.24
             86.58,113.24 97.00,108.00 97.00,108.00
             91.94,108.00 84.14,109.69 81.00,105.00
             81.00,105.00 104.00,104.00 104.00,104.00
             95.97,96.51 97.12,100.55 92.00,97.38
             87.30,94.46 74.34,80.96 72.00,76.00
             72.00,76.00 91.00,82.00 91.00,82.00
             91.00,82.00 90.00,71.00 90.00,71.00
             90.00,71.00 109.00,100.00 109.00,100.00
             109.00,100.00 113.00,88.00 113.00,88.00
             110.39,85.39 112.34,82.94 113.76,80.00
             113.76,80.00 122.00,64.00 122.00,64.00 Z
           M 120.00,75.00
           C 120.00,75.00 115.00,84.00 115.00,84.00
             117.18,89.48 114.63,90.27 114.00,97.00
             114.00,97.00 122.00,90.00 122.00,90.00
             118.95,85.85 120.00,79.95 120.00,75.00 Z
           M 83.00,82.00
           C 83.01,88.11 96.05,93.59 101.00,96.00
             101.00,96.00 94.00,83.00 94.00,83.00
             91.20,86.13 86.35,83.43 83.00,82.00 Z
           M 102.00,96.00
           C 102.00,96.00 101.00,96.00 101.00,96.00
             101.00,96.00 102.00,97.00 102.00,97.00
             102.00,97.00 102.00,96.00 102.00,96.00 Z
           M 114.00,97.00
           C 114.00,97.00 113.00,97.00 113.00,97.00
             113.00,97.00 114.00,98.00 114.00,98.00
             114.00,98.00 114.00,97.00 114.00,97.00 Z
           M 68.00,105.00
           C 68.00,105.00 79.00,105.00 79.00,105.00
             79.00,105.00 79.00,108.00 79.00,108.00
             79.00,108.00 68.00,108.00 68.00,108.00
             68.00,108.00 68.00,105.00 68.00,105.00 Z
           M 116.00,116.00
           C 115.62,118.65 116.04,119.47 116.96,122.00
             119.42,128.76 124.34,130.10 131.00,132.00
             131.00,132.00 123.00,120.00 123.00,120.00
             119.06,120.68 118.33,118.91 116.00,116.00 Z
           M 132.00,132.00
           C 132.00,132.00 131.00,132.00 131.00,132.00
             131.00,132.00 132.00,133.00 132.00,133.00
             132.00,133.00 132.00,132.00 132.00,132.00 Z
           M 3.00,217.00
           C 3.17,209.49 6.31,200.36 8.49,193.02
             9.32,190.24 11.19,186.54 14.79,187.71
             17.51,188.59 18.29,192.58 19.00,195.00
             20.48,200.06 23.56,212.08 24.00,217.00
             18.95,216.58 18.10,216.00 17.00,211.00
             5.68,211.40 12.72,216.19 3.00,217.00 Z
           M 23.00,187.00
           C 23.00,187.00 61.00,188.00 61.00,188.00
             60.53,193.67 59.47,193.81 54.00,194.00
             54.00,194.00 54.00,217.00 54.00,217.00
             54.00,217.00 48.00,217.00 48.00,217.00
             48.00,217.00 48.00,194.00 48.00,194.00
             48.00,194.00 34.00,194.00 34.00,194.00
             34.00,194.00 34.00,217.00 34.00,217.00
             34.00,217.00 29.02,215.40 29.02,215.40
             29.02,215.40 28.00,208.00 28.00,208.00
             28.00,208.00 28.00,194.00 28.00,194.00
             28.00,194.00 22.00,194.00 22.00,194.00
             22.00,194.00 23.00,187.00 23.00,187.00 Z
           M 142.00,187.71
           C 158.03,188.27 157.35,216.00 144.00,217.77
             129.11,219.75 128.82,197.93 134.65,191.39
             136.73,189.05 139.10,188.38 142.00,187.71 Z
           M 62.00,217.00
           C 62.00,217.00 62.00,199.00 62.00,199.00
             62.00,196.99 61.79,191.95 62.60,190.29
             64.29,186.88 78.22,187.02 79.26,190.29
             80.80,195.07 70.39,194.00 68.00,194.00
             68.00,194.00 68.00,199.00 68.00,199.00
             70.52,199.00 78.37,198.11 78.37,202.00
             78.37,202.81 78.00,203.48 77.38,203.98
             75.71,205.35 70.23,205.00 68.00,205.00
             68.00,205.00 68.00,211.00 68.00,211.00
             68.00,211.00 80.00,211.00 80.00,211.00
             80.00,211.00 80.00,217.00 80.00,217.00
             80.00,217.00 62.00,217.00 62.00,217.00 Z
           M 82.01,188.82
           C 83.73,188.57 85.04,188.00 86.87,188.82
             90.93,190.07 94.27,201.07 96.16,205.00
             96.16,205.00 96.16,191.15 96.16,191.15
             97.13,188.38 99.54,187.86 100.98,189.62
             102.14,191.04 101.99,194.23 102.00,196.00
             102.00,196.00 102.00,217.00 102.00,217.00
             92.41,216.66 93.80,211.46 88.00,201.00
             88.00,201.00 88.00,217.00 88.00,217.00
             88.00,217.00 83.02,215.40 83.02,215.40
             83.02,215.40 82.01,208.00 82.01,208.00
             82.01,208.00 82.01,188.82 82.01,188.82 Z
           M 104.00,188.00
           C 107.29,188.00 119.12,187.12 120.96,189.60
             122.35,191.46 121.34,194.17 120.44,196.00
             120.44,196.00 111.00,211.00 111.00,211.00
             118.97,211.00 121.42,210.02 122.00,217.00
             122.00,217.00 103.00,217.00 103.00,217.00
             103.22,208.32 108.84,201.68 114.00,195.00
             107.08,194.41 104.31,196.73 104.00,188.00 Z
           M 123.00,217.00
           C 123.00,217.00 123.00,197.00 123.00,197.00
             123.00,197.00 124.02,189.60 124.02,189.60
             124.02,189.60 129.00,188.00 129.00,188.00
             129.00,188.00 129.00,217.00 129.00,217.00
             129.00,217.00 123.00,217.00 123.00,217.00 Z
           M 157.00,188.00
           C 165.68,190.88 165.41,196.27 169.00,204.00
             169.00,204.00 169.00,189.00 169.00,189.00
             169.00,189.00 175.00,189.00 175.00,189.00
             175.00,189.00 175.00,218.00 175.00,218.00
             175.00,218.00 169.69,217.01 169.69,217.01
             169.69,217.01 162.00,202.00 162.00,202.00
             162.00,215.06 163.34,217.12 156.00,218.00
             156.00,218.00 157.00,188.00 157.00,188.00 Z
           M 178.00,189.00
           C 178.00,189.00 196.00,189.00 196.00,189.00
             195.41,196.05 193.02,195.00 184.00,195.00
             184.00,195.00 184.00,199.00 184.00,199.00
             186.01,199.00 191.05,198.79 192.69,199.60
             195.22,200.85 195.22,204.15 192.69,205.40
             191.05,206.21 186.01,206.00 184.00,206.00
             185.36,214.10 189.18,210.78 197.00,213.00
             197.00,213.00 196.00,218.00 196.00,218.00
             196.00,218.00 179.60,216.98 179.60,216.98
             179.60,216.98 178.00,209.00 178.00,209.00
             178.00,209.00 178.00,189.00 178.00,189.00 Z
           M 142.04,194.66
           C 134.20,197.49 136.29,212.32 142.96,211.42
             148.75,210.65 150.75,195.86 142.04,194.66 Z
           M 14.00,198.00
           C 14.00,198.00 12.00,205.00 12.00,205.00
             12.00,205.00 15.00,205.00 15.00,205.00
             15.00,205.00 14.00,198.00 14.00,198.00 Z
           M 94.00,250.00
           C 92.13,261.24 82.24,263.61 76.34,258.49
             72.93,255.53 72.12,251.27 72.01,247.00
             71.89,241.78 72.07,237.11 76.21,233.30
             82.30,227.71 92.14,229.83 94.00,241.00
             85.48,240.73 85.24,235.90 81.27,238.66
             76.54,241.94 77.43,253.10 83.01,253.83
             87.18,254.38 85.24,250.28 94.00,250.00 Z
           M 27.00,231.00
           C 31.23,231.00 41.45,230.16 44.58,232.74
             49.53,236.81 46.59,242.14 46.34,246.00
             46.34,246.00 48.00,260.00 48.00,260.00
             48.00,260.00 41.00,260.00 41.00,260.00
             41.00,260.00 40.00,249.00 40.00,249.00
             40.00,249.00 33.00,249.00 33.00,249.00
             33.00,249.00 33.00,260.00 33.00,260.00
             33.00,260.00 27.00,260.00 27.00,260.00
             27.00,260.00 27.00,231.00 27.00,231.00 Z
           M 51.00,231.00
           C 54.19,231.00 66.36,230.36 68.38,232.02
             70.05,233.38 69.52,235.49 67.68,236.40
             65.94,237.26 59.26,237.00 57.00,237.00
             57.00,237.00 57.00,242.00 57.00,242.00
             57.00,242.00 69.00,242.00 69.00,242.00
             68.41,249.05 66.02,248.00 57.00,248.00
             57.00,248.00 57.00,254.00 57.00,254.00
             57.00,254.00 70.00,254.00 70.00,254.00
             70.00,254.00 70.00,260.00 70.00,260.00
             70.00,260.00 51.00,260.00 51.00,260.00
             51.00,260.00 51.00,231.00 51.00,231.00 Z
           M 96.00,260.00
           C 96.00,260.00 96.00,240.00 96.00,240.00
             96.01,237.28 95.62,229.63 100.70,231.66
             103.31,232.69 103.03,236.71 102.98,239.00
             102.98,239.00 101.00,261.00 101.00,261.00
             101.00,261.00 96.00,260.00 96.00,260.00 Z
           M 105.98,231.00
           C 114.80,231.31 112.70,233.88 120.16,247.00
             120.16,247.00 120.16,234.15 120.16,234.15
             121.26,230.94 124.20,230.88 125.40,233.32
             126.13,234.78 126.00,238.30 126.00,240.00
             126.00,240.00 126.00,261.00 126.00,261.00
             126.00,261.00 121.21,259.98 121.21,259.98
             121.21,259.98 111.00,243.00 111.00,243.00
             111.00,245.98 111.83,258.42 109.42,259.83
             106.47,261.56 105.20,256.97 105.07,255.00
             105.07,255.00 105.98,245.00 105.98,245.00
             105.98,245.00 105.98,231.00 105.98,231.00 Z
           M 129.00,238.00
           C 126.72,228.98 134.46,230.96 141.00,231.00
             143.31,231.02 147.29,230.66 148.34,233.30
             150.23,238.03 143.69,237.97 141.00,238.00
             141.00,238.00 141.00,261.00 141.00,261.00
             141.00,261.00 135.00,261.00 135.00,261.00
             135.00,261.00 134.00,237.00 134.00,237.00
             134.00,237.00 129.00,238.00 129.00,238.00 Z
           M 157.00,231.74
           C 176.67,227.04 176.74,255.34 165.96,260.35
             159.30,263.44 152.02,259.82 149.70,253.00
             147.00,245.05 149.55,235.72 157.00,231.74 Z
           M 33.00,243.00
           C 43.16,242.87 43.16,237.13 33.00,237.00
             33.00,237.00 33.00,243.00 33.00,243.00 Z
           M 160.04,237.74
           C 151.39,242.24 154.87,255.96 161.91,254.63
             167.80,253.52 170.04,238.13 160.04,237.74 Z
           M 7.00,274.00
           C 7.00,274.00 26.00,274.00 26.00,274.00
             26.00,274.00 26.00,280.00 26.00,280.00
             26.00,280.00 13.00,280.00 13.00,280.00
             13.00,280.00 13.00,285.00 13.00,285.00
             13.00,285.00 25.00,285.00 25.00,285.00
             24.41,292.05 22.02,291.00 13.00,291.00
             13.00,291.00 13.00,297.00 13.00,297.00
             13.00,297.00 26.00,297.00 26.00,297.00
             26.00,297.00 26.00,303.00 26.00,303.00
             26.00,303.00 7.00,303.00 7.00,303.00
             7.00,303.00 7.00,274.00 7.00,274.00 Z
           M 29.00,274.00
           C 29.00,274.00 35.00,274.00 35.00,274.00
             35.00,274.00 35.00,297.00 35.00,297.00
             44.02,297.00 46.41,295.95 47.00,303.00
             47.00,303.00 29.00,303.00 29.00,303.00
             29.00,303.00 29.00,274.00 29.00,274.00 Z
           M 49.00,274.00
           C 49.00,274.00 68.00,274.00 68.00,274.00
             68.00,274.00 68.00,280.00 68.00,280.00
             68.00,280.00 55.00,280.00 55.00,280.00
             55.00,280.00 55.00,285.00 55.00,285.00
             55.00,285.00 67.00,285.00 67.00,285.00
             66.41,292.05 64.02,291.00 55.00,291.00
             55.00,291.00 56.00,298.00 56.00,298.00
             58.10,297.62 70.61,296.39 67.83,301.74
             65.95,305.36 53.90,303.65 50.00,304.00
             50.00,304.00 49.00,274.00 49.00,274.00 Z
           M 69.00,280.00
           C 69.18,277.84 69.04,275.72 71.31,274.60
             73.10,273.72 80.63,273.99 83.00,274.00
             83.00,274.00 103.00,274.00 103.00,274.00
             105.31,274.02 109.29,273.66 110.34,276.30
             112.21,280.98 106.57,280.54 104.00,280.00
             104.00,280.00 103.00,304.00 103.00,304.00
             103.00,304.00 98.02,302.40 98.02,302.40
             98.02,302.40 97.00,295.00 97.00,295.00
             97.00,295.00 97.00,280.00 97.00,280.00
             93.27,279.94 85.34,278.82 83.02,282.31
             81.44,284.69 82.06,293.76 82.00,297.00
             81.96,298.80 82.09,301.75 80.42,302.92
             77.50,304.97 76.25,301.13 76.03,298.98
             76.03,298.98 76.03,280.00 76.03,280.00
             76.03,280.00 69.00,280.00 69.00,280.00 Z
           M 118.00,304.00
           C 116.23,303.85 114.26,303.96 113.02,302.40
             111.96,301.06 112.03,298.63 112.00,297.00
             111.93,293.22 111.30,277.96 113.17,275.57
             114.37,274.06 116.26,274.08 118.02,274.02
             128.96,273.59 138.25,278.32 130.00,290.00
             134.01,294.36 133.00,298.40 133.00,304.00
             122.47,303.66 128.55,298.73 124.40,294.60
             122.73,292.93 120.17,293.08 118.00,293.00
             118.00,293.00 118.00,304.00 118.00,304.00 Z
           M 136.00,304.00
           C 136.00,304.00 136.00,281.00 136.00,281.00
             136.04,278.92 135.92,274.63 139.00,274.63
             142.56,274.63 142.00,280.70 142.00,283.00
             142.00,283.00 142.00,304.00 142.00,304.00
             142.00,304.00 136.00,304.00 136.00,304.00 Z
           M 167.00,294.01
           C 164.71,302.80 155.76,308.98 148.39,301.61
             145.25,298.47 144.19,292.29 144.52,288.00
             144.83,283.83 145.92,279.27 149.21,276.43
             155.03,271.41 165.11,273.63 167.00,285.00
             157.91,284.68 158.36,279.50 154.22,281.88
             149.60,284.55 150.07,295.90 155.14,297.26
             157.94,298.00 159.48,295.01 161.37,294.01
             163.57,292.87 164.82,293.45 167.00,294.01 Z
           M 177.00,274.57
           C 198.89,270.81 196.17,307.16 179.00,304.76
             166.09,302.96 163.38,280.02 177.00,274.57 Z
           M 120.31,280.64
           C 115.56,284.56 120.75,288.20 124.70,286.26
             127.94,284.67 126.61,279.86 120.31,280.64 Z
           M 180.07,280.66
           C 175.12,282.44 174.72,286.14 175.05,291.00
             175.29,294.50 177.29,299.65 181.80,298.16
             186.73,296.52 188.92,281.89 180.07,280.66 Z" />
</svg>
