<?xml version="1.0" encoding="UTF-8" standalone="no"?>
<!DOCTYPE svg PUBLIC "-//W3C//DTD SVG 20010904//EN"
              "http://www.w3.org/TR/2001/REC-SVG-20010904/DTD/svg10.dtd">

<svg xmlns="http://www.w3.org/2000/svg"
     width="1.07333in" height="1.07333in"
     viewBox="0 0 322 322">
  <path id="litter"
        fill="#2c4522" stroke="none" stroke-width="1"
        d="M 274.00,154.00
           C 274.00,154.00 235.00,144.15 235.00,144.15
             235.00,144.15 195.00,136.87 195.00,136.87
             188.89,135.94 184.19,133.68 179.01,130.38
             177.22,129.25 174.30,127.50 174.34,125.06
             174.39,121.84 178.55,121.11 181.00,121.42
             189.29,122.46 198.39,126.91 204.29,117.98
             205.72,115.81 206.36,113.53 205.52,111.00
             204.84,108.99 202.32,105.82 201.01,104.00
             198.48,100.50 195.47,96.06 191.99,93.51
             191.99,93.51 154.00,76.85 154.00,76.85
             149.57,74.96 142.28,72.69 141.58,67.02
             141.42,65.77 141.69,64.54 142.61,63.64
             145.17,61.16 151.16,64.15 154.00,65.14
             154.00,65.14 186.00,76.19 186.00,76.19
             194.35,79.35 208.98,83.14 216.00,87.47
             216.00,87.47 248.00,112.44 248.00,112.44
             253.08,115.58 258.27,115.69 264.00,116.58
             266.44,116.96 269.47,117.05 270.98,119.31
             272.36,121.39 271.92,126.36 272.17,129.00
             272.17,129.00 274.00,154.00 274.00,154.00 Z
           M 185.00,92.00
           C 185.00,92.00 149.00,89.42 149.00,89.42
             144.98,88.87 138.45,88.64 138.45,83.01
             138.45,77.70 146.44,78.96 150.00,79.00
             152.13,79.03 153.89,79.04 156.00,79.53
             159.22,80.27 182.04,90.08 185.00,92.00 Z
           M 197.00,102.04
           C 197.00,102.04 183.00,102.04 183.00,102.04
             183.00,102.04 171.00,103.00 171.00,103.00
             166.09,103.01 153.54,104.57 151.66,98.91
             149.31,91.85 163.31,92.99 167.00,93.00
             171.41,93.01 189.71,94.13 192.81,96.01
             195.29,97.51 196.00,99.47 197.00,102.04 Z
           M 203.00,111.00
           C 203.00,111.00 189.00,112.72 189.00,112.72
             189.00,112.72 181.00,113.72 181.00,113.72
             177.77,114.10 171.89,114.66 170.40,110.87
             168.70,106.57 175.01,104.83 178.00,104.32
             181.54,103.73 196.13,103.48 198.94,105.02
             201.67,106.52 202.18,108.26 203.00,111.00 Z
           M 58.00,123.51
           C 70.22,122.79 76.82,137.16 83.14,146.00
             86.83,151.16 90.52,155.24 89.89,162.00
             89.13,170.25 78.91,177.68 71.00,176.63
             63.46,175.64 59.51,167.60 55.37,162.00
             47.17,150.91 33.82,137.99 50.00,126.65
             52.74,124.73 54.84,124.21 58.00,123.51 Z
           M 55.00,141.00
           C 60.15,138.23 70.39,129.33 60.00,126.00
             60.00,126.00 55.00,141.00 55.00,141.00 Z
           M 69.00,129.00
           C 69.00,129.00 67.00,129.00 67.00,129.00
             65.13,135.35 60.42,140.97 54.00,143.15
             54.00,143.15 45.00,145.00 45.00,145.00
             56.10,150.11 67.94,140.32 69.00,129.00 Z
           M 52.00,130.00
           C 47.25,132.32 41.37,139.32 49.00,142.00
             49.00,142.00 52.00,130.00 52.00,130.00 Z
           M 71.00,132.00
           C 64.11,141.08 60.89,147.68 48.00,148.00
             50.53,153.97 56.21,160.55 60.14,166.00
             62.25,168.92 64.53,172.64 68.04,173.95
             75.27,176.66 89.41,166.32 88.40,158.00
             88.05,155.12 85.26,151.36 83.57,149.00
             83.57,149.00 71.00,132.00 71.00,132.00 Z
           M 55.00,135.00
           C 51.40,136.85 51.17,137.13 50.00,141.00
             53.41,138.93 53.64,138.76 55.00,135.00 Z
           M 104.58,144.02
           C 106.20,143.35 106.05,143.15 108.02,143.10
             121.39,142.76 110.73,160.20 113.22,167.00
             114.32,169.99 117.09,172.17 117.82,178.00
             118.46,183.14 116.94,189.82 116.08,195.00
             116.08,195.00 110.27,229.00 110.27,229.00
             109.64,233.28 107.57,249.85 105.15,252.40
             103.09,254.57 99.61,253.79 97.00,253.42
             93.18,252.88 81.01,251.69 78.60,249.27
             77.37,248.03 77.21,246.64 77.23,244.98
             77.23,244.98 79.92,229.00 79.92,229.00
             79.92,229.00 85.20,198.00 85.20,198.00
             85.20,198.00 89.48,175.00 89.48,175.00
             92.47,167.73 97.06,167.22 99.57,161.99
             102.26,156.38 100.72,148.97 104.58,144.02 Z
           M 106.31,144.64
           C 101.99,148.15 103.43,158.66 100.55,163.91
             98.02,168.52 93.62,168.95 90.99,175.00
             89.62,178.16 88.25,188.06 87.59,192.00
             87.59,192.00 81.92,225.00 81.92,225.00
             81.92,225.00 78.72,245.89 78.72,245.89
             79.54,250.98 92.63,251.39 97.00,252.01
             98.85,252.37 101.77,253.08 103.42,252.01
             105.02,250.82 105.43,247.79 105.80,246.00
             105.80,246.00 108.58,231.00 108.58,231.00
             108.58,231.00 114.41,197.00 114.41,197.00
             115.13,192.73 117.24,181.75 116.66,178.00
             115.83,172.72 112.70,170.42 111.59,167.00
             109.18,159.60 120.25,142.58 106.31,144.64 Z
           M 108.00,224.00
           C 104.05,224.00 89.28,223.09 86.59,220.83
             84.59,219.16 85.69,215.28 86.00,213.00
             86.00,213.00 88.80,196.00 88.80,196.00
             89.21,193.96 89.73,190.30 91.56,189.06
             93.78,187.56 105.05,189.93 107.98,190.63
             109.72,191.05 111.56,191.42 112.23,193.31
             112.85,195.04 111.59,200.95 111.25,203.00
             111.25,203.00 108.00,224.00 108.00,224.00 Z
           M 92.00,189.00
           C 92.00,189.00 89.00,203.00 89.00,203.00
             89.00,203.00 87.17,214.00 87.17,214.00
             86.53,221.87 91.82,221.16 98.00,222.16
             99.67,222.23 103.19,222.91 104.69,222.16
             107.02,221.39 107.19,218.13 107.61,216.00
             107.61,216.00 110.41,200.00 110.41,200.00
             110.75,197.76 111.44,194.83 109.43,193.16
             107.70,191.73 94.99,189.56 92.00,189.00 Z
           M 121.00,246.00
           C 119.85,243.82 117.09,239.27 116.91,237.00
             116.59,233.10 124.59,223.65 128.04,222.18
             130.01,221.36 134.76,221.93 137.00,222.18
             141.34,222.63 161.16,224.80 163.79,226.31
             166.59,227.93 169.66,234.07 171.40,237.00
             173.08,239.84 177.52,247.23 178.35,250.00
             178.35,250.00 180.00,276.00 180.00,276.00
             180.00,276.00 144.00,280.54 144.00,280.54
             144.00,280.54 123.00,276.00 123.00,276.00
             123.00,276.00 123.00,254.00 123.00,254.00
             123.00,254.00 125.00,241.00 125.00,241.00
             125.00,241.00 123.00,246.00 123.00,246.00
             123.00,246.00 121.00,246.00 121.00,246.00 Z
           M 132.00,225.00
           C 130.60,224.57 129.80,223.95 128.17,224.43
             125.44,225.25 119.21,233.16 118.83,236.00
             118.53,238.25 120.08,240.97 121.00,243.00
             125.64,239.06 130.16,230.82 132.00,225.00 Z
           M 135.00,223.00
           C 133.82,227.35 136.38,230.96 137.94,235.00
             141.54,244.31 143.98,247.83 144.00,258.00
             144.01,261.39 143.33,275.33 145.02,277.39
             146.67,279.39 150.74,278.30 153.00,278.00
             153.00,278.00 171.00,275.42 171.00,275.42
             173.03,275.13 176.66,275.10 178.01,273.40
             179.58,271.32 178.16,265.70 178.01,263.00
             177.41,248.99 176.74,249.04 169.60,237.00
             167.80,233.96 165.92,229.84 162.90,227.93
             158.87,225.40 141.23,224.77 135.00,223.00 Z
           M 135.00,231.00
           C 133.36,235.13 134.00,241.46 134.00,246.00
             134.00,250.76 133.31,266.59 135.02,270.00
             136.72,273.38 139.70,275.44 142.81,277.00
             142.81,277.00 142.81,251.00 142.81,251.00
             142.81,251.00 135.00,231.00 135.00,231.00 Z
           M 133.00,232.00
           C 124.41,240.08 121.87,261.98 125.00,273.00
             125.00,273.00 131.98,268.79 131.98,268.79
             131.98,268.79 133.00,257.00 133.00,257.00
             133.00,257.00 133.00,232.00 133.00,232.00 Z
           M 139.00,278.00
           C 135.78,271.28 133.31,270.65 127.00,274.00
             127.00,274.00 139.00,278.00 139.00,278.00 Z" />
  <path id="sign"
        fill="#f60000" stroke="none" stroke-width="1"
        d="M 309.00,222.00
           C 305.50,225.66 305.14,228.58 302.89,233.00
             299.39,239.88 295.54,246.74 291.00,252.99
             273.97,276.39 250.55,295.29 224.00,306.77
             215.01,310.65 200.71,314.83 191.00,316.54
             191.00,316.54 184.00,317.26 184.00,317.26
             176.52,318.49 176.12,318.99 168.00,319.00
             152.62,319.02 140.17,318.77 125.01,315.10
             96.75,308.27 68.32,292.99 48.04,272.00
             48.04,272.00 37.58,259.17 37.58,259.17
             30.46,250.33 23.83,241.28 18.82,231.00
             18.82,231.00 14.79,221.00 14.79,221.00
             8.85,206.46 6.97,198.39 4.83,183.00
             4.35,179.52 3.79,178.85 3.74,175.00
             3.74,175.00 3.00,163.00 3.00,163.00
             3.00,163.00 3.83,144.00 3.83,144.00
             6.86,116.80 16.88,89.23 33.10,67.01
             43.84,52.30 60.52,36.28 76.00,26.66
             76.00,26.66 82.72,23.29 82.72,23.29
             88.38,20.07 93.94,16.61 100.00,14.16
             100.00,14.16 118.00,8.49 118.00,8.49
             123.30,6.90 131.62,4.27 137.00,3.54
             137.00,3.54 163.00,2.04 163.00,2.04
             163.00,2.04 171.00,2.91 171.00,2.91
             181.10,3.60 188.74,3.58 198.83,6.15
             198.83,6.15 219.00,13.35 219.00,13.35
             219.00,13.35 228.00,16.44 228.00,16.44
             251.19,26.61 271.41,43.63 287.15,63.28
             309.80,91.58 320.06,127.17 320.00,163.00
             320.00,163.00 318.50,186.00 318.50,186.00
             318.50,186.00 313.10,209.00 313.10,209.00
             311.52,214.06 309.52,216.40 309.00,222.00 Z
           M 272.00,236.00
           C 272.00,236.00 281.62,218.00 281.62,218.00
             287.63,204.88 293.98,185.40 294.00,171.00
             294.02,159.99 294.44,148.92 292.80,138.00
             291.74,130.97 289.54,124.94 287.31,118.28
             280.81,98.89 270.51,80.62 255.59,66.37
             241.12,52.55 229.45,45.00 211.00,37.55
             211.00,37.55 202.00,33.78 202.00,33.78
             202.00,33.78 191.00,31.41 191.00,31.41
             184.21,29.76 179.17,28.32 172.00,28.04
             172.00,28.04 162.00,28.66 162.00,28.66
             162.00,28.66 152.00,28.04 152.00,28.04
             142.45,28.41 124.67,32.15 116.00,35.93
             102.15,41.98 103.89,39.64 90.00,48.47
             87.44,50.10 83.33,52.12 82.13,55.04
             80.13,59.88 87.15,64.56 90.12,67.50
             90.12,67.50 108.04,85.99 108.04,85.99
             108.04,85.99 120.29,98.09 120.29,98.09
             120.29,98.09 135.96,113.29 135.96,113.29
             135.96,113.29 174.12,151.42 174.12,151.42
             174.12,151.42 231.45,208.89 231.45,208.89
             231.45,208.89 254.61,232.00 254.61,232.00
             256.89,234.39 261.70,240.22 264.97,240.46
             267.71,240.67 270.03,237.65 272.00,236.00 Z
           M 102.00,125.00
           C 101.01,120.43 96.25,117.22 93.00,114.00
             93.00,114.00 69.07,90.25 69.07,90.25
             66.54,87.89 61.55,80.98 58.60,80.69
             54.31,80.26 49.80,87.87 47.92,91.00
             37.31,108.65 29.03,133.31 29.00,154.00
             29.00,154.00 29.00,168.00 29.00,168.00
             29.00,168.00 31.06,187.00 31.06,187.00
             31.06,187.00 33.99,197.00 33.99,197.00
             33.99,197.00 36.56,207.00 36.56,207.00
             36.56,207.00 39.97,214.00 39.97,214.00
             45.49,226.05 52.09,237.57 60.63,247.83
             78.21,268.95 109.81,287.06 137.00,291.56
             137.00,291.56 145.00,292.29 145.00,292.29
             145.00,292.29 158.00,293.99 158.00,293.99
             164.12,294.12 164.75,293.50 170.00,293.08
             190.60,291.44 199.01,289.28 218.00,281.03
             222.73,278.98 237.39,271.20 240.35,267.54
             244.20,262.78 237.86,258.27 234.68,255.08
             234.68,255.08 222.13,243.27 222.13,243.27
             222.13,243.27 212.00,232.86 212.00,232.86
             208.68,229.61 206.67,225.92 202.00,225.00
             198.55,217.04 182.85,204.06 176.29,197.58
             176.29,197.58 158.83,179.28 158.83,179.28
             158.83,179.28 142.88,164.34 142.88,164.34
             137.50,158.83 132.83,152.53 126.80,147.66
             122.16,143.91 118.08,139.53 114.09,135.07
             111.07,131.69 109.65,128.88 105.00,128.00
             105.00,128.00 102.00,125.00 102.00,125.00 Z" />
</svg>
