<?xml version="1.0" encoding="UTF-8" standalone="no"?>
<!DOCTYPE svg PUBLIC "-//W3C//DTD SVG 20010904//EN"
              "http://www.w3.org/TR/2001/REC-SVG-20010904/DTD/svg10.dtd">

<svg xmlns="http://www.w3.org/2000/svg"
     width="1.01111in" height="0.911111in"
     viewBox="0 0 91 82">
  <path id="PetaloCentroLight"
        fill="white" stroke="white" stroke-width="1"
        d="M 42.62,34.03
           C 54.33,30.16 55.98,45.94 47.25,47.79
             40.39,49.24 34.94,40.04 42.62,34.03 Z
           M 29.46,10.52
           C 33.42,14.00 36.94,19.22 36.95,24.62
             33.17,21.27 29.50,15.66 29.46,10.52 Z
           M 60.36,12.40
           C 62.43,17.00 57.14,22.71 53.81,25.55
             53.97,20.52 57.39,16.30 60.36,12.40 Z
           M 11.67,40.59
           C 16.37,39.24 24.47,38.53 28.52,41.53
             23.82,42.87 15.72,43.59 11.67,40.59 Z
           M 63.17,40.59
           C 67.87,39.24 75.97,38.53 80.03,41.53
             75.33,42.87 67.23,43.59 63.17,40.59 Z
           M 36.01,55.62
           C 38.18,60.21 32.01,69.45 28.52,72.53
             28.53,67.09 32.89,60.02 36.01,55.62 Z
           M 54.74,56.56
           C 58.78,60.13 63.16,67.06 63.17,72.53
             59.13,68.96 54.75,62.04 54.74,56.56 Z
           M 24.04,2.07
           C 21.10,6.32 20.83,20.49 24.04,24.41
             26.56,27.06 34.41,30.20 37.89,31.19
             37.89,31.19 36.01,37.77 36.01,37.77
             31.86,35.64 24.29,29.76 20.09,29.69
             15.11,29.60 7.72,36.79 3.24,39.65
             5.90,44.82 15.73,52.89 21.97,51.47
             26.10,50.53 31.30,46.15 36.01,44.35
             36.01,44.35 37.89,49.98 37.89,49.98
             34.43,51.46 26.57,54.41 24.24,56.93
             20.76,60.69 21.55,74.31 22.90,79.11
             28.22,77.86 38.88,74.70 41.47,69.70
             43.14,66.46 42.57,56.82 42.57,52.80
             42.57,52.80 49.12,52.80 49.12,52.80
             49.12,56.82 48.55,66.46 50.22,69.70
             52.81,74.70 63.47,77.86 68.79,79.11
             70.01,74.10 71.06,60.83 67.45,56.93
             65.30,54.60 56.47,51.09 52.87,49.04
             55.40,47.27 55.48,47.45 55.68,44.35
             55.68,44.35 68.79,51.25 68.79,51.25
             75.58,53.26 85.54,45.30 88.45,39.65
             84.36,37.05 76.70,29.94 72.54,29.62
             68.21,29.29 59.88,35.50 55.68,37.77
             55.79,34.24 55.68,34.23 52.87,32.13
             57.05,30.33 66.52,26.59 68.63,22.69
             70.13,19.90 69.78,12.93 69.73,9.58
             69.69,7.90 69.82,5.11 68.23,4.05
             65.50,2.24 53.51,7.50 51.47,9.84
             48.17,13.65 49.12,23.35 49.12,28.37
             49.12,28.37 42.57,28.37 42.57,28.37
             42.57,23.35 43.52,13.65 40.22,9.84
             37.55,6.75 28.20,4.31 24.04,2.07 Z" />
  <path id="PetaloInternoDark"
        fill="#ede0cb" stroke="#ede0cb" stroke-width="1"
        d="M 29.46,10.52
           C 33.42,14.00 36.94,19.22 36.95,24.62
             33.17,21.27 29.50,15.66 29.46,10.52 Z
           M 60.36,12.40
           C 62.43,17.00 57.14,22.71 53.81,25.55
             53.97,20.52 57.39,16.30 60.36,12.40 Z
           M 11.67,40.59
           C 16.37,39.24 24.47,38.53 28.52,41.53
             23.82,42.87 15.72,43.59 11.67,40.59 Z
           M 63.17,40.59
           C 67.87,39.24 75.97,38.53 80.03,41.53
             75.33,42.87 67.23,43.59 63.17,40.59 Z
           M 36.01,55.62
           C 38.18,60.21 32.01,69.45 28.52,72.53
             28.53,67.09 32.89,60.02 36.01,55.62 Z
           M 54.74,56.56
           C 58.78,60.13 63.16,67.06 63.17,72.53
             59.13,68.96 54.75,62.04 54.74,56.56 Z" />
  <path id="PetaloExt"
        fill="#968c35" stroke="#968c35" stroke-width="1"
        d="M 21.03,1.13
           C 26.43,1.61 39.80,5.64 42.41,10.56
             43.36,12.34 44.22,23.68 44.44,26.49
             44.44,26.49 47.25,26.49 47.25,26.49
             47.48,23.68 48.34,12.34 49.28,10.56
             51.98,5.48 65.12,1.62 70.66,1.13
             70.66,1.13 70.66,9.58 70.66,9.58
             70.74,15.39 72.77,20.42 68.40,25.36
             65.91,28.18 60.13,30.62 56.62,32.13
             56.62,32.13 57.55,34.95 57.55,34.95
             61.19,33.17 66.27,29.47 69.73,28.74
             76.98,27.21 84.81,35.58 90.33,39.65
             87.76,44.84 76.84,54.10 70.66,53.16
             67.00,52.60 60.76,48.33 57.55,46.23
             57.55,46.23 56.62,49.98 56.62,49.98
             60.46,51.34 66.53,53.49 69.07,56.76
             72.63,61.33 70.92,65.57 70.68,70.65
             70.68,70.65 70.68,80.99 70.68,80.99
             64.86,79.94 52.08,76.04 49.28,70.64
             48.26,68.65 47.38,57.50 47.25,54.68
             47.25,54.68 45.38,55.62 45.38,55.62
             45.38,55.62 44.44,54.68 44.44,54.68
             44.31,57.50 43.43,68.65 42.41,70.64
             39.61,76.04 26.84,79.94 21.03,80.99
             21.03,75.96 19.74,62.07 21.56,58.52
             23.82,54.16 30.55,51.28 35.08,49.98
             35.08,49.98 34.14,46.23 34.14,46.23
             30.93,48.33 24.69,52.60 21.03,53.16
             14.85,54.10 3.93,44.84 1.36,39.65
             6.52,35.85 14.36,27.75 21.03,28.59
             24.91,29.07 30.49,32.99 34.14,34.95
             34.14,34.95 35.08,32.13 35.08,32.13
             31.20,30.46 25.01,27.90 22.49,24.52
             19.38,20.35 21.03,6.98 21.03,1.13 Z
           M 24.04,2.07
           C 21.10,6.32 20.83,20.49 24.04,24.41
             26.56,27.06 34.41,30.20 37.89,31.19
             37.89,31.19 36.01,37.77 36.01,37.77
             31.86,35.64 24.29,29.76 20.09,29.69
             15.11,29.60 7.72,36.79 3.24,39.65
             5.90,44.82 15.73,52.89 21.97,51.47
             26.10,50.53 31.30,46.15 36.01,44.35
             36.01,44.35 37.89,49.98 37.89,49.98
             34.43,51.46 26.57,54.41 24.24,56.93
             20.76,60.69 21.55,74.31 22.90,79.11
             28.22,77.86 38.88,74.70 41.47,69.70
             43.14,66.46 42.57,56.82 42.57,52.80
             42.57,52.80 49.12,52.80 49.12,52.80
             49.12,56.82 48.55,66.46 50.22,69.70
             52.81,74.70 63.47,77.86 68.79,79.11
             70.01,74.10 71.06,60.83 67.45,56.93
             65.30,54.60 56.47,51.09 52.87,49.04
             55.40,47.27 55.48,47.45 55.68,44.35
             55.68,44.35 68.79,51.25 68.79,51.25
             75.58,53.26 85.54,45.30 88.45,39.65
             84.36,37.05 76.70,29.94 72.54,29.62
             68.21,29.29 59.88,35.50 55.68,37.77
             55.79,34.24 55.68,34.23 52.87,32.13
             57.05,30.33 66.52,26.59 68.63,22.69
             70.13,19.90 69.78,12.93 69.73,9.58
             69.69,7.90 69.82,5.11 68.23,4.05
             65.50,2.24 53.51,7.50 51.47,9.84
             48.17,13.65 49.12,23.35 49.12,28.37
             49.12,28.37 42.57,28.37 42.57,28.37
             42.57,23.35 43.52,13.65 40.22,9.84
             37.55,6.75 28.20,4.31 24.04,2.07 Z" />
  <path id="PetaloCentro"
        fill="#fee980" stroke="#ff7600" stroke-width="4"
        d="M 42.62,34.03
           C 54.33,30.16 55.98,45.94 47.25,47.79
             40.39,49.24 34.94,40.04 42.62,34.03 Z" />
</svg>
