<?xml version="1.0" encoding="UTF-8" standalone="no"?>
<!DOCTYPE svg PUBLIC "-//W3C//DTD SVG 20010904//EN"
              "http://www.w3.org/TR/2001/REC-SVG-20010904/DTD/svg10.dtd">

<svg xmlns="http://www.w3.org/2000/svg"
     width="1.04in" height="0.82in"
     viewBox="0 0 312 246">
  <path id="Selection"
        fill="none" stroke="black" stroke-width="0"
        d="M 145.00,19.53
           C 159.67,17.46 165.44,30.54 171.43,41.00
             171.43,41.00 180.91,57.00 180.91,57.00
             180.91,57.00 249.57,176.00 249.57,176.00
             256.42,187.97 262.33,205.55 244.00,210.83
             239.84,212.03 237.23,211.99 233.00,212.00
             233.00,212.00 60.00,212.00 60.00,212.00
             55.53,211.99 52.15,212.12 48.01,210.00
             38.85,205.29 38.30,193.58 41.88,185.00
             41.88,185.00 65.13,144.00 65.13,144.00
             65.13,144.00 113.13,61.00 113.13,61.00
             113.13,61.00 124.57,41.00 124.57,41.00
             130.23,31.11 132.85,23.14 145.00,19.53 Z
           M 153.00,82.43
           C 139.60,87.84 147.15,106.47 159.00,103.42
             167.68,101.18 170.64,90.44 163.78,84.43
             160.59,81.64 156.89,81.85 153.00,82.43 Z
           M 184.00,166.00
           C 180.17,164.13 173.30,160.19 170.93,156.70
             169.51,154.61 168.32,149.59 167.58,147.00
             167.58,147.00 162.01,126.00 162.01,126.00
             161.29,122.70 160.45,116.79 158.86,114.04
             155.47,108.15 137.92,103.48 131.00,100.58
             128.43,99.50 122.54,96.65 120.02,96.60
             117.28,96.55 115.78,97.94 114.36,100.11
             113.26,101.80 106.75,118.08 106.40,120.00
             104.54,130.25 113.55,125.96 119.81,131.76
             120.86,132.73 121.65,133.60 121.76,135.09
             121.95,137.65 117.27,144.55 115.80,147.00
             115.80,147.00 99.77,175.00 99.77,175.00
             97.71,178.78 91.97,186.46 95.60,190.49
             100.11,195.49 104.61,189.69 106.86,186.00
             106.86,186.00 119.01,165.00 119.01,165.00
             120.20,162.99 122.93,157.90 125.14,157.20
             128.66,156.08 134.14,165.09 134.62,168.00
             135.47,173.17 128.13,181.49 127.52,186.00
             127.01,189.81 130.03,193.17 133.90,192.46
             136.98,191.90 138.57,188.44 140.00,186.00
             143.39,180.20 150.92,170.72 147.35,164.00
             145.21,159.97 134.83,149.96 140.33,147.01
             142.98,145.60 147.84,149.55 150.00,151.00
             159.00,157.04 158.67,160.00 162.10,161.75
             162.10,161.75 168.00,163.24 168.00,163.24
             170.26,164.04 177.05,168.05 177.97,170.21
             179.09,172.83 176.34,175.28 175.00,180.00
             181.40,182.55 187.97,184.99 195.00,184.32
             197.57,184.08 200.95,183.75 201.67,180.77
             203.45,173.34 194.40,162.03 188.00,159.00
             188.00,159.00 184.00,166.00 184.00,166.00 Z
           M 117.00,124.00
           C 117.71,121.35 120.58,112.43 122.70,111.04
             125.50,109.18 133.25,112.50 133.27,116.11
             133.29,118.43 128.35,126.44 127.00,129.00
             127.00,129.00 117.00,124.00 117.00,124.00 Z
           M 150.00,128.00
           C 150.00,128.00 156.00,147.00 156.00,147.00
             152.62,146.29 144.46,143.03 144.30,138.90
             144.21,136.67 148.67,130.21 150.00,128.00 Z" />
</svg>
