<?xml version="1.0" encoding="UTF-8" standalone="no"?>
<svg xmlns="http://www.w3.org/2000/svg"
     version="1.1"
     width="3.66333in" height="2.17333in"
     viewBox="0 0 1099 652">
  <path id="path1"
        fill="black" stroke="black" stroke-width="1"
        d="M 449.00,38.00
           C 445.87,51.19 437.00,56.12 424.00,55.12
             419.24,54.75 416.01,54.11 412.04,51.20
             405.06,46.08 401.68,34.38 402.32,26.00
             402.91,18.35 404.94,10.64 411.09,5.53
             423.27,-4.57 442.99,-0.71 448.00,15.00
             448.00,15.00 442.00,17.00 442.00,17.00
             440.30,14.18 438.43,10.70 435.82,8.65
             427.83,2.38 416.75,7.12 412.01,15.00
             408.16,21.39 408.32,32.23 411.13,39.00
             417.27,53.76 437.02,53.90 442.00,37.00
             442.00,37.00 449.00,38.00 449.00,38.00 Z
           M 562.00,1.00
           C 562.00,1.00 568.00,1.00 568.00,1.00
             568.00,1.00 568.00,8.00 568.00,8.00
             568.00,8.00 562.00,8.00 562.00,8.00
             562.00,8.00 562.00,1.00 562.00,1.00 Z
           M 579.00,1.00
           C 579.00,1.00 585.00,1.00 585.00,1.00
             585.00,1.00 585.00,55.00 585.00,55.00
             585.00,55.00 579.00,55.00 579.00,55.00
             579.00,55.00 579.00,1.00 579.00,1.00 Z
           M 825.00,1.00
           C 825.00,1.00 831.00,1.00 831.00,1.00
             831.00,1.00 831.00,8.00 831.00,8.00
             831.00,8.00 825.00,8.00 825.00,8.00
             825.00,8.00 825.00,1.00 825.00,1.00 Z
           M 884.00,1.00
           C 889.93,1.49 889.56,2.57 890.00,8.00
             890.00,8.00 884.00,8.00 884.00,8.00
             884.00,8.00 884.00,1.00 884.00,1.00 Z
           M 988.00,1.00
           C 994.22,1.52 993.96,3.23 994.00,9.00
             994.00,9.00 994.00,55.00 994.00,55.00
             994.00,55.00 988.00,55.00 988.00,55.00
             988.00,55.00 988.00,50.00 988.00,50.00
             985.70,52.03 984.01,53.72 981.00,54.54
             978.19,55.61 974.76,55.34 972.00,54.54
             954.63,48.39 957.69,12.99 978.00,15.25
             981.67,15.66 984.91,18.12 988.00,20.00
             988.00,20.00 988.00,1.00 988.00,1.00 Z
           M 1005.00,1.00
           C 1005.00,1.00 1011.00,1.00 1011.00,1.00
             1011.00,1.00 1011.00,8.00 1011.00,8.00
             1011.00,8.00 1005.00,8.00 1005.00,8.00
             1005.00,8.00 1005.00,1.00 1005.00,1.00 Z
           M 706.00,3.00
           C 706.00,3.00 707.00,16.00 707.00,16.00
             707.00,16.00 714.00,16.00 714.00,16.00
             713.14,20.94 711.57,20.34 707.00,20.00
             707.00,20.00 707.00,39.00 707.00,39.00
             707.00,41.26 706.80,44.82 708.02,46.76
             709.59,49.25 711.45,49.08 714.00,49.00
             714.00,49.00 714.00,55.00 714.00,55.00
             710.38,54.99 706.22,55.36 703.43,52.57
             700.64,49.78 701.01,45.62 701.00,42.00
             701.00,42.00 701.00,20.00 701.00,20.00
             701.00,20.00 696.00,21.00 696.00,21.00
             696.00,21.00 696.00,16.00 696.00,16.00
             696.00,16.00 701.00,16.00 701.00,16.00
             701.00,8.95 699.85,7.18 706.00,3.00 Z
           M 415.00,9.00
           C 415.00,9.00 414.00,9.00 414.00,9.00
             414.00,9.00 415.00,10.00 415.00,10.00
             415.00,10.00 415.00,9.00 415.00,9.00 Z
           M 470.00,15.47
           C 477.18,14.53 483.94,16.64 488.01,23.02
             493.59,31.76 492.54,52.05 478.00,54.67
             473.66,55.46 466.95,55.24 463.17,52.77
             453.14,46.23 449.68,20.43 470.00,15.47 Z
           M 505.00,21.00
           C 508.54,17.86 511.08,15.69 516.00,15.20
             520.82,14.71 526.35,16.53 528.69,21.04
             530.07,23.72 529.99,27.06 530.00,30.00
             530.00,30.00 530.00,55.00 530.00,55.00
             530.00,55.00 525.00,55.00 525.00,55.00
             525.00,55.00 525.00,36.00 525.00,36.00
             524.95,32.30 524.68,27.17 522.42,24.11
             518.06,18.20 510.40,20.09 507.17,26.04
             503.67,32.49 505.59,49.17 505.15,51.87
             504.63,54.99 502.59,54.79 500.00,55.00
             500.00,55.00 500.00,16.00 500.00,16.00
             500.00,16.00 505.00,16.00 505.00,16.00
             505.00,16.00 505.00,21.00 505.00,21.00 Z
           M 622.00,21.00
           C 625.21,18.02 627.42,15.71 632.00,15.20
             655.11,12.61 656.24,57.52 631.00,54.89
             627.14,54.49 625.22,52.93 622.00,51.00
             622.00,51.00 622.00,70.00 622.00,70.00
             622.00,70.00 616.00,70.00 616.00,70.00
             616.00,70.00 616.00,16.00 616.00,16.00
             616.00,16.00 622.00,16.00 622.00,16.00
             622.00,16.00 622.00,21.00 622.00,21.00 Z
           M 657.00,27.00
           C 658.22,23.59 659.12,20.86 662.11,18.51
             668.22,13.68 683.66,13.28 687.69,21.04
             689.18,23.92 689.00,27.83 689.00,31.00
             689.02,40.76 688.22,45.38 691.00,55.00
             686.21,54.83 684.88,55.03 684.00,50.00
             677.38,53.50 671.88,56.87 664.00,54.68
             655.80,52.41 653.52,43.01 659.23,37.22
             663.80,32.58 676.52,31.53 683.00,31.00
             682.94,29.33 683.01,27.60 682.40,26.02
             680.39,20.72 673.93,18.70 669.01,21.17
             666.06,22.66 664.49,25.34 661.83,26.40
             660.30,27.02 658.62,26.94 657.00,27.00 Z
           M 726.00,21.00
           C 732.07,15.90 732.91,13.66 741.00,17.00
             737.89,25.35 733.54,18.64 729.09,25.21
             725.80,30.06 727.00,48.44 727.00,55.00
             727.00,55.00 721.00,55.00 721.00,55.00
             721.00,55.00 721.00,16.00 721.00,16.00
             721.00,16.00 726.00,16.00 726.00,16.00
             726.00,16.00 726.00,21.00 726.00,21.00 Z
           M 758.00,15.47
           C 763.84,14.70 769.51,15.72 773.79,20.13
             782.05,28.66 782.19,51.89 765.00,54.95
             741.90,59.06 738.96,30.21 748.39,20.33
             751.22,17.36 754.16,16.40 758.00,15.47 Z
           M 819.00,42.00
           C 817.59,46.02 816.45,49.64 812.90,52.35
             809.78,54.73 806.76,54.99 803.00,54.99
             791.43,55.01 786.13,48.09 786.00,37.00
             785.93,30.83 786.34,23.92 791.22,19.39
             798.77,12.39 814.45,13.33 818.00,27.00
             818.00,27.00 812.00,28.00 812.00,28.00
             806.33,13.86 792.63,20.61 792.04,34.00
             791.37,49.18 802.53,54.70 809.73,46.87
             811.47,44.97 812.06,43.31 813.00,41.00
             813.00,41.00 819.00,42.00 819.00,42.00 Z
           M 848.00,22.00
           C 852.58,13.22 866.30,12.89 871.02,21.04
             872.99,24.45 872.99,30.13 873.00,34.00
             873.00,34.00 873.00,55.00 873.00,55.00
             873.00,55.00 867.00,55.00 867.00,55.00
             867.00,55.00 867.00,33.00 867.00,33.00
             866.80,18.52 854.39,17.38 849.57,26.04
             846.88,30.87 848.00,48.64 848.00,55.00
             848.00,55.00 842.00,55.00 842.00,55.00
             842.00,55.00 842.00,16.00 842.00,16.00
             842.00,16.00 847.00,16.00 847.00,16.00
             847.00,16.00 848.00,22.00 848.00,22.00 Z
           M 912.00,15.53
           C 918.31,14.55 925.11,16.19 929.44,21.21
             935.54,28.26 934.98,44.92 927.79,51.07
             923.36,54.86 919.55,55.14 914.00,54.98
             901.50,54.64 897.75,44.94 898.01,34.00
             898.14,28.83 899.44,23.98 903.21,20.21
             905.88,17.54 908.50,16.57 912.00,15.53 Z
           M 562.00,16.00
           C 562.00,16.00 568.00,16.00 568.00,16.00
             568.00,16.00 568.00,55.00 568.00,55.00
             562.44,54.54 562.11,53.48 562.00,48.00
             562.00,48.00 562.00,16.00 562.00,16.00 Z
           M 825.00,16.00
           C 825.00,16.00 831.00,16.00 831.00,16.00
             831.00,16.00 831.00,55.00 831.00,55.00
             831.00,55.00 825.00,55.00 825.00,55.00
             825.00,55.00 825.00,16.00 825.00,16.00 Z
           M 884.00,16.00
           C 884.00,16.00 890.00,16.00 890.00,16.00
             890.00,16.00 890.00,42.00 890.00,42.00
             889.99,48.33 891.63,54.39 884.00,55.00
             884.00,55.00 884.00,16.00 884.00,16.00 Z
           M 1005.00,16.00
           C 1005.00,16.00 1011.00,16.00 1011.00,16.00
             1011.00,16.00 1011.00,55.00 1011.00,55.00
             1011.00,55.00 1005.00,55.00 1005.00,55.00
             1005.00,55.00 1005.00,16.00 1005.00,16.00 Z
           M 471.00,20.35
           C 455.75,24.81 459.41,53.39 475.00,50.57
             489.13,48.01 489.31,18.66 471.00,20.35 Z
           M 630.01,20.51
           C 618.20,25.71 619.18,48.52 631.00,50.57
             646.86,53.31 649.08,17.58 630.01,20.51 Z
           M 759.00,20.35
           C 756.53,21.07 755.30,21.31 753.39,23.28
             746.77,30.10 748.20,52.99 763.00,50.48
             777.20,48.07 777.27,18.66 759.00,20.35 Z
           M 913.00,20.43
           C 905.38,23.45 903.70,29.37 904.04,37.00
             904.39,45.01 910.16,53.03 919.00,50.35
             931.16,46.65 931.65,18.01 913.00,20.43 Z
           M 975.00,20.44
           C 966.58,23.79 965.59,34.03 967.53,42.00
             968.92,47.71 973.93,51.99 980.00,50.42
             987.88,48.36 988.08,40.59 988.00,34.00
             987.88,25.39 984.50,19.43 975.00,20.44 Z
           M 509.00,21.00
           C 509.00,21.00 508.00,21.00 508.00,21.00
             508.00,21.00 509.00,22.00 509.00,22.00
             509.00,22.00 509.00,21.00 509.00,21.00 Z
           M 687.00,21.00
           C 687.00,21.00 686.00,21.00 686.00,21.00
             686.00,21.00 687.00,22.00 687.00,22.00
             687.00,22.00 687.00,21.00 687.00,21.00 Z
           M 683.00,35.00
           C 683.00,35.00 673.00,37.20 673.00,37.20
             671.38,37.53 668.47,38.05 667.04,38.70
             662.45,40.79 661.01,45.92 665.28,49.26
             670.08,53.03 679.04,50.06 681.69,44.96
             683.18,42.07 682.99,38.18 683.00,35.00 Z" />
  <path id="path2"
        fill="#22513d" stroke="#22513d" stroke-width="1"
        d="M 608.00,391.00
           C 608.00,391.00 618.80,363.00 618.80,363.00
             618.80,363.00 637.80,315.00 637.80,315.00
             637.80,315.00 691.80,178.00 691.80,178.00
             691.80,178.00 708.80,135.00 708.80,135.00
             710.05,131.82 715.48,117.27 717.07,115.57
             719.06,113.44 724.23,113.95 727.00,114.00
             728.85,114.04 730.99,113.98 732.61,115.02
             735.07,116.61 738.72,125.95 739.99,129.00
             739.99,129.00 760.72,178.00 760.72,178.00
             760.72,178.00 819.42,316.00 819.42,316.00
             819.42,316.00 839.85,364.00 839.85,364.00
             839.85,364.00 851.00,391.00 851.00,391.00
             851.00,391.00 825.00,391.00 825.00,391.00
             823.26,391.00 819.91,391.14 818.39,390.43
             815.04,388.86 811.86,378.60 810.40,375.00
             810.40,375.00 792.80,332.00 792.80,332.00
             792.80,332.00 781.42,304.00 781.42,304.00
             780.19,301.07 777.62,293.44 775.50,291.60
             773.29,289.67 769.76,290.01 767.00,290.00
             767.00,290.00 707.00,290.00 707.00,290.00
             698.73,290.00 682.27,290.77 675.00,289.00
             675.00,289.00 661.31,327.00 661.31,327.00
             661.31,327.00 647.00,367.00 647.00,367.00
             647.00,367.00 641.33,383.00 641.33,383.00
             641.33,383.00 637.58,389.98 637.58,389.98
             637.58,389.98 630.00,391.00 630.00,391.00
             630.00,391.00 608.00,391.00 608.00,391.00 Z
           M 490.00,115.00
           C 490.00,115.00 631.00,115.00 631.00,115.00
             631.00,118.18 631.85,128.04 629.40,129.98
             627.81,131.23 623.99,131.00 622.00,131.00
             622.00,131.00 523.00,131.00 523.00,131.00
             523.00,131.00 523.00,155.00 523.00,155.00
             523.00,155.00 523.00,203.00 523.00,203.00
             523.00,203.00 522.00,236.00 522.00,236.00
             522.00,236.00 554.00,237.00 554.00,237.00
             554.00,237.00 614.00,237.00 614.00,237.00
             614.00,237.00 614.00,252.00 614.00,252.00
             614.00,252.00 554.00,252.00 554.00,252.00
             554.00,252.00 522.00,253.00 522.00,253.00
             522.00,253.00 523.00,288.00 523.00,288.00
             523.00,288.00 523.00,360.00 523.00,360.00
             523.00,360.00 523.00,378.00 523.00,378.00
             523.00,378.00 521.93,389.44 521.93,389.44
             521.93,389.44 514.00,391.00 514.00,391.00
             514.00,391.00 490.00,391.00 490.00,391.00
             490.00,391.00 490.00,115.00 490.00,115.00 Z
           M 886.00,115.00
           C 886.00,115.00 919.00,115.00 919.00,115.00
             919.00,115.00 919.00,391.00 919.00,391.00
             919.00,391.00 886.00,391.00 886.00,391.00
             886.00,391.00 886.00,115.00 886.00,115.00 Z
           M 722.00,161.00
           C 719.02,165.58 714.16,180.06 711.95,186.00
             711.95,186.00 693.95,234.00 693.95,234.00
             690.72,242.64 680.68,266.46 680.00,274.00
             680.00,274.00 739.00,274.00 739.00,274.00
             739.00,274.00 769.00,273.00 769.00,273.00
             769.00,273.00 739.00,200.00 739.00,200.00
             739.00,200.00 722.00,161.00 722.00,161.00 Z" />
  <path id="path3"
        fill="#ed5a0f" stroke="#ed5a0f" stroke-width="1"
        d="M 213.00,74.92
           C 222.30,73.52 232.93,82.70 241.00,87.08
             241.00,87.08 272.00,105.54 272.00,105.54
             272.00,105.54 314.00,130.13 314.00,130.13
             323.05,135.29 339.59,142.04 337.44,155.00
             335.84,164.69 328.57,167.79 321.00,172.31
             321.00,172.31 296.58,187.75 296.58,187.75
             288.55,193.54 282.92,202.07 287.67,212.00
             293.08,223.31 303.07,225.72 314.00,221.13
             314.00,221.13 344.00,205.26 344.00,205.26
             350.06,202.31 355.23,199.75 362.00,202.11
             374.96,206.61 372.99,220.93 373.00,232.00
             373.00,232.00 373.00,298.00 373.00,298.00
             373.00,298.00 373.54,309.00 373.54,309.00
             373.54,309.00 373.54,330.00 373.54,330.00
             372.90,335.59 375.88,343.01 369.75,349.92
             367.39,352.59 360.35,356.13 357.00,358.01
             357.00,358.01 333.00,371.48 333.00,371.48
             333.00,371.48 304.00,388.15 304.00,388.15
             304.00,388.15 285.00,398.61 285.00,398.61
             285.00,398.61 258.00,413.79 258.00,413.79
             244.49,419.05 235.16,409.15 235.00,396.00
             235.00,396.00 234.00,365.00 234.00,365.00
             233.93,359.60 233.34,353.55 230.20,349.00
             222.88,338.41 208.99,336.68 200.68,347.04
             199.01,349.12 197.59,351.44 196.80,354.00
             195.21,359.17 195.05,378.69 195.00,385.00
             194.90,396.42 195.53,409.48 182.00,413.36
             175.63,415.20 171.32,412.43 166.00,409.42
             166.00,409.42 144.00,396.75 144.00,396.75
             144.00,396.75 135.00,392.13 135.00,392.13
             135.00,392.13 99.00,371.43 99.00,371.43
             99.00,371.43 80.00,360.94 80.00,360.94
             74.83,357.81 59.91,350.47 57.31,345.90
             55.58,342.84 56.00,331.99 56.00,328.00
             56.00,328.00 56.00,264.00 56.00,264.00
             56.00,264.00 57.00,248.00 57.00,248.00
             57.00,248.00 57.00,222.00 57.00,222.00
             57.01,218.22 56.98,215.76 57.82,212.00
             59.99,202.34 68.57,197.66 78.00,200.30
             78.00,200.30 121.00,221.90 121.00,221.90
             133.26,225.99 145.91,214.57 144.80,203.00
             144.49,199.75 142.90,195.07 140.87,192.51
             137.90,188.77 132.09,185.53 128.00,183.05
             128.00,183.05 109.00,171.26 109.00,171.26
             102.86,167.65 96.62,163.37 94.83,156.00
             91.55,142.59 109.68,134.77 119.00,129.43
             119.00,129.43 180.00,93.72 180.00,93.72
             180.00,93.72 195.00,85.15 195.00,85.15
             201.65,81.31 205.09,77.77 213.00,74.92 Z
           M 252.00,259.00
           C 248.79,258.69 246.77,257.31 244.00,255.72
             233.35,249.56 231.02,244.87 231.00,233.00
             231.00,233.00 231.00,155.00 231.00,155.00
             230.99,150.62 231.16,145.77 228.44,142.05
             223.71,135.58 211.63,135.06 206.43,141.19
             203.09,145.12 203.01,152.07 203.00,157.00
             203.00,157.00 203.00,235.00 203.00,235.00
             202.97,250.59 195.38,252.70 183.00,259.94
             183.00,259.94 140.00,284.57 140.00,284.57
             134.72,287.57 122.20,296.29 117.00,297.00
             114.61,300.64 112.16,303.53 111.51,308.00
             110.36,315.90 116.73,324.12 125.00,323.52
             132.85,322.95 142.00,316.42 149.00,312.42
             149.00,312.42 193.00,287.13 193.00,287.13
             198.41,283.90 211.07,275.51 217.00,275.39
             223.72,275.26 233.16,282.80 239.09,285.85
             239.09,285.85 267.42,302.40 267.42,302.40
             267.42,302.40 281.01,309.79 281.01,309.79
             285.71,312.57 298.50,320.83 303.00,322.30
             318.39,327.34 327.05,313.04 321.43,303.09
             318.94,298.67 314.14,296.49 310.00,293.94
             310.00,293.94 287.00,280.29 287.00,280.29
             287.00,280.29 266.83,268.38 266.83,268.38
             261.16,264.99 256.86,264.19 252.00,259.00 Z
           M 206.00,140.00
           C 206.00,140.00 205.00,140.00 205.00,140.00
             205.00,140.00 206.00,141.00 206.00,141.00
             206.00,141.00 206.00,140.00 206.00,140.00 Z
           M 292.00,189.00
           C 292.00,189.00 291.00,189.00 291.00,189.00
             291.00,189.00 292.00,190.00 292.00,190.00
             292.00,190.00 292.00,189.00 292.00,189.00 Z
           M 290.00,217.00
           C 290.00,217.00 289.00,217.00 289.00,217.00
             289.00,217.00 290.00,218.00 290.00,218.00
             290.00,218.00 290.00,217.00 290.00,217.00 Z
           M 293.00,220.00
           C 293.00,220.00 292.00,220.00 292.00,220.00
             292.00,220.00 293.00,221.00 293.00,221.00
             293.00,221.00 293.00,220.00 293.00,220.00 Z
           M 122.00,294.00
           C 122.00,294.00 121.00,294.00 121.00,294.00
             121.00,294.00 122.00,295.00 122.00,295.00
             122.00,295.00 122.00,294.00 122.00,294.00 Z
           M 1017.00,566.00
           C 1011.36,577.33 988.66,581.13 977.00,581.00
             945.33,580.64 917.28,554.95 923.47,522.00
             924.58,516.04 927.63,510.10 930.81,505.00
             934.53,499.05 938.96,494.92 945.00,491.34
             957.26,484.07 960.19,483.27 974.00,481.42
             985.58,479.88 1001.07,483.90 1011.00,489.93
             1031.45,502.34 1041.38,526.54 1031.71,549.00
             1029.19,554.87 1023.65,564.74 1017.00,566.00 Z
           M 482.00,483.25
           C 485.29,482.65 490.60,481.88 493.61,483.25
             497.33,485.49 501.66,498.62 503.75,503.00
             503.75,503.00 521.91,545.00 521.91,545.00
             524.73,551.37 525.87,556.16 530.00,562.00
             530.00,562.00 545.09,524.00 545.09,524.00
             545.09,524.00 554.23,500.00 554.23,500.00
             555.90,496.29 559.20,484.89 562.27,483.08
             564.47,481.91 567.64,482.64 570.00,483.08
             568.79,489.65 563.87,499.39 561.20,506.00
             561.20,506.00 539.60,558.00 539.60,558.00
             539.60,558.00 532.68,574.96 532.68,574.96
             531.58,577.07 529.89,579.80 527.06,579.18
             524.35,578.58 523.01,575.25 522.00,573.00
             522.00,573.00 514.23,556.00 514.23,556.00
             514.23,556.00 498.83,521.00 498.83,521.00
             498.83,521.00 482.00,483.25 482.00,483.25 Z
           M 635.00,579.00
           C 635.00,579.00 601.00,579.00 601.00,579.00
             598.23,579.00 589.52,579.50 587.60,577.98
             585.62,576.41 586.00,572.30 586.00,570.00
             586.00,570.00 586.00,498.00 586.00,498.00
             586.02,495.08 585.42,485.75 587.60,484.02
             589.18,482.77 593.02,483.00 595.00,483.00
             595.00,483.00 635.00,483.00 635.00,483.00
             635.00,483.00 635.00,487.00 635.00,487.00
             635.00,487.00 627.00,487.66 627.00,487.66
             627.00,487.66 609.00,487.00 609.00,487.00
             606.52,487.00 602.41,486.78 600.31,488.17
             597.93,489.77 598.05,492.45 597.89,495.00
             597.89,495.00 597.89,521.98 597.89,521.98
             598.36,526.69 603.42,525.99 607.00,526.00
             610.55,526.01 624.14,525.29 626.41,527.02
             627.62,527.95 627.57,528.77 628.00,530.00
             620.14,531.41 613.87,530.95 606.00,531.00
             604.00,531.01 600.38,530.83 598.86,532.31
             597.46,533.67 597.98,537.11 597.98,538.97
             597.98,538.97 597.98,556.00 597.98,556.00
             598.00,559.49 596.59,571.53 599.44,573.49
             601.05,574.60 604.96,574.59 607.00,574.88
             607.00,574.88 628.00,574.88 628.00,574.88
             632.15,575.08 633.55,574.86 635.00,579.00 Z
           M 653.00,483.00
           C 653.00,483.00 658.00,484.02 658.00,484.02
             658.00,484.02 678.29,502.61 678.29,502.61
             678.29,502.61 720.84,543.25 720.84,543.25
             720.84,543.25 740.00,560.00 740.00,560.00
             740.89,553.70 740.05,552.08 740.00,546.00
             740.00,546.00 740.00,497.00 740.00,497.00
             740.03,494.20 739.50,485.72 741.60,484.02
             742.66,483.16 743.78,483.21 745.00,483.00
             745.00,483.00 745.00,579.00 745.00,579.00
             745.00,579.00 740.04,578.07 740.04,578.07
             740.04,578.07 718.00,558.04 718.00,558.04
             718.00,558.04 697.11,538.17 697.11,538.17
             697.11,538.17 691.45,531.99 691.45,531.99
             691.45,531.99 679.99,521.91 679.99,521.91
             679.99,521.91 659.00,502.00 659.00,502.00
             656.76,509.81 657.99,524.41 658.00,533.00
             658.00,533.00 658.00,560.00 658.00,560.00
             658.00,563.27 658.66,575.27 656.98,577.40
             655.89,578.79 654.53,578.73 653.00,579.00
             653.00,579.00 653.00,483.00 653.00,483.00 Z
           M 774.00,483.00
           C 774.00,483.00 804.00,483.00 804.00,483.00
             804.00,483.00 822.00,484.00 822.00,484.00
             822.00,484.00 822.00,487.00 822.00,487.00
             822.00,487.00 796.00,487.00 796.00,487.00
             793.23,487.01 789.56,486.71 787.31,488.60
             784.81,490.71 785.02,494.04 785.00,497.00
             785.00,497.00 785.00,517.00 785.00,517.00
             785.02,519.39 784.81,522.58 786.60,524.43
             788.50,526.38 791.52,526.13 794.00,526.04
             794.00,526.04 815.00,526.04 815.00,526.04
             815.00,526.04 815.00,531.00 815.00,531.00
             815.00,531.00 799.00,531.00 799.00,531.00
             795.99,531.00 789.60,530.23 787.28,531.97
             784.95,533.71 785.05,536.39 785.00,539.00
             784.85,547.17 784.31,568.06 786.00,575.00
             786.00,575.00 821.00,575.00 821.00,575.00
             821.00,575.00 821.00,579.00 821.00,579.00
             821.00,579.00 787.00,579.00 787.00,579.00
             787.00,579.00 773.00,579.00 773.00,579.00
             773.00,579.00 773.00,511.00 773.00,511.00
             773.00,511.00 774.00,483.00 774.00,483.00 Z
           M 834.00,483.00
           C 834.00,483.00 920.00,483.00 920.00,483.00
             919.79,484.20 919.83,485.35 918.98,486.38
             917.19,488.52 908.82,488.00 906.00,487.96
             906.00,487.96 892.00,487.96 892.00,487.96
             889.67,487.79 886.50,487.04 884.60,488.78
             882.66,490.54 883.00,494.58 883.00,497.00
             883.00,497.00 883.00,579.00 883.00,579.00
             883.00,579.00 873.00,580.00 873.00,580.00
             869.89,572.53 871.00,563.95 871.05,556.00
             871.05,556.00 871.05,512.00 871.05,512.00
             871.05,512.00 871.05,496.00 871.05,496.00
             871.36,493.47 872.12,490.67 869.67,488.91
             867.73,487.51 863.38,487.98 861.00,487.70
             861.00,487.70 842.16,487.70 842.16,487.70
             840.65,487.72 837.54,487.95 836.28,487.70
             834.27,486.40 834.33,484.88 834.00,483.00 Z
           M 490.00,485.00
           C 490.00,485.00 489.00,485.00 489.00,485.00
             489.00,485.00 490.00,486.00 490.00,486.00
             490.00,486.00 490.00,485.00 490.00,485.00 Z
           M 971.00,487.30
           C 963.46,488.72 956.04,491.31 950.18,496.43
             925.16,518.29 931.22,568.60 971.09,575.07
             975.69,575.82 978.23,576.33 983.00,575.71
             993.29,574.38 1003.58,570.69 1010.83,562.96
             1029.42,543.12 1026.07,507.15 1002.58,492.61
             993.35,486.90 981.52,486.25 971.00,487.30 Z
           M 942.00,505.00
           C 942.00,505.00 941.00,505.00 941.00,505.00
             941.00,505.00 942.00,506.00 942.00,506.00
             942.00,506.00 942.00,505.00 942.00,505.00 Z
           M 529.00,577.00
           C 529.00,577.00 528.00,577.00 528.00,577.00
             528.00,577.00 529.00,578.00 529.00,578.00
             529.00,578.00 529.00,577.00 529.00,577.00 Z" />
</svg>
